<svg xmlns="http://www.w3.org/2000/svg" xmlns:xlink="http://www.w3.org/1999/xlink"  zoomAndPan="magnify" viewBox="0 0 1500 1499.999933"  preserveAspectRatio="xMidYMid slice" version="1.0"><defs><filter x="0%" y="0%" width="100%" height="100%" id="2a691d38c8"><feColorMatrix values="0 0 0 0 1 0 0 0 0 1 0 0 0 0 1 0 0 0 1 0" color-interpolation-filters="sRGB"/></filter><mask id="bbd293c98a"><g filter="url(#2a691d38c8)"><rect x="-150" width="1800" fill="#000000" y="-149.999993" height="1799.99992" fill-opacity="0.57"/></g></mask><clipPath id="8755048290"><rect x="0" width="1500" y="0" height="1500"/></clipPath></defs><g mask="url(#bbd293c98a)"><g transform="matrix(1, 0, 0, 1, 0, 0.000000000000112861)"><g clip-path="url(#8755048290)"><path fill="#ffb080" d="M 504.332031 1392.164062 C 506.730469 1387.519531 508.859375 1382.675781 510.75 1377.636719 C 518.503906 1356.730469 519.09375 1336.769531 502.046875 1319.683594 C 484.566406 1302.203125 463.738281 1303.1875 442.558594 1311.574219 C 437.835938 1313.425781 433.1875 1315.628906 428.660156 1318.109375 C 427.203125 1313.148438 425.472656 1308.308594 423.425781 1303.621094 C 414.371094 1282.753906 400.355469 1267.324219 375.628906 1267.324219 C 351.496094 1267.324219 337.796875 1281.890625 328.503906 1302.164062 C 326.261719 1307.046875 324.371094 1312.007812 322.757812 1316.96875 C 318.898438 1314.921875 315 1313.109375 310.984375 1311.574219 C 289.804688 1303.1875 268.976562 1302.203125 251.535156 1319.683594 C 234.449219 1336.773438 235.039062 1356.730469 242.835938 1377.636719 C 244.410156 1381.929688 246.21875 1386.0625 248.148438 1390.078125 C 243.976562 1391.496094 239.765625 1393.148438 235.589844 1395.078125 C 215.316406 1404.371094 200.789062 1418.070312 200.789062 1442.203125 C 200.789062 1466.890625 216.179688 1480.945312 237.085938 1490 C 241.023438 1491.691406 245.078125 1493.1875 249.210938 1494.488281 C 248.308594 1496.261719 247.441406 1498.03125 246.613281 1499.882812 L 506.929688 1499.882812 C 506.417969 1498.78125 505.90625 1497.675781 505.394531 1496.613281 C 509.605469 1495.15625 513.78125 1493.503906 517.953125 1491.613281 C 538.226562 1482.324219 552.796875 1468.621094 552.796875 1444.488281 C 552.796875 1419.765625 537.363281 1405.75 516.496094 1396.652344 C 512.558594 1394.960938 508.503906 1393.464844 504.332031 1392.164062 Z M 504.332031 1392.164062 " fill-opacity="1" fill-rule="evenodd"/><path fill="#ffb080" d="M 246.613281 0 C 245.277344 2.992188 243.976562 6.023438 242.835938 9.171875 C 235.039062 30.078125 234.449219 50.039062 251.535156 67.125 C 268.976562 84.605469 289.804688 83.621094 310.984375 75.234375 C 315.707031 73.386719 320.355469 71.179688 324.921875 68.660156 C 326.339844 73.660156 328.070312 78.503906 330.117188 83.148438 C 339.171875 104.054688 353.226562 119.488281 377.914062 119.488281 C 402.046875 119.488281 415.746094 104.921875 425.039062 84.644531 C 427.285156 79.722656 429.210938 74.804688 430.789062 69.84375 C 434.644531 71.851562 438.582031 73.660156 442.558594 75.234375 C 463.738281 83.621094 484.566406 84.605469 502.046875 67.125 C 519.09375 50.039062 518.503906 30.078125 510.746094 9.171875 C 509.566406 6.023438 508.308594 2.992188 506.929688 0 Z M 246.613281 0 " fill-opacity="1" fill-rule="evenodd"/><path fill="#ffb080" d="M 504.332031 267.285156 C 506.730469 262.636719 508.859375 257.796875 510.75 252.714844 C 518.503906 231.8125 519.09375 211.851562 502.046875 194.765625 C 484.566406 177.324219 463.738281 178.308594 442.558594 186.652344 C 437.835938 188.542969 433.1875 190.707031 428.660156 193.226562 C 427.203125 188.226562 425.472656 183.386719 423.425781 178.738281 C 414.371094 157.835938 400.355469 142.441406 375.628906 142.441406 C 351.496094 142.441406 337.796875 156.96875 328.503906 177.242188 C 326.261719 182.164062 324.371094 187.085938 322.757812 192.046875 C 318.898438 190.039062 315 188.226562 310.984375 186.652344 C 289.804688 178.308594 268.976562 177.324219 251.535156 194.765625 C 234.449219 211.851562 235.039062 231.8125 242.835938 252.714844 C 244.410156 257.046875 246.21875 261.179688 248.148438 265.15625 C 243.976562 266.613281 239.765625 268.269531 235.589844 270.15625 C 215.316406 279.449219 200.789062 293.148438 200.789062 317.285156 C 200.789062 342.007812 216.179688 356.023438 237.085938 365.117188 C 241.023438 366.8125 245.078125 368.308594 249.210938 369.605469 C 246.851562 374.25 244.722656 379.09375 242.835938 384.132812 C 235.039062 405.039062 234.449219 425 251.535156 442.085938 C 268.976562 459.566406 289.804688 458.582031 310.984375 450.195312 C 315.707031 448.347656 320.355469 446.140625 324.921875 443.660156 C 326.339844 448.621094 328.070312 453.464844 330.117188 458.148438 C 339.171875 479.015625 353.226562 494.449219 377.914062 494.449219 C 402.046875 494.449219 415.75 479.882812 425.039062 459.605469 C 427.285156 454.683594 429.210938 449.765625 430.789062 444.804688 C 434.644531 446.851562 438.582031 448.621094 442.558594 450.195312 C 463.738281 458.582031 484.566406 459.566406 502.046875 442.085938 C 519.09375 425 518.503906 405.039062 510.75 384.132812 C 509.132812 379.84375 507.363281 375.707031 505.394531 371.691406 C 509.605469 370.277344 513.78125 368.621094 517.953125 366.691406 C 538.226562 357.402344 552.796875 343.699219 552.796875 319.566406 C 552.796875 294.882812 537.363281 280.828125 516.496094 271.773438 C 512.558594 270.078125 508.503906 268.582031 504.332031 267.285156 Z M 504.332031 267.285156 " fill-opacity="1" fill-rule="evenodd"/><path fill="#ffb080" d="M 504.332031 642.242188 C 506.730469 637.597656 508.859375 632.753906 510.75 627.714844 C 518.503906 606.8125 519.09375 586.8125 502.046875 569.765625 C 484.566406 552.285156 463.738281 553.269531 442.558594 561.613281 C 437.835938 563.503906 433.1875 565.667969 428.660156 568.1875 C 427.203125 563.1875 425.472656 558.386719 423.425781 553.699219 C 414.371094 532.835938 400.355469 517.402344 375.628906 517.402344 C 351.496094 517.402344 337.796875 531.929688 328.503906 552.242188 C 326.261719 557.125 324.371094 562.085938 322.757812 567.046875 C 318.898438 565 315 563.1875 310.984375 561.613281 C 289.804688 553.269531 268.976562 552.285156 251.535156 569.765625 C 234.449219 586.8125 235.039062 606.8125 242.835938 627.714844 C 244.410156 632.007812 246.21875 636.140625 248.148438 640.117188 C 243.976562 641.574219 239.765625 643.226562 235.589844 645.15625 C 215.316406 654.410156 200.789062 668.109375 200.789062 692.285156 C 200.789062 716.96875 216.179688 731.023438 237.085938 740.078125 C 241.023438 741.773438 245.078125 743.269531 249.210938 744.566406 C 246.851562 749.210938 244.722656 754.054688 242.835938 759.09375 C 235.039062 780 234.449219 800 251.535156 817.046875 C 268.976562 834.527344 289.804688 833.542969 310.984375 825.195312 C 315.707031 823.308594 320.355469 821.140625 324.921875 818.621094 C 326.339844 823.621094 328.070312 828.425781 330.117188 833.109375 C 339.171875 853.976562 353.226562 869.410156 377.914062 869.410156 C 402.046875 869.410156 415.75 854.882812 425.039062 834.566406 C 427.285156 829.683594 429.210938 824.722656 430.789062 819.765625 C 434.644531 821.8125 438.582031 823.621094 442.558594 825.195312 C 463.738281 833.542969 484.566406 834.527344 502.046875 817.046875 C 519.09375 800 518.503906 780 510.75 759.09375 C 509.132812 754.804688 507.363281 750.667969 505.394531 746.691406 C 509.605469 745.234375 513.78125 743.582031 517.953125 741.652344 C 538.226562 732.402344 552.796875 718.699219 552.796875 694.527344 C 552.796875 669.84375 537.363281 655.789062 516.496094 646.730469 C 512.558594 645.039062 508.503906 643.542969 504.332031 642.242188 Z M 504.332031 642.242188 " fill-opacity="1" fill-rule="evenodd"/><path fill="#ffb080" d="M 504.332031 1017.203125 C 506.730469 1012.558594 508.859375 1007.714844 510.75 1002.675781 C 518.503906 981.773438 519.09375 961.773438 502.046875 944.722656 C 484.566406 927.242188 463.738281 928.226562 442.558594 936.574219 C 437.835938 938.464844 433.1875 940.628906 428.660156 943.148438 C 427.203125 938.148438 425.472656 933.347656 423.425781 928.660156 C 414.371094 907.796875 400.355469 892.363281 375.628906 892.363281 C 351.496094 892.363281 337.796875 906.890625 328.503906 927.203125 C 326.261719 932.085938 324.371094 937.046875 322.757812 942.007812 C 318.898438 939.960938 315 938.148438 310.984375 936.574219 C 289.804688 928.226562 268.976562 927.242188 251.535156 944.722656 C 234.449219 961.773438 235.039062 981.773438 242.835938 1002.675781 C 244.410156 1006.96875 246.21875 1011.101562 248.148438 1015.078125 C 243.976562 1016.535156 239.765625 1018.1875 235.589844 1020.117188 C 215.316406 1029.371094 200.789062 1043.070312 200.789062 1067.242188 C 200.789062 1091.929688 216.179688 1105.984375 237.085938 1115.039062 C 241.023438 1116.730469 245.078125 1118.226562 249.210938 1119.527344 C 246.851562 1124.171875 244.722656 1129.015625 242.835938 1134.054688 C 235.039062 1154.960938 234.449219 1174.960938 251.535156 1192.007812 C 268.976562 1209.488281 289.804688 1208.503906 310.984375 1200.15625 C 315.707031 1198.269531 320.355469 1196.101562 324.921875 1193.582031 C 326.339844 1198.582031 328.070312 1203.386719 330.117188 1208.070312 C 339.171875 1228.9375 353.226562 1244.371094 377.914062 1244.371094 C 402.046875 1244.371094 415.75 1229.84375 425.039062 1209.527344 C 427.285156 1204.644531 429.210938 1199.683594 430.789062 1194.722656 C 434.644531 1196.769531 438.582031 1198.582031 442.558594 1200.15625 C 463.738281 1208.503906 484.566406 1209.488281 502.046875 1192.007812 C 519.09375 1174.960938 518.503906 1154.960938 510.75 1134.054688 C 509.132812 1129.761719 507.363281 1125.628906 505.394531 1121.652344 C 509.605469 1120.195312 513.78125 1118.542969 517.953125 1116.613281 C 538.226562 1107.363281 552.796875 1093.660156 552.796875 1069.488281 C 552.796875 1044.804688 537.363281 1030.746094 516.496094 1021.691406 C 512.558594 1020 508.503906 1018.503906 504.332031 1017.203125 Z M 504.332031 1017.203125 " fill-opacity="1" fill-rule="evenodd"/><path fill="#ffb080" d="M 879.292969 1165.550781 C 881.691406 1160.945312 883.820312 1156.101562 885.707031 1151.023438 C 893.464844 1130.117188 894.09375 1110.15625 877.007812 1093.070312 C 859.527344 1075.589844 838.699219 1076.574219 817.519531 1084.960938 C 812.796875 1086.8125 808.148438 1089.015625 803.621094 1091.535156 C 802.164062 1086.535156 800.433594 1081.691406 798.425781 1077.046875 C 789.371094 1056.140625 775.316406 1040.707031 750.628906 1040.707031 C 726.457031 1040.707031 712.753906 1055.277344 703.464844 1075.550781 C 701.21875 1080.472656 699.332031 1085.394531 697.714844 1090.355469 C 693.859375 1088.347656 689.960938 1086.535156 685.945312 1084.960938 C 664.804688 1076.574219 643.9375 1075.589844 626.496094 1093.070312 C 609.410156 1110.15625 610 1130.117188 617.796875 1151.023438 C 619.410156 1155.316406 621.179688 1159.449219 623.148438 1163.464844 C 618.9375 1164.882812 614.722656 1166.574219 610.550781 1168.464844 C 590.277344 1177.753906 575.746094 1191.457031 575.746094 1215.589844 C 575.746094 1240.316406 591.179688 1254.332031 612.046875 1263.386719 C 615.984375 1265.117188 620.039062 1266.613281 624.210938 1267.875 C 621.8125 1272.519531 619.683594 1277.363281 617.796875 1282.441406 C 610 1303.347656 609.410156 1323.308594 626.496094 1340.394531 C 643.9375 1357.835938 664.804688 1356.851562 685.945312 1348.503906 C 690.707031 1346.652344 695.316406 1344.449219 699.882812 1341.929688 C 701.339844 1346.929688 703.070312 1351.773438 705.078125 1356.417969 C 714.132812 1377.324219 728.1875 1392.757812 752.875 1392.757812 C 777.046875 1392.757812 790.746094 1378.1875 800 1357.914062 C 802.242188 1352.992188 804.171875 1348.070312 805.746094 1343.109375 C 809.605469 1345.117188 813.542969 1346.929688 817.519531 1348.503906 C 838.699219 1356.851562 859.527344 1357.835938 877.007812 1340.394531 C 894.09375 1323.308594 893.464844 1303.347656 885.707031 1282.441406 C 884.09375 1278.148438 882.324219 1273.976562 880.355469 1270 C 884.566406 1268.582031 888.738281 1266.890625 892.914062 1265 C 913.1875 1255.707031 927.757812 1242.007812 927.757812 1217.875 C 927.757812 1193.148438 912.324219 1179.132812 891.457031 1170.078125 C 887.519531 1168.347656 883.464844 1166.851562 879.292969 1165.550781 Z M 879.292969 1165.550781 " fill-opacity="1" fill-rule="evenodd"/><path fill="#ffb080" d="M 879.292969 790.589844 C 881.691406 785.945312 883.820312 781.101562 885.707031 776.0625 C 893.464844 755.15625 894.09375 735.195312 877.007812 718.109375 C 859.527344 700.628906 838.699219 701.613281 817.519531 710 C 812.796875 711.851562 808.148438 714.054688 803.621094 716.535156 C 802.164062 711.574219 800.433594 706.730469 798.425781 702.046875 C 789.371094 681.179688 775.316406 665.746094 750.628906 665.746094 C 726.457031 665.746094 712.753906 680.316406 703.464844 700.589844 C 701.21875 705.511719 699.332031 710.433594 697.714844 715.394531 C 693.859375 713.347656 689.960938 711.574219 685.945312 710 C 664.804688 701.613281 643.9375 700.628906 626.496094 718.109375 C 609.410156 735.195312 610 755.15625 617.796875 776.0625 C 619.410156 780.355469 621.179688 784.488281 623.148438 788.503906 C 618.9375 789.921875 614.722656 791.574219 610.550781 793.503906 C 590.277344 802.796875 575.746094 816.496094 575.746094 840.628906 C 575.746094 865.316406 591.179688 879.371094 612.046875 888.425781 C 615.984375 890.117188 620.039062 891.613281 624.210938 892.914062 C 621.8125 897.558594 619.683594 902.402344 617.796875 907.480469 C 610 928.386719 609.410156 948.347656 626.496094 965.433594 C 643.9375 982.875 664.804688 981.890625 685.945312 973.542969 C 690.707031 971.652344 695.316406 969.488281 699.882812 966.96875 C 701.339844 971.96875 703.070312 976.8125 705.078125 981.457031 C 714.132812 1002.363281 728.1875 1017.753906 752.875 1017.753906 C 777.046875 1017.753906 790.746094 1003.226562 800 982.953125 C 802.242188 978.03125 804.171875 973.109375 805.746094 968.148438 C 809.605469 970.15625 813.542969 971.96875 817.519531 973.542969 C 838.699219 981.890625 859.527344 982.875 877.007812 965.433594 C 894.09375 948.347656 893.464844 928.386719 885.707031 907.480469 C 884.09375 903.148438 882.324219 899.015625 880.355469 895.039062 C 884.566406 893.582031 888.738281 891.929688 892.914062 890.039062 C 913.1875 880.746094 927.757812 867.046875 927.757812 842.914062 C 927.757812 818.1875 912.324219 804.171875 891.457031 795.078125 C 887.519531 793.386719 883.464844 791.890625 879.292969 790.589844 Z M 879.292969 790.589844 " fill-opacity="1" fill-rule="evenodd"/><path fill="#ffb080" d="M 879.292969 415.628906 C 881.691406 410.984375 883.820312 406.140625 885.707031 401.101562 C 893.464844 380.195312 894.09375 360.195312 877.007812 343.148438 C 859.527344 325.667969 838.699219 326.652344 817.519531 335 C 812.796875 336.890625 808.148438 339.054688 803.621094 341.574219 C 802.164062 336.574219 800.433594 331.773438 798.425781 327.085938 C 789.371094 306.21875 775.316406 290.789062 750.628906 290.789062 C 726.457031 290.789062 712.753906 305.316406 703.464844 325.628906 C 701.21875 330.511719 699.332031 335.472656 697.714844 340.433594 C 693.859375 338.386719 689.960938 336.574219 685.945312 335 C 664.804688 326.652344 643.9375 325.667969 626.496094 343.148438 C 609.410156 360.195312 610 380.195312 617.796875 401.101562 C 619.410156 405.394531 621.179688 409.527344 623.148438 413.503906 C 618.9375 414.960938 614.722656 416.613281 610.550781 418.542969 C 590.277344 427.796875 575.746094 441.496094 575.746094 465.667969 C 575.746094 490.355469 591.179688 504.410156 612.046875 513.464844 C 615.984375 515.15625 620.039062 516.652344 624.210938 517.953125 C 621.8125 522.597656 619.683594 527.441406 617.796875 532.480469 C 610 553.386719 609.410156 573.386719 626.496094 590.433594 C 643.9375 607.914062 664.804688 606.929688 685.945312 598.582031 C 690.707031 596.691406 695.316406 594.527344 699.882812 592.007812 C 701.339844 597.007812 703.070312 601.8125 705.078125 606.496094 C 714.132812 627.363281 728.1875 642.796875 752.875 642.796875 C 777.046875 642.796875 790.746094 628.269531 800 607.953125 C 802.242188 603.070312 804.171875 598.109375 805.746094 593.148438 C 809.605469 595.195312 813.542969 597.007812 817.519531 598.582031 C 838.699219 606.929688 859.527344 607.914062 877.007812 590.433594 C 894.09375 573.386719 893.464844 553.386719 885.707031 532.480469 C 884.09375 528.1875 882.324219 524.054688 880.355469 520.078125 C 884.566406 518.621094 888.738281 516.96875 892.914062 515.039062 C 913.1875 505.789062 927.757812 492.085938 927.757812 467.914062 C 927.757812 443.226562 912.324219 429.171875 891.457031 420.117188 C 887.519531 418.425781 883.464844 416.929688 879.292969 415.628906 Z M 879.292969 415.628906 " fill-opacity="1" fill-rule="evenodd"/><path fill="#ffb080" d="M 890.90625 1499.882812 C 890.746094 1488.542969 886.773438 1477.835938 877.007812 1468.03125 C 859.527344 1450.589844 838.699219 1451.574219 817.519531 1459.921875 C 812.796875 1461.773438 808.148438 1463.976562 803.621094 1466.496094 C 802.164062 1461.496094 800.433594 1456.652344 798.425781 1452.007812 C 789.371094 1431.101562 775.316406 1415.667969 750.589844 1415.667969 C 726.457031 1415.667969 712.753906 1430.234375 703.464844 1450.511719 C 701.21875 1455.433594 699.332031 1460.355469 697.714844 1465.316406 C 693.859375 1463.308594 689.960938 1461.496094 685.945312 1459.921875 C 664.804688 1451.574219 643.9375 1450.589844 626.496094 1468.03125 C 616.691406 1477.835938 612.714844 1488.542969 612.558594 1499.882812 Z M 890.90625 1499.882812 " fill-opacity="1" fill-rule="evenodd"/><path fill="#ffb080" d="M 879.292969 40.667969 C 881.691406 36.023438 883.820312 31.179688 885.707031 26.140625 C 889.015625 17.203125 891.023438 8.425781 890.90625 0 L 612.558594 0 C 612.441406 8.425781 614.488281 17.203125 617.796875 26.140625 C 619.410156 30.433594 621.179688 34.566406 623.148438 38.542969 C 618.9375 40 614.722656 41.652344 610.550781 43.582031 C 590.277344 52.835938 575.75 66.535156 575.75 90.707031 C 575.75 115.394531 591.179688 129.449219 612.046875 138.503906 C 615.984375 140.195312 620.039062 141.691406 624.210938 142.992188 C 621.8125 147.636719 619.683594 152.480469 617.796875 157.519531 C 610 178.425781 609.410156 198.425781 626.496094 215.472656 C 643.9375 232.953125 664.804688 231.96875 685.945312 223.621094 C 690.707031 221.730469 695.316406 219.566406 699.882812 217.046875 C 701.339844 222.046875 703.070312 226.851562 705.078125 231.535156 C 714.132812 252.402344 728.1875 267.835938 752.875 267.835938 C 777.046875 267.835938 790.75 253.308594 800 232.992188 C 802.246094 228.109375 804.171875 223.148438 805.75 218.1875 C 809.605469 220.234375 813.542969 222.046875 817.519531 223.621094 C 838.699219 231.96875 859.527344 232.953125 877.007812 215.472656 C 894.09375 198.425781 893.464844 178.425781 885.707031 157.519531 C 884.09375 153.226562 882.324219 149.09375 880.355469 145.117188 C 884.566406 143.660156 888.742188 142.007812 892.914062 140.078125 C 913.1875 130.828125 927.757812 117.125 927.757812 92.953125 C 927.757812 68.269531 912.324219 54.210938 891.457031 45.15625 C 887.519531 43.464844 883.464844 41.96875 879.292969 40.667969 Z M 879.292969 40.667969 " fill-opacity="1" fill-rule="evenodd"/><path fill="#ffb080" d="M 1254.25 1392.164062 C 1256.652344 1387.519531 1258.78125 1382.675781 1260.667969 1377.636719 C 1268.464844 1356.730469 1269.054688 1336.769531 1251.96875 1319.683594 C 1234.488281 1302.203125 1213.660156 1303.1875 1192.480469 1311.574219 C 1187.753906 1313.425781 1183.109375 1315.628906 1178.582031 1318.109375 C 1177.125 1313.148438 1175.394531 1308.308594 1173.386719 1303.621094 C 1164.332031 1282.753906 1150.277344 1267.324219 1125.589844 1267.324219 C 1101.417969 1267.324219 1087.714844 1281.890625 1078.464844 1302.164062 C 1076.21875 1307.046875 1074.292969 1312.007812 1072.714844 1316.96875 C 1068.859375 1314.921875 1064.921875 1313.109375 1060.945312 1311.574219 C 1039.765625 1303.1875 1018.9375 1302.203125 1001.457031 1319.683594 C 984.371094 1336.773438 984.960938 1356.730469 992.757812 1377.636719 C 994.371094 1381.929688 996.140625 1386.0625 998.109375 1390.078125 C 993.898438 1391.496094 989.722656 1393.148438 985.550781 1395.078125 C 965.234375 1404.371094 950.707031 1418.070312 950.707031 1442.203125 C 950.707031 1466.890625 966.140625 1480.945312 987.007812 1490 C 990.945312 1491.691406 995 1493.1875 999.171875 1494.488281 C 998.269531 1496.261719 997.402344 1498.03125 996.535156 1499.882812 L 1256.890625 1499.882812 C 1256.378906 1498.78125 1255.867188 1497.675781 1255.316406 1496.613281 C 1259.527344 1495.15625 1263.738281 1493.503906 1267.875 1491.613281 C 1288.1875 1482.324219 1302.714844 1468.621094 1302.714844 1444.488281 C 1302.714844 1419.765625 1287.285156 1405.75 1266.417969 1396.652344 C 1262.480469 1394.960938 1258.425781 1393.464844 1254.253906 1392.164062 Z M 1254.25 1392.164062 " fill-opacity="1" fill-rule="evenodd"/><path fill="#ffb080" d="M 996.535156 0 C 995.195312 2.992188 993.9375 6.023438 992.753906 9.171875 C 984.960938 30.078125 984.371094 50.039062 1001.457031 67.125 C 1018.9375 84.605469 1039.765625 83.621094 1060.945312 75.234375 C 1065.667969 73.386719 1070.316406 71.179688 1074.84375 68.660156 C 1076.300781 73.660156 1078.03125 78.503906 1080.039062 83.148438 C 1089.09375 104.054688 1103.148438 119.488281 1127.835938 119.488281 C 1152.007812 119.488281 1165.707031 104.921875 1174.960938 84.644531 C 1177.203125 79.722656 1179.132812 74.804688 1180.707031 69.84375 C 1184.605469 71.851562 1188.503906 73.660156 1192.480469 75.234375 C 1213.660156 83.621094 1234.488281 84.605469 1251.96875 67.125 C 1269.054688 50.039062 1268.464844 30.078125 1260.667969 9.171875 C 1259.488281 6.023438 1258.226562 2.992188 1256.890625 0 Z M 996.535156 0 " fill-opacity="1" fill-rule="evenodd"/><path fill="#ffb080" d="M 1254.25 267.285156 C 1256.652344 262.636719 1258.78125 257.796875 1260.667969 252.714844 C 1268.464844 231.8125 1269.054688 211.851562 1251.96875 194.765625 C 1234.488281 177.324219 1213.660156 178.308594 1192.480469 186.652344 C 1187.753906 188.542969 1183.109375 190.707031 1178.582031 193.226562 C 1177.125 188.226562 1175.394531 183.386719 1173.386719 178.738281 C 1164.332031 157.835938 1150.277344 142.441406 1125.589844 142.441406 C 1101.417969 142.441406 1087.714844 156.96875 1078.464844 177.242188 C 1076.21875 182.164062 1074.292969 187.085938 1072.714844 192.046875 C 1068.859375 190.039062 1064.921875 188.226562 1060.945312 186.652344 C 1039.765625 178.308594 1018.9375 177.324219 1001.457031 194.765625 C 984.371094 211.851562 984.960938 231.8125 992.757812 252.714844 C 994.371094 257.046875 996.140625 261.179688 998.109375 265.15625 C 993.898438 266.613281 989.722656 268.269531 985.550781 270.15625 C 965.234375 279.449219 950.707031 293.148438 950.707031 317.285156 C 950.707031 342.007812 966.140625 356.023438 987.007812 365.117188 C 990.945312 366.8125 995 368.308594 999.171875 369.605469 C 996.773438 374.25 994.644531 379.09375 992.753906 384.132812 C 984.960938 405.039062 984.371094 425 1001.457031 442.085938 C 1018.9375 459.566406 1039.765625 458.582031 1060.945312 450.195312 C 1065.667969 448.347656 1070.316406 446.140625 1074.84375 443.660156 C 1076.300781 448.621094 1078.03125 453.464844 1080.039062 458.148438 C 1089.09375 479.015625 1103.148438 494.449219 1127.835938 494.449219 C 1152.007812 494.449219 1165.707031 479.882812 1174.960938 459.605469 C 1177.203125 454.683594 1179.132812 449.765625 1180.707031 444.804688 C 1184.566406 446.851562 1188.503906 448.621094 1192.480469 450.195312 C 1213.660156 458.582031 1234.488281 459.566406 1251.96875 442.085938 C 1269.054688 425 1268.464844 405.039062 1260.667969 384.132812 C 1259.054688 379.84375 1257.285156 375.707031 1255.316406 371.691406 C 1259.527344 370.277344 1263.738281 368.621094 1267.875 366.691406 C 1288.1875 357.402344 1302.714844 343.699219 1302.714844 319.566406 C 1302.714844 294.882812 1287.285156 280.828125 1266.417969 271.773438 C 1262.480469 270.078125 1258.425781 268.582031 1254.25 267.285156 Z M 1254.25 267.285156 " fill-opacity="1" fill-rule="evenodd"/><path fill="#ffb080" d="M 1254.25 642.242188 C 1256.652344 637.597656 1258.78125 632.753906 1260.667969 627.714844 C 1268.464844 606.8125 1269.054688 586.8125 1251.96875 569.765625 C 1234.488281 552.285156 1213.660156 553.269531 1192.480469 561.613281 C 1187.753906 563.503906 1183.109375 565.667969 1178.582031 568.1875 C 1177.125 563.1875 1175.394531 558.386719 1173.386719 553.699219 C 1164.332031 532.835938 1150.277344 517.402344 1125.589844 517.402344 C 1101.417969 517.402344 1087.714844 531.929688 1078.464844 552.242188 C 1076.21875 557.125 1074.292969 562.085938 1072.714844 567.046875 C 1068.859375 565 1064.921875 563.1875 1060.945312 561.613281 C 1039.765625 553.269531 1018.9375 552.285156 1001.457031 569.765625 C 984.371094 586.8125 984.960938 606.8125 992.757812 627.714844 C 994.371094 632.007812 996.140625 636.140625 998.109375 640.117188 C 993.898438 641.574219 989.722656 643.226562 985.550781 645.15625 C 965.234375 654.410156 950.707031 668.109375 950.707031 692.285156 C 950.707031 716.96875 966.140625 731.023438 987.007812 740.078125 C 990.945312 741.773438 995 743.269531 999.171875 744.566406 C 996.773438 749.210938 994.644531 754.054688 992.753906 759.09375 C 984.960938 780 984.371094 800 1001.457031 817.046875 C 1018.9375 834.527344 1039.765625 833.542969 1060.945312 825.195312 C 1065.667969 823.308594 1070.316406 821.140625 1074.84375 818.621094 C 1076.300781 823.621094 1078.03125 828.425781 1080.039062 833.109375 C 1089.09375 853.976562 1103.148438 869.410156 1127.835938 869.410156 C 1152.007812 869.410156 1165.707031 854.882812 1174.960938 834.566406 C 1177.203125 829.683594 1179.132812 824.722656 1180.707031 819.765625 C 1184.566406 821.8125 1188.503906 823.621094 1192.480469 825.195312 C 1213.660156 833.542969 1234.488281 834.527344 1251.96875 817.046875 C 1269.054688 800 1268.464844 780 1260.667969 759.09375 C 1259.054688 754.804688 1257.285156 750.667969 1255.316406 746.691406 C 1259.527344 745.234375 1263.738281 743.582031 1267.875 741.652344 C 1288.1875 732.402344 1302.714844 718.699219 1302.714844 694.527344 C 1302.714844 669.84375 1287.285156 655.789062 1266.417969 646.730469 C 1262.480469 645.039062 1258.425781 643.542969 1254.25 642.242188 Z M 1254.25 642.242188 " fill-opacity="1" fill-rule="evenodd"/><path fill="#ffb080" d="M 1254.25 1017.203125 C 1256.652344 1012.558594 1258.78125 1007.714844 1260.667969 1002.675781 C 1268.464844 981.773438 1269.054688 961.773438 1251.96875 944.722656 C 1234.488281 927.242188 1213.660156 928.226562 1192.480469 936.574219 C 1187.753906 938.464844 1183.109375 940.628906 1178.582031 943.148438 C 1177.125 938.148438 1175.394531 933.347656 1173.386719 928.660156 C 1164.332031 907.796875 1150.277344 892.363281 1125.589844 892.363281 C 1101.417969 892.363281 1087.714844 906.890625 1078.464844 927.203125 C 1076.21875 932.085938 1074.292969 937.046875 1072.714844 942.007812 C 1068.859375 939.960938 1064.921875 938.148438 1060.945312 936.574219 C 1039.765625 928.226562 1018.9375 927.242188 1001.457031 944.722656 C 984.371094 961.773438 984.960938 981.773438 992.757812 1002.675781 C 994.371094 1006.96875 996.140625 1011.101562 998.109375 1015.078125 C 993.898438 1016.535156 989.722656 1018.1875 985.550781 1020.117188 C 965.234375 1029.371094 950.707031 1043.070312 950.707031 1067.242188 C 950.707031 1091.929688 966.140625 1105.984375 987.007812 1115.039062 C 990.945312 1116.730469 995 1118.226562 999.171875 1119.527344 C 996.773438 1124.171875 994.644531 1129.015625 992.753906 1134.054688 C 984.960938 1154.960938 984.371094 1174.960938 1001.457031 1192.007812 C 1018.9375 1209.488281 1039.765625 1208.503906 1060.945312 1200.15625 C 1065.667969 1198.269531 1070.316406 1196.101562 1074.84375 1193.582031 C 1076.300781 1198.582031 1078.03125 1203.386719 1080.039062 1208.070312 C 1089.09375 1228.9375 1103.148438 1244.371094 1127.835938 1244.371094 C 1152.007812 1244.371094 1165.707031 1229.84375 1174.960938 1209.527344 C 1177.203125 1204.644531 1179.132812 1199.683594 1180.707031 1194.722656 C 1184.566406 1196.769531 1188.503906 1198.582031 1192.480469 1200.15625 C 1213.660156 1208.503906 1234.488281 1209.488281 1251.96875 1192.007812 C 1269.054688 1174.960938 1268.464844 1154.960938 1260.667969 1134.054688 C 1259.054688 1129.761719 1257.285156 1125.628906 1255.316406 1121.652344 C 1259.527344 1120.195312 1263.738281 1118.542969 1267.875 1116.613281 C 1288.1875 1107.363281 1302.714844 1093.660156 1302.714844 1069.488281 C 1302.714844 1044.804688 1287.285156 1030.746094 1266.417969 1021.691406 C 1262.480469 1020 1258.425781 1018.503906 1254.25 1017.203125 Z M 1254.25 1017.203125 " fill-opacity="1" fill-rule="evenodd"/><path fill="#ffb080" d="M 129.371094 1165.550781 C 131.730469 1160.945312 133.898438 1156.101562 135.75 1151.023438 C 143.542969 1130.117188 144.132812 1110.15625 127.085938 1093.070312 C 109.605469 1075.589844 88.78125 1076.574219 67.597656 1084.960938 C 62.875 1086.8125 58.226562 1089.015625 53.660156 1091.535156 C 52.242188 1086.535156 50.511719 1081.691406 48.464844 1077.046875 C 39.410156 1056.140625 25.394531 1040.707031 0.667969 1040.707031 C 0.433594 1040.707031 0.234375 1040.707031 0 1040.707031 L 0 1392.675781 C 0.984375 1392.714844 1.929688 1392.753906 2.953125 1392.753906 C 27.085938 1392.753906 40.789062 1378.1875 50.078125 1357.914062 C 52.324219 1352.992188 54.253906 1348.070312 55.828125 1343.109375 C 59.683594 1345.117188 63.621094 1346.929688 67.597656 1348.503906 C 88.78125 1356.851562 109.605469 1357.835938 127.085938 1340.394531 C 144.132812 1323.308594 143.542969 1303.347656 135.75 1282.441406 C 134.171875 1278.148438 132.402344 1273.976562 130.433594 1270 C 134.644531 1268.582031 138.820312 1266.890625 142.992188 1265 C 163.269531 1255.707031 177.835938 1242.007812 177.835938 1217.875 C 177.835938 1193.148438 162.402344 1179.132812 141.496094 1170.078125 C 137.558594 1168.347656 133.542969 1166.851562 129.371094 1165.550781 Z M 129.371094 1165.550781 " fill-opacity="1" fill-rule="evenodd"/><path fill="#ffb080" d="M 129.371094 790.589844 C 131.730469 785.984375 133.898438 781.101562 135.75 776.0625 C 143.542969 755.15625 144.132812 735.195312 127.085938 718.109375 C 109.605469 700.628906 88.78125 701.613281 67.597656 710 C 62.875 711.851562 58.226562 714.054688 53.660156 716.535156 C 52.242188 711.574219 50.511719 706.730469 48.464844 702.046875 C 39.410156 681.179688 25.394531 665.746094 0.667969 665.746094 C 0.433594 665.746094 0.234375 665.746094 0 665.746094 L 0 1017.675781 C 0.984375 1017.753906 1.929688 1017.753906 2.953125 1017.753906 C 27.085938 1017.753906 40.789062 1003.226562 50.078125 982.953125 C 52.324219 978.03125 54.253906 973.109375 55.828125 968.148438 C 59.683594 970.15625 63.621094 971.96875 67.597656 973.542969 C 88.78125 981.890625 109.605469 982.875 127.085938 965.433594 C 144.132812 948.347656 143.542969 928.386719 135.75 907.480469 C 134.171875 903.148438 132.402344 899.015625 130.433594 895.039062 C 134.644531 893.582031 138.820312 891.929688 142.992188 890.039062 C 163.269531 880.746094 177.835938 867.046875 177.835938 842.914062 C 177.835938 818.1875 162.402344 804.171875 141.496094 795.078125 C 137.558594 793.386719 133.542969 791.890625 129.371094 790.589844 Z M 129.371094 790.589844 " fill-opacity="1" fill-rule="evenodd"/><path fill="#ffb080" d="M 129.371094 415.628906 C 131.730469 410.984375 133.898438 406.140625 135.75 401.101562 C 143.542969 380.195312 144.132812 360.195312 127.085938 343.148438 C 109.605469 325.667969 88.78125 326.652344 67.597656 335 C 62.875 336.890625 58.226562 339.054688 53.660156 341.574219 C 52.242188 336.574219 50.511719 331.773438 48.464844 327.085938 C 39.410156 306.21875 25.394531 290.789062 0.667969 290.789062 C 0.433594 290.789062 0.234375 290.789062 0 290.789062 L 0 642.714844 C 0.984375 642.753906 1.929688 642.796875 2.953125 642.796875 C 27.085938 642.796875 40.789062 628.269531 50.078125 607.953125 C 52.324219 603.070312 54.253906 598.109375 55.828125 593.148438 C 59.683594 595.195312 63.621094 597.007812 67.597656 598.582031 C 88.78125 606.929688 109.605469 607.914062 127.085938 590.433594 C 144.132812 573.386719 143.542969 553.386719 135.75 532.480469 C 134.171875 528.1875 132.402344 524.054688 130.433594 520.078125 C 134.644531 518.621094 138.820312 516.96875 142.992188 515.039062 C 163.269531 505.789062 177.835938 492.085938 177.835938 467.914062 C 177.835938 443.226562 162.402344 429.171875 141.496094 420.117188 C 137.558594 418.425781 133.542969 416.929688 129.371094 415.628906 Z M 129.371094 415.628906 " fill-opacity="1" fill-rule="evenodd"/><path fill="#ffb080" d="M 140.984375 1499.882812 C 140.828125 1488.542969 136.851562 1477.835938 127.085938 1468.03125 C 109.605469 1450.589844 88.78125 1451.574219 67.597656 1459.921875 C 62.875 1461.773438 58.226562 1463.976562 53.660156 1466.496094 C 52.242188 1461.496094 50.511719 1456.652344 48.464844 1452.007812 C 39.410156 1431.101562 25.394531 1415.667969 0.667969 1415.667969 C 0.433594 1415.667969 0.234375 1415.707031 0 1415.707031 L 0 1499.882812 Z M 140.984375 1499.882812 " fill-opacity="1" fill-rule="evenodd"/><path fill="#ffb080" d="M 129.371094 40.667969 C 131.730469 36.023438 133.898438 31.179688 135.75 26.140625 C 139.09375 17.203125 141.101562 8.425781 140.984375 0 L 0 0 L 0 267.757812 C 0.984375 267.796875 1.929688 267.835938 2.953125 267.835938 C 27.085938 267.835938 40.789062 253.308594 50.078125 232.992188 C 52.324219 228.109375 54.253906 223.148438 55.828125 218.1875 C 59.683594 220.234375 63.621094 222.046875 67.597656 223.621094 C 88.78125 231.96875 109.605469 232.953125 127.085938 215.472656 C 144.132812 198.425781 143.542969 178.425781 135.75 157.519531 C 134.171875 153.226562 132.402344 149.09375 130.433594 145.117188 C 134.644531 143.660156 138.820312 142.007812 142.992188 140.078125 C 163.269531 130.828125 177.835938 117.125 177.835938 92.953125 C 177.835938 68.269531 162.402344 54.210938 141.496094 45.15625 C 137.558594 43.464844 133.542969 41.96875 129.371094 40.667969 Z M 129.371094 40.667969 " fill-opacity="1" fill-rule="evenodd"/><path fill="#ffb080" d="M 1499.882812 1040.707031 C 1476.140625 1040.984375 1462.597656 1055.472656 1453.425781 1075.550781 C 1451.179688 1080.472656 1449.253906 1085.394531 1447.675781 1090.355469 C 1443.820312 1088.347656 1439.882812 1086.535156 1435.90625 1084.960938 C 1414.722656 1076.574219 1393.898438 1075.589844 1376.417969 1093.070312 C 1359.332031 1110.15625 1359.960938 1130.117188 1367.714844 1151.023438 C 1369.332031 1155.316406 1371.101562 1159.449219 1373.070312 1163.464844 C 1368.859375 1164.882812 1364.683594 1166.574219 1360.511719 1168.464844 C 1340.234375 1177.753906 1325.667969 1191.457031 1325.667969 1215.589844 C 1325.667969 1240.316406 1341.101562 1254.332031 1361.96875 1263.386719 C 1365.90625 1265.117188 1369.960938 1266.613281 1374.132812 1267.875 C 1371.730469 1272.519531 1369.605469 1277.363281 1367.714844 1282.441406 C 1359.960938 1303.347656 1359.332031 1323.308594 1376.417969 1340.394531 C 1393.898438 1357.835938 1414.722656 1356.851562 1435.90625 1348.503906 C 1440.628906 1346.652344 1445.277344 1344.449219 1449.804688 1341.929688 C 1451.257812 1346.929688 1452.992188 1351.773438 1455 1356.417969 C 1463.699219 1376.457031 1476.96875 1391.457031 1499.882812 1392.675781 Z M 1499.882812 1040.707031 " fill-opacity="1" fill-rule="evenodd"/><path fill="#ffb080" d="M 1499.882812 665.746094 C 1476.140625 666.023438 1462.597656 680.472656 1453.425781 700.589844 C 1451.179688 705.511719 1449.253906 710.433594 1447.675781 715.394531 C 1443.820312 713.347656 1439.882812 711.574219 1435.90625 710 C 1414.722656 701.613281 1393.898438 700.628906 1376.417969 718.109375 C 1359.332031 735.195312 1359.960938 755.15625 1367.714844 776.0625 C 1369.332031 780.355469 1371.101562 784.488281 1373.070312 788.503906 C 1368.859375 789.921875 1364.683594 791.574219 1360.511719 793.503906 C 1340.234375 802.796875 1325.667969 816.496094 1325.667969 840.628906 C 1325.667969 865.316406 1341.101562 879.371094 1361.96875 888.425781 C 1365.90625 890.117188 1369.960938 891.613281 1374.132812 892.914062 C 1371.730469 897.558594 1369.605469 902.402344 1367.714844 907.480469 C 1359.960938 928.386719 1359.332031 948.347656 1376.417969 965.433594 C 1393.898438 982.875 1414.722656 981.890625 1435.90625 973.542969 C 1440.628906 971.691406 1445.277344 969.488281 1449.804688 966.96875 C 1451.257812 971.96875 1452.992188 976.8125 1455 981.457031 C 1463.699219 1001.496094 1476.96875 1016.496094 1499.882812 1017.675781 Z M 1499.882812 665.746094 " fill-opacity="1" fill-rule="evenodd"/><path fill="#ffb080" d="M 1499.882812 290.789062 C 1476.140625 291.0625 1462.597656 305.511719 1453.425781 325.628906 C 1451.179688 330.511719 1449.253906 335.472656 1447.675781 340.433594 C 1443.820312 338.386719 1439.882812 336.574219 1435.90625 335 C 1414.722656 326.652344 1393.898438 325.667969 1376.417969 343.148438 C 1359.332031 360.195312 1359.960938 380.195312 1367.714844 401.101562 C 1369.332031 405.394531 1371.101562 409.527344 1373.070312 413.503906 C 1368.859375 414.960938 1364.683594 416.613281 1360.511719 418.542969 C 1340.234375 427.796875 1325.667969 441.496094 1325.667969 465.667969 C 1325.667969 490.355469 1341.101562 504.410156 1361.96875 513.464844 C 1365.90625 515.15625 1369.960938 516.652344 1374.132812 517.953125 C 1371.730469 522.597656 1369.605469 527.441406 1367.714844 532.480469 C 1359.960938 553.386719 1359.332031 573.386719 1376.417969 590.433594 C 1393.898438 607.914062 1414.722656 606.929688 1435.90625 598.582031 C 1440.628906 596.691406 1445.277344 594.527344 1449.804688 592.007812 C 1451.257812 597.007812 1452.992188 601.8125 1455 606.496094 C 1463.699219 626.535156 1476.96875 641.535156 1499.882812 642.714844 Z M 1499.882812 290.789062 " fill-opacity="1" fill-rule="evenodd"/><path fill="#ffb080" d="M 1499.882812 1415.707031 C 1476.140625 1415.945312 1462.597656 1430.433594 1453.425781 1450.511719 C 1451.179688 1455.433594 1449.253906 1460.355469 1447.675781 1465.316406 C 1443.820312 1463.308594 1439.882812 1461.496094 1435.90625 1459.921875 C 1414.722656 1451.574219 1393.898438 1450.589844 1376.417969 1468.03125 C 1366.652344 1477.835938 1362.675781 1488.542969 1362.519531 1499.882812 L 1499.882812 1499.882812 Z M 1499.882812 1415.707031 " fill-opacity="1" fill-rule="evenodd"/><path fill="#ffb080" d="M 1499.882812 0 L 1362.519531 0 C 1362.402344 8.425781 1364.410156 17.203125 1367.714844 26.140625 C 1369.332031 30.433594 1371.101562 34.566406 1373.070312 38.542969 C 1368.859375 40 1364.683594 41.652344 1360.511719 43.582031 C 1340.234375 52.835938 1325.667969 66.535156 1325.667969 90.707031 C 1325.667969 115.394531 1341.101562 129.449219 1361.96875 138.503906 C 1365.90625 140.195312 1369.960938 141.691406 1374.132812 142.992188 C 1371.730469 147.636719 1369.605469 152.480469 1367.714844 157.519531 C 1359.960938 178.425781 1359.332031 198.425781 1376.417969 215.472656 C 1393.898438 232.953125 1414.722656 231.96875 1435.90625 223.621094 C 1440.628906 221.730469 1445.277344 219.566406 1449.804688 217.046875 C 1451.257812 222.046875 1452.992188 226.851562 1455 231.535156 C 1463.699219 251.574219 1476.96875 266.574219 1499.882812 267.753906 Z M 1499.882812 0 " fill-opacity="1" fill-rule="evenodd"/></g></g></g></svg>