<svg xmlns="http://www.w3.org/2000/svg" xmlns:xlink="http://www.w3.org/1999/xlink" width="6912" zoomAndPan="magnify" viewBox="0 0 5184 2592.000001" height="3456" preserveAspectRatio="xMidYMid meet" version="1.0"><defs><filter x="0%" y="0%" width="100%" height="100%" id="3074b70633"><feColorMatrix values="0 0 0 0 1 0 0 0 0 1 0 0 0 0 1 0 0 0 1 0" color-interpolation-filters="sRGB"/></filter><mask id="88c2e9921d"><g filter="url(#3074b70633)"><rect x="-518.4" width="6220.8" fill="#000000" y="-259.2" height="3110.400001" fill-opacity="0.4"/></g></mask><clipPath id="bf47c7b0eb"><path d="M 16 1967 L 818 1967 L 818 2591 L 16 2591 Z M 16 1967 " clip-rule="nonzero"/></clipPath><clipPath id="be3363b830"><path d="M 626 2105 L 1319 2105 L 1319 2591 L 626 2591 Z M 626 2105 " clip-rule="nonzero"/></clipPath><clipPath id="45a9db7966"><path d="M 614 0 L 851 0 L 851 330 L 614 330 Z M 614 0 " clip-rule="nonzero"/></clipPath><clipPath id="21054698f7"><path d="M 23 0 L 598 0 L 598 382 L 23 382 Z M 23 0 " clip-rule="nonzero"/></clipPath><clipPath id="d3a21bd625"><path d="M 11 0 L 627 0 L 627 3 L 11 3 Z M 11 0 " clip-rule="nonzero"/></clipPath><clipPath id="99e9b7d186"><path d="M 852 0 L 1664 0 L 1664 339 L 852 339 Z M 852 0 " clip-rule="nonzero"/></clipPath><clipPath id="3b04349126"><path d="M 1628 1656 L 2557 1656 L 2557 2591 L 1628 2591 Z M 1628 1656 " clip-rule="nonzero"/></clipPath><clipPath id="a1427a250c"><path d="M 2567 1806 L 3348 1806 L 3348 2591 L 2567 2591 Z M 2567 1806 " clip-rule="nonzero"/></clipPath><clipPath id="c78cba2cf4"><path d="M 1686 0 L 2724 0 L 2724 208 L 1686 208 Z M 1686 0 " clip-rule="nonzero"/></clipPath><clipPath id="b41c95f03b"><path d="M 2746 0 L 3529 0 L 3529 519 L 2746 519 Z M 2746 0 " clip-rule="nonzero"/></clipPath><clipPath id="98e5a9002d"><path d="M 3009 0 L 4400 0 L 4400 408 L 3009 408 Z M 3009 0 " clip-rule="nonzero"/></clipPath><clipPath id="6da42fb45a"><path d="M 4452 1894 L 5161.996094 1894 L 5161.996094 2591 L 4452 2591 Z M 4452 1894 " clip-rule="nonzero"/></clipPath><clipPath id="37235e3838"><path d="M 3525 1695 L 4735 1695 L 4735 2591 L 3525 2591 Z M 3525 1695 " clip-rule="nonzero"/></clipPath><clipPath id="bab8d6562b"><path d="M 3653 0 L 4684 0 L 4684 1186 L 3653 1186 Z M 3653 0 " clip-rule="nonzero"/></clipPath><clipPath id="713185a859"><path d="M 4160 0 L 5133 0 L 5133 986 L 4160 986 Z M 4160 0 " clip-rule="nonzero"/></clipPath><clipPath id="42bbb0c144"><rect x="0" width="5162" y="0" height="2591"/></clipPath></defs><g mask="url(#88c2e9921d)"><g transform="matrix(1, 0, 0, 1, 21, -0.000000000000208807)"><g clip-path="url(#42bbb0c144)"><path fill="#c3e4ff" d="M 831.726562 1819.285156 C 827.765625 1821.949219 824.015625 1824.886719 820.480469 1828.09375 C 816.941406 1831.300781 813.652344 1834.742188 810.609375 1838.421875 C 807.566406 1842.101562 804.800781 1845.976562 802.316406 1850.054688 C 799.832031 1854.132812 797.652344 1858.363281 795.773438 1862.753906 C 776.921875 1907.050781 789.179688 1959.894531 812.257812 2000.175781 C 814.332031 2003.824219 816.5625 2007.375 818.941406 2010.835938 C 821.316406 2014.296875 823.835938 2017.648438 826.5 2020.898438 C 829.160156 2024.144531 831.953125 2027.273438 834.878906 2030.285156 C 837.804688 2033.296875 840.851562 2036.175781 844.023438 2038.929688 C 847.191406 2041.683594 850.472656 2044.300781 853.863281 2046.777344 C 857.253906 2049.25 860.742188 2051.582031 864.328125 2053.761719 C 867.914062 2055.945312 871.585938 2057.96875 875.347656 2059.839844 C 879.105469 2061.710938 882.933594 2063.421875 886.835938 2064.96875 C 890.203125 2066.320312 893.628906 2067.492188 897.117188 2068.496094 C 900.601562 2069.496094 904.128906 2070.320312 907.699219 2070.960938 C 911.265625 2071.605469 914.859375 2072.066406 918.472656 2072.347656 C 922.089844 2072.625 925.710938 2072.71875 929.335938 2072.632812 C 932.960938 2072.542969 936.574219 2072.273438 940.171875 2071.816406 C 943.769531 2071.363281 947.335938 2070.726562 950.867188 2069.910156 C 954.402344 2069.09375 957.882812 2068.101562 961.316406 2066.929688 C 964.75 2065.761719 968.113281 2064.421875 971.410156 2062.910156 C 974.511719 2061.414062 977.519531 2059.75 980.433594 2057.914062 C 983.347656 2056.078125 986.148438 2054.082031 988.832031 2051.929688 C 991.519531 2049.773438 994.074219 2047.472656 996.496094 2045.027344 C 998.921875 2042.582031 1001.199219 2040.007812 1003.328125 2037.300781 C 1005.460938 2034.597656 1007.429688 2031.78125 1009.242188 2028.851562 C 1011.050781 2025.921875 1012.691406 2022.902344 1014.15625 2019.785156 C 1015.621094 2016.667969 1016.90625 2013.480469 1018.011719 2010.21875 C 1019.113281 2006.957031 1020.027344 2003.644531 1020.753906 2000.277344 C 1022.0625 1993.578125 1022.96875 1986.824219 1023.476562 1980.019531 C 1023.980469 1973.210938 1024.082031 1966.398438 1023.777344 1959.578125 C 1023.476562 1952.757812 1022.769531 1945.980469 1021.660156 1939.246094 C 1020.550781 1932.511719 1019.046875 1925.867188 1017.148438 1919.308594 C 1002.519531 1862.652344 968.21875 1805.996094 903.835938 1800.019531 C 897.496094 1799.511719 891.164062 1799.546875 884.832031 1800.121094 C 878.5 1800.695312 872.261719 1801.800781 866.121094 1803.441406 C 859.980469 1805.082031 854.019531 1807.234375 848.246094 1809.894531 C 842.472656 1812.550781 836.964844 1815.683594 831.726562 1819.285156 Z M 831.726562 1819.285156 " fill-opacity="1" fill-rule="nonzero"/><g clip-path="url(#bf47c7b0eb)"><path fill="#ffb080" d="M 408.238281 2044.984375 C 368.992188 2067.855469 330.050781 2091.238281 289.363281 2111.429688 C 246.453125 2132.101562 202.601562 2150.539062 157.8125 2166.746094 C 119.289062 2181.066406 79.730469 2198.269531 53.460938 2231.4375 C 50.46875 2235.078125 47.726562 2238.894531 45.230469 2242.890625 C 42.734375 2246.890625 40.507812 2251.03125 38.554688 2255.316406 C 36.597656 2259.601562 34.925781 2263.996094 33.542969 2268.5 C 32.160156 2273.003906 31.074219 2277.578125 30.285156 2282.222656 C 29.195312 2292.398438 29.375 2302.550781 30.820312 2312.683594 C 32.269531 2322.8125 34.941406 2332.613281 38.835938 2342.074219 C 46.148438 2362.058594 55.832031 2381.015625 62.21875 2401.308594 C 65.425781 2411.714844 67.605469 2422.335938 68.75 2433.167969 C 69.890625 2444 69.980469 2454.839844 69.015625 2465.691406 C 68.0625 2476.671875 66.035156 2487.453125 62.929688 2498.027344 C 59.824219 2508.605469 55.707031 2518.773438 50.578125 2528.527344 C 41.101562 2546.660156 27.914062 2562.730469 20.601562 2581.992188 C 7.105469 2617.632812 25.546875 2653.277344 55.832031 2672.746094 C 91.78125 2696.441406 136.59375 2691.90625 175.738281 2679.03125 C 219.828125 2664.503906 260.621094 2641.328125 304.402344 2625.875 C 326.03125 2618.117188 348.28125 2613.136719 371.15625 2610.9375 C 382.03125 2610.195312 392.894531 2610.332031 403.746094 2611.351562 C 414.601562 2612.371094 425.300781 2614.261719 435.847656 2617.015625 C 472.828125 2625.875 517.433594 2641.328125 551.117188 2615.164062 C 558.574219 2608.5625 565.179688 2601.199219 570.9375 2593.074219 C 576.699219 2584.949219 581.457031 2576.277344 585.214844 2567.054688 C 593.902344 2548.09375 601.351562 2528.65625 607.570312 2508.75 C 620.550781 2468.988281 632.808594 2428.503906 658.355469 2394.714844 C 683.902344 2360.925781 716.246094 2336.613281 744.988281 2307.566406 C 752.0625 2300.773438 758.695312 2293.574219 764.882812 2285.964844 C 771.070312 2278.355469 776.769531 2270.398438 781.976562 2262.089844 C 787.1875 2253.78125 791.867188 2245.183594 796.019531 2236.296875 C 800.171875 2227.414062 803.765625 2218.308594 806.796875 2208.980469 C 821.9375 2159.019531 822.351562 2099.683594 796.496094 2052.195312 C 765.589844 1994.613281 698.425781 1969.785156 636 1967.3125 C 553.28125 1964.222656 477.566406 2004.398438 408.238281 2044.984375 Z M 408.238281 2044.984375 " fill-opacity="1" fill-rule="nonzero"/></g><path fill="#ffb080" d="M 125.261719 1517.351562 C 117.675781 1517.722656 110.246094 1518.988281 102.964844 1521.148438 C 95.683594 1523.308594 88.761719 1526.300781 82.203125 1530.125 C 78.777344 1532.160156 75.457031 1534.351562 72.238281 1536.699219 C 69.019531 1539.046875 65.921875 1541.542969 62.9375 1544.183594 C 59.957031 1546.824219 57.105469 1549.601562 54.386719 1552.511719 C 51.667969 1555.421875 49.089844 1558.453125 46.65625 1561.609375 C 44.222656 1564.761719 41.945312 1568.027344 39.820312 1571.394531 C 37.695312 1574.765625 35.734375 1578.226562 33.9375 1581.78125 C 32.140625 1585.339844 30.515625 1588.96875 29.0625 1592.679688 C 27.609375 1596.386719 26.332031 1600.15625 25.238281 1603.988281 C 14.933594 1639.835938 23.382812 1677.847656 34.09375 1712.5625 C 46.046875 1751.089844 60.777344 1788.585938 62.9375 1829.171875 C 63.316406 1850.902344 62.003906 1872.527344 58.996094 1894.050781 C 55.992188 1915.574219 51.332031 1936.734375 45.015625 1957.527344 C 39.347656 1978.128906 33.066406 1998.730469 27.089844 2019.335938 C 23.691406 2029.277344 21.179688 2039.4375 19.554688 2049.816406 C 17.925781 2060.195312 17.210938 2070.636719 17.40625 2081.144531 C 19.363281 2112.046875 40.070312 2146.453125 74.167969 2147.585938 C 93.84375 2148.308594 113.3125 2137.285156 130.929688 2129.660156 C 148.542969 2122.039062 168.835938 2112.5625 187.480469 2103.597656 C 225.320312 2085.261719 262.371094 2065.585938 298.632812 2044.574219 C 334.070312 2023.96875 368.578125 2001.824219 402.675781 1979.058594 C 434.917969 1957.628906 468.191406 1935.792969 505.6875 1924.769531 C 549.46875 1911.890625 592.425781 1922.195312 636.617188 1926.828125 C 647.59375 1928.40625 658.609375 1928.8125 669.667969 1928.050781 C 680.730469 1927.285156 691.585938 1925.367188 702.238281 1922.296875 C 758.484375 1903.546875 760.027344 1844.726562 747.667969 1795.488281 C 745.078125 1786.4375 742.003906 1777.554688 738.449219 1768.839844 C 734.894531 1760.125 730.878906 1751.625 726.402344 1743.347656 C 721.925781 1735.066406 717.011719 1727.054688 711.664062 1719.308594 C 706.316406 1711.5625 700.5625 1704.128906 694.410156 1697.007812 C 648.054688 1639.628906 589.335938 1583.691406 515.992188 1564.945312 C 442.644531 1546.195312 364.355469 1562.058594 289.363281 1558.351562 C 270.058594 1557.585938 251.003906 1555.007812 232.191406 1550.625 C 213.300781 1545.320312 195 1538.453125 177.285156 1530.023438 C 169.207031 1525.960938 160.78125 1522.859375 151.996094 1520.71875 C 143.214844 1518.578125 134.300781 1517.457031 125.261719 1517.351562 Z M 125.261719 1517.351562 " fill-opacity="1" fill-rule="nonzero"/><g clip-path="url(#be3363b830)"><path fill="#ffb080" d="M 889.617188 2139.140625 C 887.25 2142.640625 884.878906 2146.453125 882.613281 2150.574219 C 851.710938 2207.539062 855.210938 2278.515625 808.546875 2327.859375 C 785.78125 2351.859375 759.410156 2371.949219 734.996094 2394.097656 C 721.882812 2405.9375 709.617188 2418.601562 698.199219 2432.089844 C 686.78125 2445.574219 676.316406 2459.761719 666.800781 2474.652344 C 661.660156 2481.980469 656.953125 2489.582031 652.679688 2497.449219 C 648.40625 2505.320312 644.597656 2513.40625 641.25 2521.710938 C 637.90625 2530.015625 635.042969 2538.484375 632.667969 2547.117188 C 630.289062 2555.75 628.414062 2564.492188 627.039062 2573.339844 C 626.789062 2575.320312 626.601562 2577.308594 626.484375 2579.300781 C 626.367188 2581.292969 626.3125 2583.289062 626.328125 2585.285156 C 626.339844 2587.285156 626.421875 2589.277344 626.566406 2591.269531 C 626.714844 2593.261719 626.925781 2595.246094 627.207031 2597.222656 C 627.484375 2599.199219 627.828125 2601.167969 628.238281 2603.121094 C 628.644531 2605.074219 629.121094 2607.015625 629.65625 2608.9375 C 630.195312 2610.859375 630.796875 2612.765625 631.460938 2614.648438 C 632.125 2616.53125 632.851562 2618.390625 633.640625 2620.222656 C 634.425781 2622.058594 635.277344 2623.867188 636.183594 2625.644531 C 637.09375 2627.421875 638.058594 2629.167969 639.082031 2630.882812 C 640.105469 2632.597656 641.1875 2634.277344 642.320312 2635.917969 C 643.457031 2637.5625 644.648438 2639.164062 645.890625 2640.726562 C 647.132812 2642.292969 648.425781 2643.8125 649.765625 2645.289062 C 651.109375 2646.765625 652.5 2648.199219 653.941406 2649.582031 C 655.378906 2650.96875 656.859375 2652.304688 658.386719 2653.589844 C 659.914062 2654.878906 661.484375 2656.113281 663.09375 2657.292969 C 691.832031 2677.898438 728.609375 2682.738281 763.324219 2680.0625 C 802.632812 2675.800781 841.605469 2669.484375 880.246094 2661.105469 C 919.59375 2653.792969 958.945312 2646.476562 998.8125 2641.84375 C 1038.019531 2636.9375 1077.300781 2636.214844 1116.660156 2639.679688 C 1136.402344 2641.5625 1155.871094 2644.996094 1175.066406 2649.980469 C 1193.21875 2655.382812 1211.660156 2659.503906 1230.386719 2662.34375 C 1259.746094 2665.535156 1294.460938 2657.808594 1310.53125 2630.511719 C 1326.601562 2603.214844 1316.195312 2568.703125 1298.992188 2544.289062 C 1278.390625 2515.136719 1246.558594 2495.769531 1225.542969 2466.71875 C 1216.527344 2453.140625 1208.925781 2438.804688 1202.734375 2423.722656 C 1196.546875 2408.640625 1191.890625 2393.101562 1188.769531 2377.097656 C 1181.144531 2344.855469 1175.890625 2311.996094 1166.003906 2280.371094 C 1161.503906 2265.617188 1155.703125 2251.394531 1148.605469 2237.699219 C 1141.507812 2224.007812 1133.226562 2211.070312 1123.765625 2198.886719 C 1088.949219 2154.386719 1035.691406 2124.71875 981.816406 2109.574219 C 945.039062 2099.789062 911.765625 2106.175781 889.617188 2139.140625 Z M 889.617188 2139.140625 " fill-opacity="1" fill-rule="nonzero"/></g><path fill="#ffb080" d="M 1106.976562 1947.742188 C 1060.929688 1988.226562 1016.324219 2074.757812 1083.179688 2115.34375 C 1097.902344 2123.046875 1113.214844 2129.296875 1129.125 2134.089844 C 1136.960938 2136.917969 1144.433594 2140.496094 1151.542969 2144.832031 C 1158.65625 2149.171875 1165.261719 2154.171875 1171.359375 2159.84375 C 1177.101562 2165.742188 1182.46875 2171.960938 1187.460938 2178.507812 C 1192.453125 2185.054688 1197.03125 2191.875 1201.195312 2198.976562 C 1205.363281 2206.074219 1209.085938 2213.398438 1212.367188 2220.949219 C 1215.644531 2228.5 1218.460938 2236.21875 1220.804688 2244.109375 C 1233.167969 2280.472656 1239.863281 2318.589844 1252.636719 2354.746094 C 1258.261719 2371.066406 1265.460938 2386.65625 1274.238281 2401.519531 C 1283.015625 2416.382812 1293.1875 2430.21875 1304.761719 2443.027344 C 1349.570312 2492.371094 1409.9375 2526.261719 1468.347656 2556.960938 C 1493.480469 2570.144531 1525.3125 2583.433594 1554.257812 2575.8125 C 1557.804688 2574.890625 1561.214844 2573.609375 1564.488281 2571.960938 C 1567.757812 2570.3125 1570.820312 2568.339844 1573.671875 2566.039062 C 1576.523438 2563.738281 1579.097656 2561.164062 1581.402344 2558.3125 C 1583.703125 2555.464844 1585.675781 2552.402344 1587.324219 2549.132812 C 1590.519531 2541.738281 1592.78125 2534.066406 1594.105469 2526.121094 C 1595.429688 2518.175781 1595.777344 2510.1875 1595.15625 2502.15625 C 1594.125 2464.558594 1588.5625 2427.164062 1590.105469 2389.460938 C 1590.558594 2370.679688 1593.546875 2352.308594 1599.070312 2334.347656 C 1604.867188 2317.414062 1613.140625 2301.789062 1623.894531 2287.476562 C 1643.878906 2260.179688 1669.117188 2235.972656 1683.539062 2205.066406 C 1685.335938 2201.183594 1686.9375 2197.226562 1688.347656 2193.1875 C 1689.757812 2189.148438 1690.972656 2185.050781 1691.984375 2180.894531 C 1693 2176.742188 1693.808594 2172.546875 1694.414062 2168.3125 C 1695.023438 2164.078125 1695.421875 2159.824219 1695.617188 2155.550781 C 1695.808594 2151.277344 1695.796875 2147.003906 1695.574219 2142.734375 C 1695.355469 2138.460938 1694.929688 2134.210938 1694.296875 2129.980469 C 1693.664062 2125.75 1692.824219 2121.5625 1691.785156 2117.410156 C 1690.746094 2113.261719 1689.507812 2109.175781 1688.074219 2105.144531 C 1684.921875 2097.3125 1681.171875 2089.773438 1676.828125 2082.535156 C 1672.480469 2075.292969 1667.59375 2068.441406 1662.160156 2061.976562 C 1656.726562 2055.515625 1650.820312 2049.515625 1644.4375 2043.988281 C 1638.054688 2038.460938 1631.277344 2033.472656 1624.101562 2029.019531 C 1592.917969 2008.910156 1560.710938 1990.609375 1527.476562 1974.113281 C 1459.691406 1938.160156 1388.203125 1905.710938 1311.148438 1896.851562 C 1245.425781 1889.332031 1171.460938 1898.914062 1116.453125 1939.601562 C 1113.464844 1942.488281 1110.066406 1944.960938 1106.976562 1947.742188 Z M 1106.976562 1947.742188 " fill-opacity="1" fill-rule="nonzero"/><path fill="#ffb080" d="M 1241.097656 1228.195312 C 1210.195312 1252.09375 1194.640625 1290.003906 1185.574219 1326.160156 C 1175.273438 1369.734375 1173.316406 1415.265625 1160.027344 1458.324219 C 1153.078125 1478.152344 1144.707031 1497.363281 1134.921875 1515.957031 C 1125.132812 1534.546875 1114.03125 1552.320312 1101.621094 1569.269531 C 1045.375 1653.019531 964.820312 1785.597656 1048.671875 1879.648438 C 1049.515625 1880.675781 1050.402344 1881.660156 1051.332031 1882.605469 C 1052.261719 1883.550781 1053.230469 1884.457031 1054.238281 1885.316406 C 1055.25 1886.175781 1056.296875 1886.992188 1057.375 1887.761719 C 1058.457031 1888.527344 1059.570312 1889.25 1060.714844 1889.917969 C 1061.863281 1890.589844 1063.035156 1891.207031 1064.234375 1891.773438 C 1065.433594 1892.34375 1066.65625 1892.855469 1067.898438 1893.3125 C 1069.144531 1893.773438 1070.40625 1894.175781 1071.6875 1894.523438 C 1072.96875 1894.871094 1074.261719 1895.164062 1075.566406 1895.394531 C 1076.875 1895.628906 1078.1875 1895.804688 1079.507812 1895.921875 C 1080.832031 1896.042969 1082.15625 1896.101562 1083.480469 1896.101562 C 1084.808594 1896.101562 1086.132812 1896.046875 1087.453125 1895.929688 C 1088.777344 1895.8125 1090.089844 1895.640625 1091.398438 1895.40625 C 1092.703125 1895.175781 1093.996094 1894.886719 1095.277344 1894.539062 C 1096.558594 1894.195312 1097.820312 1893.792969 1099.066406 1893.335938 C 1100.3125 1892.878906 1101.535156 1892.367188 1102.734375 1891.800781 C 1103.9375 1891.238281 1105.109375 1890.621094 1106.253906 1889.949219 C 1124.28125 1881.605469 1139.835938 1869.347656 1157.761719 1860.695312 C 1235.847656 1825.464844 1325.878906 1845.859375 1402.726562 1873.878906 C 1445.683594 1889.539062 1487.507812 1908.082031 1530.773438 1922.914062 C 1561.675781 1933.214844 1598.554688 1945.476562 1630.179688 1931.566406 C 1631.949219 1930.808594 1633.667969 1929.945312 1635.332031 1928.976562 C 1636.996094 1928.007812 1638.597656 1926.941406 1640.132812 1925.777344 C 1641.671875 1924.617188 1643.128906 1923.363281 1644.515625 1922.023438 C 1645.898438 1920.683594 1647.195312 1919.265625 1648.40625 1917.765625 C 1649.617188 1916.269531 1650.734375 1914.703125 1651.757812 1913.070312 C 1652.777344 1911.4375 1653.699219 1909.75 1654.515625 1908.003906 C 1655.328125 1906.257812 1656.039062 1904.46875 1656.636719 1902.640625 C 1657.238281 1900.808594 1657.722656 1898.949219 1658.097656 1897.058594 C 1658.585938 1892.234375 1658.675781 1887.398438 1658.363281 1882.558594 C 1658.054688 1877.71875 1657.34375 1872.9375 1656.242188 1868.214844 C 1655.136719 1863.488281 1653.652344 1858.890625 1651.785156 1854.414062 C 1649.917969 1849.9375 1647.695312 1845.644531 1645.117188 1841.535156 C 1634.816406 1822.066406 1622.867188 1803.730469 1613.183594 1783.949219 C 1603.179688 1764.253906 1595.660156 1743.652344 1590.621094 1722.140625 C 1588.117188 1711.621094 1586.8125 1700.953125 1586.710938 1690.140625 C 1586.605469 1679.324219 1587.703125 1668.636719 1590.003906 1658.066406 C 1596.113281 1638.070312 1603.667969 1618.636719 1612.667969 1599.761719 C 1614.5625 1595.457031 1616.148438 1591.042969 1617.421875 1586.515625 C 1618.695312 1581.988281 1619.648438 1577.394531 1620.273438 1572.730469 C 1620.902344 1568.070312 1621.199219 1563.386719 1621.167969 1558.683594 C 1621.136719 1553.980469 1620.773438 1549.304688 1620.085938 1544.652344 C 1618.351562 1536.609375 1615.609375 1528.929688 1611.855469 1521.609375 C 1608.097656 1514.292969 1603.460938 1507.585938 1597.9375 1501.488281 C 1574.347656 1474.292969 1541.175781 1458.839844 1508.625 1445.242188 C 1476.070312 1431.644531 1441.253906 1417.945312 1417.765625 1390.851562 C 1394.28125 1363.761719 1392.324219 1325.746094 1386.863281 1291.136719 C 1381.507812 1258.6875 1369.246094 1225.515625 1336.59375 1211.917969 C 1332.617188 1210.488281 1328.566406 1209.320312 1324.4375 1208.410156 C 1320.3125 1207.5 1316.144531 1206.859375 1311.933594 1206.488281 C 1307.726562 1206.113281 1303.507812 1206.011719 1299.289062 1206.183594 C 1295.066406 1206.355469 1290.871094 1206.792969 1286.707031 1207.503906 C 1282.539062 1208.214844 1278.4375 1209.1875 1274.398438 1210.425781 C 1270.359375 1211.664062 1266.414062 1213.15625 1262.566406 1214.902344 C 1258.71875 1216.648438 1254.996094 1218.632812 1251.40625 1220.859375 C 1247.8125 1223.082031 1244.378906 1225.527344 1241.097656 1228.195312 Z M 1241.097656 1228.195312 " fill-opacity="1" fill-rule="nonzero"/><path fill="#ffb080" d="M 546.894531 1159.898438 C 522.367188 1148.304688 497.246094 1138.203125 471.519531 1129.589844 C 445.796875 1120.972656 419.65625 1113.90625 393.097656 1108.390625 C 339.734375 1097.472656 282.5625 1089.953125 228.273438 1098.089844 C 225.601562 1098.515625 222.9375 1098.992188 220.28125 1099.523438 C 217.628906 1100.058594 214.984375 1100.640625 212.355469 1101.28125 C 209.722656 1101.917969 207.105469 1102.609375 204.503906 1103.351562 C 201.898438 1104.09375 199.3125 1104.886719 196.738281 1105.734375 C 194.167969 1106.578125 191.613281 1107.476562 189.078125 1108.425781 C 186.542969 1109.375 184.027344 1110.375 181.53125 1111.421875 C 179.035156 1112.472656 176.5625 1113.570312 174.109375 1114.71875 C 171.660156 1115.867188 169.230469 1117.066406 166.828125 1118.3125 C 164.425781 1119.558594 162.046875 1120.851562 159.695312 1122.191406 C 157.34375 1123.53125 155.019531 1124.921875 152.722656 1126.355469 C 150.425781 1127.789062 148.160156 1129.269531 145.921875 1130.792969 C 143.6875 1132.316406 141.480469 1133.886719 139.304688 1135.5 C 137.132812 1137.113281 134.992188 1138.769531 132.882812 1140.46875 C 130.777344 1142.167969 128.703125 1143.90625 126.664062 1145.691406 C 124.625 1147.472656 122.625 1149.292969 120.660156 1151.15625 C 118.695312 1153.019531 116.769531 1154.921875 114.878906 1156.859375 C 112.992188 1158.800781 111.140625 1160.777344 109.332031 1162.789062 C 107.523438 1164.800781 105.753906 1166.851562 104.027344 1168.9375 C 102.296875 1171.019531 100.613281 1173.140625 98.96875 1175.289062 C 97.328125 1177.441406 95.726562 1179.625 94.171875 1181.84375 C 92.617188 1184.058594 91.109375 1186.304688 89.640625 1188.582031 C 88.175781 1190.859375 86.757812 1193.164062 85.386719 1195.496094 C 84.011719 1197.828125 82.6875 1200.1875 81.410156 1202.574219 C 80.128906 1204.960938 78.898438 1207.375 77.71875 1209.808594 C 76.535156 1212.246094 75.402344 1214.703125 74.320312 1217.183594 C 73.238281 1219.664062 72.203125 1222.167969 71.222656 1224.691406 C 70.238281 1227.210938 69.304688 1229.753906 68.425781 1232.3125 C 67.542969 1234.875 66.714844 1237.449219 65.9375 1240.042969 C 65.15625 1242.636719 64.433594 1245.242188 63.757812 1247.867188 C 63.085938 1250.488281 62.464844 1253.121094 61.894531 1255.769531 C 61.328125 1258.417969 60.8125 1261.074219 60.351562 1263.742188 C 59.890625 1266.410156 59.480469 1269.085938 59.128906 1271.769531 C 58.359375 1277.886719 57.957031 1284.03125 57.925781 1290.195312 C 57.894531 1296.363281 58.226562 1302.507812 58.929688 1308.632812 C 59.632812 1314.761719 60.699219 1320.824219 62.128906 1326.820312 C 63.558594 1332.820312 65.339844 1338.710938 67.472656 1344.496094 C 69.566406 1349.679688 71.988281 1354.699219 74.742188 1359.5625 C 77.496094 1364.425781 80.554688 1369.089844 83.917969 1373.550781 C 87.285156 1378.011719 90.925781 1382.230469 94.847656 1386.214844 C 98.765625 1390.199219 102.929688 1393.90625 107.339844 1397.34375 C 147.203125 1429.277344 197.785156 1439.164062 247.125 1445.964844 C 299.660156 1452.492188 351.441406 1462.792969 402.46875 1476.867188 C 452.820312 1491.308594 501.546875 1509.984375 548.644531 1532.90625 C 595.25 1555.171875 639.476562 1581.441406 681.328125 1611.710938 C 691.75 1618.859375 701.476562 1626.851562 710.503906 1635.691406 C 719.535156 1644.53125 727.734375 1654.085938 735.097656 1664.351562 C 745.5625 1682.625 754.9375 1701.445312 763.222656 1720.804688 C 780.734375 1754.695312 790.933594 1762.007812 829.148438 1754.28125 C 859.128906 1748.101562 892.195312 1754.28125 919.082031 1739.550781 C 952.664062 1721.316406 963.683594 1679.496094 973.988281 1645.707031 C 996.546875 1571.949219 1060.621094 1541.765625 1096.367188 1478.414062 C 1115.9375 1443.492188 1109.242188 1404.140625 1112.847656 1366.234375 C 1118.71875 1303.804688 1162.292969 1230.253906 1131.390625 1170.507812 C 1130.296875 1168.285156 1129.085938 1166.128906 1127.761719 1164.035156 C 1126.433594 1161.941406 1124.996094 1159.929688 1123.453125 1157.992188 C 1121.910156 1156.054688 1120.265625 1154.207031 1118.519531 1152.449219 C 1116.777344 1150.691406 1114.941406 1149.03125 1113.015625 1147.46875 C 1111.09375 1145.910156 1109.089844 1144.457031 1107.007812 1143.113281 C 1104.929688 1141.769531 1102.78125 1140.542969 1100.566406 1139.429688 C 1098.351562 1138.316406 1096.085938 1137.328125 1093.765625 1136.464844 C 1091.445312 1135.597656 1089.082031 1134.859375 1086.683594 1134.246094 C 1011.585938 1115.910156 929.898438 1182.664062 860.054688 1203.164062 C 847.4375 1207.085938 834.652344 1210.371094 821.707031 1213.011719 C 808.757812 1215.652344 795.710938 1217.640625 782.5625 1218.972656 C 769.414062 1220.304688 756.234375 1220.976562 743.019531 1220.984375 C 729.804688 1220.992188 716.625 1220.339844 703.472656 1219.027344 C 646.816406 1211.402344 598.402344 1184.105469 546.894531 1159.898438 Z M 546.894531 1159.898438 " fill-opacity="1" fill-rule="nonzero"/><g clip-path="url(#45a9db7966)"><path fill="#c3e4ff" d="M 664.636719 -98.820312 C 661.09375 -94.617188 657.714844 -90.289062 654.507812 -85.828125 C 651.296875 -81.367188 648.265625 -76.789062 645.410156 -72.09375 C 642.554688 -67.398438 639.882812 -62.597656 637.398438 -57.695312 C 634.914062 -52.792969 632.621094 -47.804688 630.523438 -42.726562 C 628.425781 -37.644531 626.523438 -32.492188 624.824219 -27.269531 C 623.125 -22.042969 621.628906 -16.757812 620.335938 -11.417969 C 619.042969 -6.074219 617.960938 -0.691406 617.082031 4.734375 C 616.207031 10.160156 615.542969 15.613281 615.089844 21.089844 C 609.320312 112.460938 627.449219 236.488281 697.5 302.3125 C 723.871094 327.242188 765.488281 339.707031 798.761719 320.855469 C 839.140625 297.988281 843.058594 248.746094 846.765625 207.542969 C 850.355469 170.257812 851.328125 132.902344 849.691406 95.480469 C 848.050781 58.058594 843.8125 20.933594 836.980469 -15.894531 C 821.21875 -96.757812 737.777344 -179.683594 664.636719 -98.820312 Z M 664.636719 -98.820312 " fill-opacity="1" fill-rule="nonzero"/></g><g clip-path="url(#21054698f7)"><path fill="#ffb080" d="M 53.976562 -181.230469 C 32.34375 -162.894531 24.925781 -134.050781 23.792969 -106.75 C 23.5 -74.414062 26.453125 -42.378906 32.652344 -10.640625 C 43.574219 58.171875 58.921875 127.089844 48.621094 197.035156 C 43.882812 228.660156 36.054688 260.285156 35.949219 292.425781 C 35.949219 319.828125 42.027344 355.160156 65.207031 372.980469 C 90.445312 392.554688 120.9375 372.980469 143.289062 358.457031 C 171.84375 340.167969 202.230469 325.746094 234.457031 315.191406 C 301.003906 293.351562 371.464844 294.589844 439.347656 279.445312 C 448.339844 277.660156 457.210938 275.402344 465.960938 272.675781 C 474.714844 269.949219 483.296875 266.765625 491.710938 263.128906 C 500.125 259.496094 508.324219 255.425781 516.308594 250.921875 C 524.292969 246.414062 532.015625 241.503906 539.476562 236.179688 C 578.109375 207.234375 615.707031 164.070312 587.6875 114.417969 C 559.667969 64.765625 506.203125 26.34375 462.9375 -10.023438 C 437.164062 -32.398438 409.695312 -52.449219 380.527344 -70.179688 C 351.273438 -87.179688 319.957031 -100.261719 289.980469 -116.023438 C 260.003906 -131.78125 234.351562 -151.355469 206.4375 -169.28125 C 200.492188 -173.488281 194.316406 -177.332031 187.917969 -180.808594 C 181.515625 -184.289062 174.933594 -187.375 168.164062 -190.074219 C 161.398438 -192.773438 154.496094 -195.0625 147.457031 -196.941406 C 140.421875 -198.820312 133.296875 -200.28125 126.085938 -201.316406 C 122.90625 -201.71875 119.714844 -201.960938 116.511719 -202.042969 C 113.304688 -202.128906 110.105469 -202.054688 106.910156 -201.820312 C 103.710938 -201.585938 100.535156 -201.195312 97.378906 -200.644531 C 94.21875 -200.09375 91.097656 -199.390625 88.011719 -198.53125 C 84.921875 -197.671875 81.886719 -196.660156 78.898438 -195.496094 C 75.910156 -194.335938 72.988281 -193.027344 70.132812 -191.574219 C 67.273438 -190.125 64.496094 -188.53125 61.796875 -186.804688 C 59.097656 -185.074219 56.492188 -183.21875 53.976562 -181.230469 Z M 53.976562 -181.230469 " fill-opacity="1" fill-rule="nonzero"/></g><path fill="#ffb080" d="M 482.71875 324.050781 C 476.433594 326.726562 470.253906 329.199219 464.175781 331.261719 C 388.046875 358.042969 304.300781 350.730469 226.316406 369.375 C 161.933594 384.722656 92.402344 419.644531 62.9375 482.691406 C 45.015625 521.730469 48.621094 563.761719 56.039062 604.964844 C 60.363281 628.867188 65.207031 652.558594 67.78125 677.074219 C 70.246094 701.050781 71.378906 725.085938 71.179688 749.183594 C 71.179688 797.394531 66.542969 845.5 61.601562 893.402344 C 59.128906 917.714844 56.449219 941.921875 54.183594 966.234375 C 50.988281 988.714844 49.546875 1011.308594 49.855469 1034.015625 C 49.796875 1036.230469 49.871094 1038.441406 50.085938 1040.644531 C 50.304688 1042.847656 50.65625 1045.03125 51.144531 1047.191406 C 51.632812 1049.351562 52.253906 1051.476562 53.007812 1053.558594 C 53.761719 1055.640625 54.644531 1057.667969 55.652344 1059.640625 C 56.664062 1061.613281 57.789062 1063.515625 59.035156 1065.34375 C 60.285156 1067.175781 61.640625 1068.921875 63.105469 1070.582031 C 64.570312 1072.246094 66.132812 1073.808594 67.796875 1075.273438 C 69.457031 1076.738281 71.203125 1078.09375 73.035156 1079.339844 C 76.816406 1081.335938 80.753906 1082.953125 84.847656 1084.191406 C 88.941406 1085.429688 93.113281 1086.261719 97.371094 1086.695312 C 101.625 1087.128906 105.878906 1087.152344 110.140625 1086.761719 C 114.398438 1086.375 118.582031 1085.582031 122.6875 1084.390625 C 142.238281 1077.675781 160.851562 1068.953125 178.519531 1058.222656 C 183.421875 1055.746094 188.4375 1053.519531 193.5625 1051.546875 C 198.691406 1049.574219 203.902344 1047.859375 209.203125 1046.410156 C 214.5 1044.957031 219.859375 1043.777344 225.273438 1042.863281 C 230.691406 1041.949219 236.140625 1041.308594 241.621094 1040.945312 C 247.101562 1040.578125 252.589844 1040.484375 258.078125 1040.671875 C 263.570312 1040.855469 269.035156 1041.3125 274.480469 1042.046875 C 279.925781 1042.78125 285.320312 1043.78125 290.664062 1045.058594 C 296.007812 1046.332031 301.273438 1047.871094 306.460938 1049.671875 C 327.066406 1056.679688 346.121094 1066.875 366.828125 1072.75 C 371.378906 1074.257812 376.023438 1075.398438 380.757812 1076.160156 C 385.492188 1076.925781 390.257812 1077.308594 395.054688 1077.308594 C 399.847656 1077.308594 404.613281 1076.925781 409.347656 1076.160156 C 414.082031 1075.398438 418.726562 1074.257812 423.277344 1072.75 C 427.273438 1071.179688 431.140625 1069.339844 434.878906 1067.226562 C 438.617188 1065.113281 442.191406 1062.75 445.597656 1060.136719 C 449.003906 1057.523438 452.210938 1054.683594 455.21875 1051.621094 C 458.226562 1048.558594 461.007812 1045.296875 463.558594 1041.84375 C 489.824219 1007.4375 492.195312 963.246094 490.648438 921.628906 C 488.070312 878.363281 488.070312 835.097656 490.648438 791.832031 C 491.984375 770.414062 495.082031 749.257812 499.941406 728.355469 C 504.796875 707.453125 511.351562 687.097656 519.597656 667.289062 C 536.902344 627.835938 563.789062 595.179688 591.707031 562.320312 C 619.621094 529.457031 646.097656 498.449219 662.679688 459.925781 C 683.285156 411.816406 690.082031 348.050781 646.714844 310.039062 C 597.371094 266.257812 535.355469 302.003906 482.71875 324.050781 Z M 482.71875 324.050781 " fill-opacity="1" fill-rule="nonzero"/><path fill="#ffb080" d="M 797.730469 358.457031 C 737.367188 393.789062 719.542969 481.042969 693.277344 541.921875 C 664.742188 608.160156 601.800781 649.160156 564.304688 709.421875 C 520.007812 780.601562 533.398438 863.941406 539.992188 943.46875 C 541.640625 964.070312 542.363281 984.671875 542.15625 1004.65625 C 541.222656 1025.066406 542.359375 1045.359375 545.554688 1065.539062 C 546.402344 1069.753906 547.484375 1073.90625 548.808594 1078 C 550.128906 1082.09375 551.679688 1086.09375 553.460938 1090.011719 C 555.242188 1093.925781 557.238281 1097.726562 559.453125 1101.410156 C 561.667969 1105.097656 564.085938 1108.644531 566.707031 1112.054688 C 569.332031 1115.460938 572.136719 1118.710938 575.128906 1121.796875 C 578.125 1124.886719 581.285156 1127.792969 584.609375 1130.519531 C 587.933594 1133.246094 591.40625 1135.773438 595.019531 1138.101562 C 598.636719 1140.429688 602.371094 1142.542969 606.230469 1144.445312 C 681.429688 1183.589844 769.609375 1149.90625 845.21875 1129.300781 C 889.722656 1117.148438 934.359375 1105.027344 979.136719 1092.9375 C 1001.492188 1086.757812 1023.949219 1080.679688 1046.40625 1074.5 C 1057.632812 1071.410156 1068.863281 1068.421875 1080.089844 1065.332031 C 1089.972656 1063.464844 1099.28125 1060.03125 1108.007812 1055.03125 C 1136.644531 1035.457031 1131.289062 995.28125 1116.351562 969.117188 C 1106.5625 952.015625 1093.378906 937.082031 1082.046875 921.011719 C 1070.488281 904.730469 1059.914062 887.835938 1050.320312 870.328125 C 1040.699219 852.785156 1032.105469 834.753906 1024.542969 816.234375 C 1016.980469 797.710938 1010.492188 778.820312 1005.085938 759.558594 C 999.675781 740.296875 995.378906 720.789062 992.195312 701.039062 C 989.007812 681.289062 986.957031 661.417969 986.039062 641.433594 C 982.535156 561.699219 999.019531 475.066406 955.136719 403.0625 C 922.066406 350.214844 853.769531 325.492188 797.730469 358.457031 Z M 797.730469 358.457031 " fill-opacity="1" fill-rule="nonzero"/><g clip-path="url(#d3a21bd625)"><path fill="#ffb080" d="M 209.21875 -893.769531 C 197.460938 -893.933594 185.804688 -895.101562 174.25 -897.28125 C 162.695312 -899.460938 151.414062 -902.617188 140.40625 -906.75 C 106.101562 -918.90625 61.804688 -933.636719 30.902344 -905.101562 C 15.863281 -891.503906 13.492188 -870.902344 13.800781 -851.226562 C 13.800781 -827.222656 16.171875 -803.222656 18.4375 -779.117188 C 27.914062 -683.109375 47.179688 -586.277344 35.023438 -489.648438 C 29.046875 -442.265625 9.476562 -395.804688 11.328125 -347.492188 C 12.667969 -314.117188 27.605469 -277.03125 58.304688 -260.34375 C 63.113281 -258.164062 68.058594 -256.359375 73.140625 -254.929688 C 78.226562 -253.503906 83.386719 -252.464844 88.625 -251.820312 C 93.867188 -251.171875 99.125 -250.925781 104.402344 -251.074219 C 109.679688 -251.226562 114.917969 -251.773438 120.113281 -252.71875 C 142.230469 -255.253906 164.308594 -254.945312 186.347656 -251.792969 C 236 -243.65625 279.0625 -219.652344 323.046875 -195.652344 C 369.011719 -170.417969 413.304688 -142.535156 455.933594 -112.003906 C 486.839844 -90.269531 517.125 -65.546875 531.132812 -30.933594 C 533.757812 -22.070312 537.636719 -13.792969 542.773438 -6.105469 C 559.152344 13.980469 583.980469 -6.105469 592.839844 -22.898438 C 598.921875 -33.683594 604.21875 -44.84375 608.734375 -56.375 C 613.25 -67.90625 616.9375 -79.695312 619.792969 -91.746094 C 622.652344 -103.792969 624.652344 -115.984375 625.796875 -128.316406 C 626.941406 -140.644531 627.21875 -152.996094 626.625 -165.363281 C 622.816406 -218.726562 595 -266.625 572.441406 -313.808594 C 551.839844 -357.074219 531.855469 -400.542969 514.238281 -445.046875 C 479.730469 -532.089844 453.359375 -624.496094 455.007812 -718.957031 C 455.378906 -742.347656 457.609375 -765.558594 461.703125 -788.59375 C 466.988281 -809.488281 469.90625 -830.710938 470.457031 -852.253906 C 470.425781 -854.554688 470.273438 -856.84375 470 -859.125 C 469.722656 -861.40625 469.328125 -863.664062 468.8125 -865.90625 C 468.300781 -868.144531 467.667969 -870.351562 466.917969 -872.523438 C 466.171875 -874.695312 465.308594 -876.820312 464.335938 -878.902344 C 463.359375 -880.984375 462.28125 -883.007812 461.089844 -884.972656 C 459.902344 -886.9375 458.613281 -888.835938 457.222656 -890.667969 C 455.832031 -892.496094 454.351562 -894.246094 452.773438 -895.917969 C 451.199219 -897.589844 449.539062 -899.175781 447.796875 -900.671875 C 444.558594 -903.085938 441.167969 -905.269531 437.632812 -907.222656 C 434.09375 -909.175781 430.441406 -910.878906 426.671875 -912.332031 C 422.902344 -913.785156 419.054688 -914.976562 415.121094 -915.90625 C 411.191406 -916.832031 407.210938 -917.488281 403.191406 -917.875 C 361.984375 -923.128906 319.75 -909.839844 279.574219 -902.011719 C 256.394531 -896.949219 232.941406 -894.203125 209.21875 -893.769531 Z M 209.21875 -893.769531 " fill-opacity="1" fill-rule="nonzero"/></g><path fill="#ffb080" d="M 911.046875 141.820312 C 856.449219 181.375 869.839844 276.664062 921.347656 316.941406 C 940.714844 332.289062 962.550781 344.550781 981.09375 360.824219 C 989.84375 368.582031 997.691406 377.164062 1004.636719 386.574219 C 1011.582031 395.980469 1017.46875 406.011719 1022.300781 416.660156 C 1042.902344 460.75 1048.980469 510.8125 1055.058594 558.609375 C 1061.546875 609.394531 1066.082031 660.492188 1073.910156 711.171875 C 1077.332031 736.367188 1082.222656 761.277344 1088.578125 785.894531 C 1094.9375 810.515625 1102.714844 834.675781 1111.921875 858.378906 C 1130.667969 904.21875 1159.308594 944.496094 1181.351562 988.585938 C 1187.113281 999.589844 1191.988281 1010.972656 1195.980469 1022.738281 C 1199.96875 1034.5 1203.027344 1046.5 1205.148438 1058.738281 C 1208.648438 1080.269531 1210.503906 1103.652344 1228.121094 1118.898438 C 1231.71875 1121.59375 1235.523438 1123.953125 1239.539062 1125.980469 C 1243.550781 1128.007812 1247.710938 1129.671875 1252.011719 1130.972656 C 1256.316406 1132.273438 1260.703125 1133.1875 1265.164062 1133.722656 C 1269.628906 1134.253906 1274.105469 1134.394531 1278.597656 1134.144531 C 1299.199219 1134.144531 1319.800781 1131.570312 1339.683594 1132.90625 C 1384.183594 1135.792969 1417.664062 1170.507812 1460.824219 1177.820312 C 1463.246094 1178.273438 1465.683594 1178.605469 1468.132812 1178.816406 C 1470.585938 1179.023438 1473.042969 1179.109375 1475.503906 1179.074219 C 1477.964844 1179.039062 1480.417969 1178.878906 1482.863281 1178.597656 C 1485.308594 1178.3125 1487.734375 1177.910156 1490.140625 1177.382812 C 1492.546875 1176.859375 1494.917969 1176.214844 1497.257812 1175.453125 C 1499.597656 1174.691406 1501.894531 1173.8125 1504.148438 1172.820312 C 1506.398438 1171.828125 1508.597656 1170.726562 1510.738281 1169.511719 C 1512.882812 1168.300781 1514.957031 1166.984375 1516.96875 1165.5625 C 1520.878906 1162.617188 1524.542969 1159.390625 1527.960938 1155.886719 C 1531.382812 1152.378906 1534.515625 1148.636719 1537.363281 1144.652344 C 1540.210938 1140.667969 1542.738281 1136.492188 1544.949219 1132.125 C 1547.160156 1127.753906 1549.027344 1123.242188 1550.550781 1118.589844 C 1567.136719 1071.410156 1547.046875 1021.757812 1526.445312 979.316406 C 1513.992188 955.753906 1503.144531 931.476562 1493.894531 906.484375 C 1489.800781 894.472656 1487.117188 882.148438 1485.847656 869.523438 C 1484.578125 856.894531 1484.753906 844.285156 1486.375 831.699219 C 1492.554688 784.929688 1514.1875 742.078125 1525.003906 696.441406 C 1527.878906 685.335938 1529.730469 674.0625 1530.5625 662.621094 C 1531.394531 651.179688 1531.1875 639.753906 1529.949219 628.351562 C 1528.132812 616.097656 1525.179688 604.121094 1521.09375 592.429688 C 1517.003906 580.734375 1511.851562 569.53125 1505.636719 558.816406 C 1461.238281 479.1875 1385.832031 420.46875 1312.691406 368.757812 C 1265.101562 335.070312 1216.273438 302.828125 1170.125 267.082031 C 1126.546875 233.296875 1090.289062 191.367188 1046.507812 157.785156 C 1015.605469 134.195312 976.253906 117.714844 939.167969 128.222656 C 928.964844 131.039062 919.589844 135.570312 911.046875 141.820312 Z M 911.046875 141.820312 " fill-opacity="1" fill-rule="nonzero"/><g clip-path="url(#99e9b7d186)"><path fill="#ffb080" d="M 1177.953125 -741.105469 C 1138.394531 -717.207031 1106.875 -680.019531 1080.503906 -642.523438 C 1066.683594 -622.933594 1054.378906 -602.4375 1043.589844 -581.035156 C 1032.800781 -559.628906 1023.644531 -537.542969 1016.117188 -514.785156 C 992.839844 -444.324219 987.480469 -369.332031 964.613281 -298.457031 C 929.589844 -190.089844 817.40625 -116.535156 863.144531 8.519531 C 876.84375 45.914062 906.511719 59.304688 942.566406 71.359375 C 978.621094 83.410156 1015.605469 84.339844 1051.453125 93.917969 C 1070.507812 99.183594 1088.742188 106.5 1106.152344 115.859375 C 1178.261719 154.179688 1232.445312 216.917969 1296.828125 265.433594 C 1302.804688 269.96875 1308.984375 274.398438 1315.269531 278.722656 C 1322.015625 284.296875 1329.023438 289.519531 1336.292969 294.390625 C 1343.5625 299.261719 1351.054688 303.757812 1358.773438 307.878906 C 1366.492188 312 1374.398438 315.726562 1382.488281 319.054688 C 1390.582031 322.386719 1398.820312 325.304688 1407.203125 327.8125 C 1415.585938 330.316406 1424.074219 332.398438 1432.664062 334.054688 C 1441.257812 335.714844 1449.910156 336.9375 1458.625 337.726562 C 1467.339844 338.519531 1476.070312 338.875 1484.820312 338.792969 C 1493.570312 338.710938 1502.296875 338.191406 1510.992188 337.234375 C 1521.53125 336.15625 1531.953125 334.40625 1542.265625 331.984375 C 1552.578125 329.566406 1562.691406 326.496094 1572.605469 322.773438 C 1582.523438 319.054688 1592.160156 314.714844 1601.519531 309.757812 C 1610.878906 304.800781 1619.882812 299.261719 1628.53125 293.144531 C 1632.496094 290.445312 1636.199219 287.417969 1639.632812 284.066406 C 1643.0625 280.714844 1646.179688 277.085938 1648.972656 273.1875 C 1651.765625 269.285156 1654.199219 265.167969 1656.265625 260.839844 C 1658.335938 256.507812 1660.007812 252.03125 1661.289062 247.40625 C 1662.226562 242.453125 1662.835938 237.460938 1663.113281 232.425781 C 1663.394531 227.394531 1663.34375 222.363281 1662.960938 217.335938 C 1662.578125 212.3125 1661.867188 207.332031 1660.828125 202.398438 C 1659.789062 197.464844 1658.433594 192.621094 1656.757812 187.867188 C 1643.878906 146.660156 1612.460938 104.941406 1624.203125 59.613281 C 1629.355469 39.628906 1639.449219 21.292969 1636.464844 0.0742188 C 1635.609375 -4.40625 1634.402344 -8.785156 1632.839844 -13.066406 C 1631.273438 -17.351562 1629.378906 -21.480469 1627.144531 -25.453125 C 1624.914062 -29.429688 1622.375 -33.199219 1619.53125 -36.761719 C 1616.6875 -40.324219 1613.574219 -43.636719 1610.195312 -46.695312 C 1580.527344 -75.433594 1538.085938 -84.707031 1507.695312 -112.417969 C 1500.148438 -120.09375 1493.3125 -128.359375 1487.1875 -137.214844 C 1481.066406 -146.070312 1475.746094 -155.386719 1471.230469 -165.160156 C 1459.925781 -185.550781 1450.105469 -206.632812 1441.769531 -228.410156 C 1421.167969 -286.921875 1428.996094 -350.066406 1424.359375 -411.050781 C 1424.644531 -436.515625 1423.03125 -461.855469 1419.519531 -487.074219 C 1415.984375 -511.152344 1410.714844 -534.839844 1403.707031 -558.144531 C 1396.699219 -581.445312 1388.027344 -604.113281 1377.695312 -626.144531 C 1367.265625 -648.691406 1355.144531 -670.289062 1341.332031 -690.9375 C 1335.332031 -700.941406 1328.605469 -710.425781 1321.144531 -719.386719 C 1313.683594 -728.351562 1305.578125 -736.691406 1296.828125 -744.402344 C 1260.980469 -772.832031 1214.625 -763.355469 1177.953125 -741.105469 Z M 1177.953125 -741.105469 " fill-opacity="1" fill-rule="nonzero"/></g><path fill="#c3e4ff" d="M 2545.863281 1407.539062 C 2541.644531 1410.480469 2537.632812 1413.675781 2533.824219 1417.128906 C 2530.011719 1420.582031 2526.441406 1424.265625 2523.101562 1428.175781 C 2519.765625 1432.085938 2516.691406 1436.191406 2513.882812 1440.496094 C 2511.070312 1444.800781 2508.542969 1449.269531 2506.304688 1453.894531 C 2503.273438 1460.84375 2500.769531 1467.980469 2498.792969 1475.300781 C 2496.820312 1482.621094 2495.394531 1490.046875 2494.523438 1497.578125 C 2493.648438 1505.109375 2493.335938 1512.664062 2493.585938 1520.242188 C 2493.835938 1527.820312 2494.640625 1535.339844 2496.003906 1542.796875 C 2497.121094 1549.996094 2498.546875 1557.136719 2500.277344 1564.214844 C 2502.011719 1571.292969 2504.042969 1578.28125 2506.378906 1585.1875 C 2508.710938 1592.089844 2511.339844 1598.878906 2514.257812 1605.554688 C 2517.179688 1612.230469 2520.378906 1618.769531 2523.863281 1625.171875 C 2527.347656 1631.570312 2531.097656 1637.808594 2535.117188 1643.886719 C 2539.136719 1649.964844 2543.414062 1655.859375 2547.941406 1661.566406 C 2552.46875 1667.277344 2557.234375 1672.78125 2562.238281 1678.078125 C 2567.238281 1683.375 2572.460938 1688.449219 2577.898438 1693.296875 C 2620.339844 1731 2684.519531 1769.527344 2742.71875 1748 C 2746.507812 1746.515625 2750.203125 1744.824219 2753.804688 1742.925781 C 2757.40625 1741.03125 2760.890625 1738.941406 2764.257812 1736.65625 C 2767.625 1734.371094 2770.855469 1731.90625 2773.949219 1729.261719 C 2777.042969 1726.617188 2779.980469 1723.808594 2782.761719 1720.835938 C 2785.542969 1717.867188 2788.148438 1714.75 2790.582031 1711.488281 C 2793.015625 1708.226562 2795.257812 1704.839844 2797.316406 1701.324219 C 2799.371094 1697.8125 2801.226562 1694.199219 2802.878906 1690.480469 C 2804.535156 1686.761719 2805.976562 1682.960938 2807.207031 1679.082031 C 2833.0625 1605.53125 2809.679688 1510.449219 2761.675781 1450.601562 C 2757.789062 1445.570312 2753.644531 1440.761719 2749.242188 1436.175781 C 2744.84375 1431.585938 2740.210938 1427.246094 2735.34375 1423.15625 C 2730.480469 1419.0625 2725.410156 1415.242188 2720.136719 1411.691406 C 2714.867188 1408.140625 2709.417969 1404.882812 2703.796875 1401.914062 C 2698.175781 1398.945312 2692.414062 1396.289062 2686.507812 1393.933594 C 2680.601562 1391.582031 2674.585938 1389.554688 2668.464844 1387.84375 C 2662.339844 1386.136719 2656.144531 1384.757812 2649.875 1383.710938 C 2643.605469 1382.664062 2637.296875 1381.953125 2630.949219 1381.582031 C 2623.394531 1381.398438 2615.875 1381.820312 2608.386719 1382.847656 C 2600.898438 1383.871094 2593.539062 1385.484375 2586.3125 1387.691406 C 2579.082031 1389.898438 2572.074219 1392.664062 2565.289062 1395.992188 C 2558.503906 1399.324219 2552.03125 1403.171875 2545.863281 1407.539062 Z M 2545.863281 1407.539062 " fill-opacity="1" fill-rule="nonzero"/><g clip-path="url(#3b04349126)"><path fill="#ffb080" d="M 2365.382812 1656.625 C 2347.867188 1658.058594 2330.699219 1661.320312 2313.878906 1666.414062 C 2262.371094 1681.96875 2214.46875 1710.296875 2165.746094 1732.648438 C 2110.839844 1757.785156 2056.34375 1784.15625 2001.746094 1809.496094 C 1941.898438 1837.515625 1881.53125 1864.609375 1822.300781 1893.761719 C 1780.167969 1914.363281 1734.636719 1943.3125 1725.464844 1993.167969 C 1717.226562 2038.597656 1738.753906 2082.996094 1754 2124.410156 C 1762.652344 2145.164062 1768.109375 2166.730469 1770.378906 2189.101562 C 1770.804688 2194.585938 1770.730469 2200.066406 1770.15625 2205.539062 C 1769.585938 2211.007812 1768.523438 2216.386719 1766.976562 2221.664062 C 1765.425781 2226.945312 1763.414062 2232.042969 1760.941406 2236.957031 C 1758.464844 2241.871094 1755.570312 2246.519531 1752.25 2250.910156 C 1737.929688 2269.863281 1718.460938 2284.179688 1702.289062 2301.382812 C 1698.074219 2305.515625 1694.25 2309.980469 1690.816406 2314.78125 C 1687.386719 2319.578125 1684.394531 2324.640625 1681.847656 2329.964844 C 1679.300781 2335.285156 1677.234375 2340.789062 1675.648438 2346.472656 C 1674.066406 2352.160156 1672.988281 2357.9375 1672.414062 2363.8125 C 1670.355469 2391.007812 1678.492188 2417.6875 1682.714844 2444.367188 C 1685.199219 2458.0625 1685.4375 2471.796875 1683.4375 2485.570312 C 1682.007812 2492.460938 1679.921875 2499.148438 1677.183594 2505.632812 C 1674.445312 2512.113281 1671.105469 2518.269531 1667.160156 2524.097656 C 1653.5625 2545.421875 1636.257812 2565.304688 1630.28125 2590.542969 C 1625.75 2610.421875 1627.398438 2634.941406 1643.878906 2649.15625 C 1646.316406 2651.09375 1648.898438 2652.8125 1651.621094 2654.3125 C 1654.347656 2655.8125 1657.179688 2657.078125 1660.113281 2658.105469 C 1663.050781 2659.128906 1666.054688 2659.902344 1669.121094 2660.425781 C 1672.1875 2660.945312 1675.277344 2661.207031 1678.390625 2661.210938 C 1693.53125 2662.136719 1709.292969 2661.210938 1724.128906 2661.210938 C 1755.753906 2659.972656 1787.378906 2657.089844 1818.796875 2653.585938 C 1943.75 2639.578125 2071.488281 2612.382812 2197.058594 2634.835938 C 2228.082031 2640.871094 2258.503906 2649.109375 2288.332031 2659.5625 C 2316.867188 2670.242188 2346.292969 2677.109375 2376.613281 2680.164062 C 2382.996094 2680.679688 2389.390625 2680.789062 2395.789062 2680.488281 C 2402.1875 2680.1875 2408.542969 2679.480469 2414.851562 2678.367188 C 2421.160156 2677.257812 2427.375 2675.746094 2433.488281 2673.839844 C 2439.605469 2671.933594 2445.574219 2669.648438 2451.398438 2666.976562 C 2456.933594 2664.242188 2462.175781 2661.035156 2467.132812 2657.359375 C 2472.089844 2653.679688 2476.679688 2649.589844 2480.902344 2645.085938 C 2485.121094 2640.585938 2488.910156 2635.742188 2492.261719 2630.558594 C 2495.609375 2625.375 2498.472656 2619.933594 2500.847656 2614.234375 C 2521.449219 2564.6875 2511.148438 2507 2507.027344 2455.285156 C 2502.082031 2389.289062 2499.988281 2323.15625 2500.742188 2256.882812 C 2502.289062 2110.296875 2509.292969 1962.472656 2548.746094 1820.519531 C 2561.109375 1775.914062 2562.242188 1740.683594 2522.683594 1708.648438 C 2517.300781 1704.039062 2511.707031 1699.703125 2505.90625 1695.636719 C 2500.101562 1691.574219 2494.113281 1687.800781 2487.941406 1684.316406 C 2481.769531 1680.835938 2475.445312 1677.660156 2468.964844 1674.792969 C 2462.484375 1671.925781 2455.882812 1669.382812 2449.152344 1667.15625 C 2442.425781 1664.929688 2435.605469 1663.039062 2428.695312 1661.476562 C 2421.78125 1659.914062 2414.8125 1658.691406 2407.78125 1657.808594 C 2400.75 1656.925781 2393.695312 1656.382812 2386.613281 1656.1875 C 2379.527344 1655.988281 2372.453125 1656.136719 2365.382812 1656.625 Z M 2365.382812 1656.625 " fill-opacity="1" fill-rule="nonzero"/></g><path fill="#ffb080" d="M 1620.703125 945.011719 C 1617.644531 948.316406 1614.894531 951.855469 1612.453125 955.636719 C 1610.007812 959.417969 1607.910156 963.378906 1606.152344 967.523438 C 1604.398438 971.667969 1603.011719 975.933594 1601.996094 980.316406 C 1600.976562 984.699219 1600.347656 989.140625 1600.101562 993.632812 C 1595.050781 1042.359375 1629.253906 1082.328125 1635.226562 1129.199219 C 1635.511719 1131.910156 1635.6875 1134.628906 1635.753906 1137.355469 C 1635.824219 1140.078125 1635.785156 1142.800781 1635.636719 1145.523438 C 1635.488281 1148.246094 1635.230469 1150.957031 1634.867188 1153.660156 C 1634.503906 1156.363281 1634.035156 1159.042969 1633.457031 1161.707031 C 1632.882812 1164.375 1632.199219 1167.011719 1631.414062 1169.621094 C 1630.628906 1172.230469 1629.742188 1174.804688 1628.75 1177.347656 C 1627.761719 1179.886719 1626.671875 1182.382812 1625.484375 1184.835938 C 1624.292969 1187.289062 1623.011719 1189.691406 1621.632812 1192.042969 C 1620.253906 1194.394531 1618.78125 1196.6875 1617.222656 1198.921875 C 1615.660156 1201.15625 1614.011719 1203.324219 1612.28125 1205.429688 C 1610.546875 1207.53125 1608.730469 1209.566406 1606.835938 1211.523438 C 1604.941406 1213.484375 1602.972656 1215.367188 1600.929688 1217.167969 C 1598.886719 1218.972656 1596.773438 1220.691406 1594.59375 1222.328125 C 1592.410156 1223.964844 1590.171875 1225.511719 1587.867188 1226.96875 C 1585.5625 1228.425781 1583.207031 1229.792969 1580.792969 1231.0625 C 1578.382812 1232.332031 1575.925781 1233.507812 1573.417969 1234.582031 C 1544.472656 1246.839844 1481.222656 1242.101562 1485.242188 1289.386719 C 1487.199219 1312.253906 1504.296875 1334.09375 1518.925781 1351.191406 C 1534.96875 1368.839844 1552.515625 1384.84375 1571.566406 1399.195312 C 1609.164062 1428.761719 1649.648438 1456.472656 1676.328125 1497.058594 C 1679.671875 1501.882812 1682.683594 1506.90625 1685.359375 1512.128906 C 1688.03125 1517.355469 1690.347656 1522.730469 1692.304688 1528.265625 C 1694.261719 1533.796875 1695.84375 1539.4375 1697.050781 1545.179688 C 1698.253906 1550.925781 1699.074219 1556.722656 1699.507812 1562.574219 C 1699.382812 1574.851562 1698.273438 1587.035156 1696.183594 1599.132812 C 1694.09375 1611.230469 1691.046875 1623.078125 1687.042969 1634.683594 C 1675.09375 1676.40625 1661.90625 1724.925781 1694.253906 1761.289062 C 1722.375 1793.015625 1769.761719 1799.300781 1809.320312 1790.644531 C 1834.882812 1784.167969 1859.261719 1774.65625 1882.457031 1762.113281 C 1906.871094 1749.957031 1931.082031 1737.492188 1955.90625 1726.46875 C 1994.992188 1709.867188 2034.800781 1695.234375 2075.332031 1682.566406 C 2115.863281 1669.898438 2156.921875 1659.261719 2198.503906 1650.652344 C 2268.964844 1634.890625 2347.664062 1630.046875 2395.464844 1568.242188 C 2462.011719 1482.429688 2436.667969 1369.941406 2358.171875 1302.160156 C 2279.675781 1234.375 2173.46875 1213.566406 2077.359375 1179.984375 C 2052.160156 1171.152344 2027.609375 1160.792969 2003.703125 1148.898438 C 1979.796875 1137.007812 1956.722656 1123.675781 1934.480469 1108.90625 C 1891.625 1080.679688 1851.246094 1049.054688 1810.144531 1018.460938 C 1789.542969 1002.90625 1768.320312 987.554688 1746.6875 973.136719 C 1726.007812 957.539062 1703.652344 944.902344 1679.625 935.226562 C 1677.195312 934.230469 1674.710938 933.410156 1672.167969 932.761719 C 1669.625 932.109375 1667.050781 931.640625 1664.441406 931.347656 C 1661.835938 931.054688 1659.21875 930.941406 1656.59375 931.011719 C 1653.972656 931.078125 1651.363281 931.328125 1648.777344 931.757812 C 1646.1875 932.1875 1643.640625 932.796875 1641.136719 933.578125 C 1638.628906 934.359375 1636.191406 935.3125 1633.816406 936.433594 C 1631.445312 937.554688 1629.160156 938.832031 1626.960938 940.269531 C 1624.765625 941.707031 1622.679688 943.285156 1620.703125 945.011719 Z M 1620.703125 945.011719 " fill-opacity="1" fill-rule="nonzero"/><path fill="#ffb080" d="M 2040.582031 160.257812 C 2016.886719 164.808594 1993.8125 171.503906 1971.359375 180.347656 C 1955.417969 187.335938 1939 192.914062 1922.101562 197.082031 C 1905.207031 201.25 1888.074219 203.945312 1870.714844 205.171875 C 1840.839844 205.894531 1792.835938 182.304688 1766.15625 200.023438 C 1729.277344 224.539062 1764.613281 293.558594 1731.027344 322.402344 C 1717.636719 334.042969 1698.269531 334.042969 1680.964844 337.648438 C 1678.125 338.304688 1675.3125 339.066406 1672.527344 339.933594 C 1669.746094 340.804688 1667 341.777344 1664.292969 342.851562 C 1661.582031 343.929688 1658.917969 345.109375 1656.296875 346.386719 C 1653.675781 347.664062 1651.109375 349.039062 1648.59375 350.515625 C 1646.078125 351.988281 1643.621094 353.554688 1641.222656 355.210938 C 1638.824219 356.871094 1636.496094 358.617188 1634.230469 360.453125 C 1631.964844 362.289062 1629.773438 364.207031 1627.652344 366.210938 C 1625.53125 368.210938 1623.492188 370.292969 1621.53125 372.449219 C 1619.566406 374.605469 1617.691406 376.832031 1615.894531 379.128906 C 1614.101562 381.429688 1612.398438 383.792969 1610.785156 386.21875 C 1609.171875 388.648438 1607.648438 391.132812 1606.222656 393.675781 C 1604.796875 396.21875 1603.46875 398.808594 1602.238281 401.453125 C 1601.007812 404.097656 1599.882812 406.785156 1598.855469 409.511719 C 1597.828125 412.242188 1596.90625 415.003906 1596.089844 417.800781 C 1595.273438 420.601562 1594.5625 423.425781 1593.960938 426.277344 C 1593.355469 429.132812 1592.863281 432.003906 1592.476562 434.890625 C 1586.089844 490.621094 1621.421875 542.539062 1628.429688 598.269531 C 1633.371094 637.722656 1624 677.488281 1621.320312 717.148438 C 1618.640625 756.808594 1624.925781 807.285156 1659.746094 833.347656 C 1705.6875 867.855469 1768.730469 883.71875 1817.046875 917.40625 C 1876.792969 959.125 1928.09375 1013.621094 1993.507812 1045.757812 C 2062.628906 1079.652344 2142.257812 1085.726562 2213.644531 1114.46875 C 2317.894531 1156.5 2397.523438 1243.234375 2496.417969 1296.492188 C 2523.507812 1311.121094 2559.5625 1322.246094 2582.84375 1302.054688 C 2598.605469 1288.457031 2601.796875 1265.382812 2601.488281 1244.574219 C 2600.503906 1224.355469 2598.238281 1204.28125 2594.6875 1184.355469 C 2591.136719 1164.425781 2586.328125 1144.804688 2580.269531 1125.492188 C 2552.765625 1026.289062 2518.460938 929.25 2483.847656 832.316406 C 2420.1875 653.28125 2356.316406 473.726562 2270.921875 304.066406 C 2244.859375 252.558594 2213.851562 198.785156 2162.242188 172.828125 C 2125.15625 153.976562 2082.714844 152.636719 2040.582031 160.257812 Z M 2040.582031 160.257812 " fill-opacity="1" fill-rule="nonzero"/><g clip-path="url(#a1427a250c)"><path fill="#ffb080" d="M 2709.34375 1807.4375 C 2697.570312 1808.378906 2686.101562 1810.78125 2674.9375 1814.648438 C 2618.691406 1834.53125 2600.253906 1895.203125 2590.878906 1948.566406 L 2589.128906 1959.382812 C 2584.90625 1986.0625 2581.503906 2012.949219 2578.828125 2039.9375 C 2572.707031 2096.097656 2569.175781 2152.417969 2568.230469 2208.902344 C 2567.28125 2265.386719 2568.925781 2321.796875 2573.160156 2378.128906 C 2576.5 2431.753906 2582.886719 2485.011719 2592.320312 2537.902344 C 2599.222656 2574.679688 2611.070312 2613 2635.277344 2642.359375 C 2637.964844 2645.738281 2640.867188 2648.925781 2643.976562 2651.917969 C 2647.085938 2654.914062 2650.382812 2657.6875 2653.863281 2660.246094 C 2657.34375 2662.804688 2660.976562 2665.121094 2664.761719 2667.195312 C 2668.546875 2669.269531 2672.457031 2671.085938 2676.484375 2672.644531 C 2682.007812 2674.300781 2687.625 2675.523438 2693.339844 2676.320312 C 2699.050781 2677.113281 2704.789062 2677.464844 2710.558594 2677.378906 C 2716.324219 2677.292969 2722.050781 2676.765625 2727.734375 2675.796875 C 2733.421875 2674.832031 2739 2673.4375 2744.472656 2671.613281 C 2768.164062 2663.925781 2792.199219 2657.539062 2816.582031 2652.453125 C 2839.664062 2648.894531 2862.878906 2647.554688 2886.21875 2648.4375 C 2982.019531 2651.21875 3074.421875 2681.8125 3169.914062 2687.167969 C 3193.382812 2688.632812 3216.800781 2688.082031 3240.171875 2685.519531 C 3262.898438 2683.382812 3284.910156 2678.199219 3306.203125 2669.964844 C 3382.636719 2637.824219 3338.34375 2553.765625 3294.148438 2515.445312 C 3209.882812 2442.308594 3145.5 2367.828125 3117.070312 2256.675781 C 3093.6875 2165.613281 3091.417969 2064.558594 3040.324219 1983.074219 C 3034.558594 1974.074219 3028.421875 1965.335938 3021.914062 1956.855469 C 3015.40625 1948.375 3008.554688 1940.1875 3001.351562 1932.292969 C 2994.148438 1924.394531 2986.625 1916.816406 2978.777344 1909.558594 C 2970.929688 1902.300781 2962.792969 1895.386719 2954.359375 1888.820312 C 2945.925781 1882.253906 2937.230469 1876.054688 2928.273438 1870.222656 C 2919.3125 1864.394531 2910.125 1858.957031 2900.703125 1853.90625 C 2891.28125 1848.855469 2881.664062 1844.214844 2871.851562 1839.984375 C 2862.035156 1835.75 2852.058594 1831.941406 2841.921875 1828.554688 C 2803.703125 1815.988281 2753.433594 1803.730469 2709.34375 1807.4375 Z M 2709.34375 1807.4375 " fill-opacity="1" fill-rule="nonzero"/></g><path fill="#ffb080" d="M 3008.90625 1574.007812 C 2996.789062 1575.144531 2984.898438 1577.445312 2973.230469 1580.910156 C 2961.566406 1584.378906 2950.347656 1588.945312 2939.578125 1594.613281 C 2906.304688 1612.332031 2871.691406 1644.984375 2868.5 1684.128906 C 2864.894531 1729.351562 2893.839844 1774.574219 2925.980469 1803.832031 C 2975.941406 1849.464844 3049.597656 1862.035156 3098.9375 1908.597656 C 3151.476562 1958.453125 3164.765625 2035.40625 3184.128906 2105.144531 C 3224.304688 2249.363281 3306.714844 2387.089844 3433.9375 2466.308594 C 3440.167969 2470.554688 3446.613281 2474.4375 3453.28125 2477.953125 C 3459.949219 2481.472656 3466.792969 2484.605469 3473.8125 2487.351562 C 3480.832031 2490.101562 3487.984375 2492.445312 3495.265625 2494.386719 C 3502.550781 2496.328125 3509.921875 2497.851562 3517.378906 2498.964844 C 3521.125 2499.492188 3524.886719 2499.800781 3528.667969 2499.882812 C 3532.449219 2499.964844 3536.222656 2499.820312 3539.984375 2499.453125 C 3543.75 2499.085938 3547.480469 2498.496094 3551.171875 2497.683594 C 3554.867188 2496.871094 3558.5 2495.839844 3562.070312 2494.59375 C 3565.640625 2493.351562 3569.128906 2491.898438 3572.527344 2490.234375 C 3575.921875 2488.574219 3579.210938 2486.71875 3582.386719 2484.664062 C 3585.5625 2482.613281 3588.609375 2480.378906 3591.519531 2477.960938 C 3594.429688 2475.546875 3597.1875 2472.96875 3599.789062 2470.222656 C 3621.316406 2444.984375 3623.480469 2408.414062 3618.226562 2375.65625 C 3612.972656 2342.898438 3601.4375 2311.066406 3599.582031 2278 C 3593.917969 2178.902344 3673.132812 2094.019531 3686.011719 1995.539062 C 3686.550781 1991.367188 3686.960938 1987.183594 3687.242188 1982.984375 C 3687.519531 1978.789062 3687.671875 1974.585938 3687.691406 1970.378906 C 3687.714844 1966.171875 3687.605469 1961.96875 3687.363281 1957.769531 C 3687.125 1953.570312 3686.757812 1949.382812 3686.257812 1945.207031 C 3685.761719 1941.027344 3685.132812 1936.871094 3684.378906 1932.734375 C 3683.625 1928.59375 3682.742188 1924.484375 3681.730469 1920.398438 C 3680.722656 1916.316406 3679.585938 1912.269531 3678.328125 1908.253906 C 3677.066406 1904.242188 3675.683594 1900.269531 3674.179688 1896.34375 C 3672.671875 1892.414062 3671.046875 1888.539062 3669.304688 1884.710938 C 3667.558594 1880.882812 3665.695312 1877.113281 3663.71875 1873.398438 C 3661.738281 1869.6875 3659.648438 1866.039062 3657.445312 1862.457031 C 3655.242188 1858.875 3652.929688 1855.363281 3650.507812 1851.921875 C 3648.085938 1848.484375 3645.5625 1845.121094 3642.933594 1841.835938 C 3640.300781 1838.554688 3637.574219 1835.355469 3634.75 1832.238281 C 3631.921875 1829.125 3629 1826.097656 3625.988281 1823.164062 C 3622.972656 1820.230469 3619.871094 1817.390625 3616.683594 1814.648438 C 3543.851562 1754.488281 3438.78125 1757.886719 3351.113281 1722.761719 C 3292.089844 1699.171875 3241.820312 1658.273438 3187.839844 1624.691406 C 3133.859375 1591.109375 3071.230469 1567.933594 3008.90625 1574.007812 Z M 3008.90625 1574.007812 " fill-opacity="1" fill-rule="nonzero"/><path fill="#ffb080" d="M 3519.644531 939.449219 C 3475.246094 955.621094 3439.601562 987.867188 3404.476562 1018.460938 C 3386.296875 1034.742188 3367.175781 1049.828125 3347.113281 1063.71875 C 3327.050781 1077.609375 3306.203125 1090.199219 3284.570312 1101.488281 C 3262.648438 1112.324219 3240.132812 1121.722656 3217.015625 1129.6875 C 3193.898438 1137.648438 3170.367188 1144.113281 3146.429688 1149.082031 C 3098.320312 1159.382812 3049.390625 1167.109375 3002.210938 1181.734375 C 2899.816406 1213.671875 2743.851562 1356.035156 2849.03125 1465.535156 C 2915.472656 1534.660156 3015.292969 1487.375 3096.261719 1513.644531 C 3166.207031 1536.203125 3223.378906 1585.753906 3287.660156 1620.054688 C 3305.007812 1629.476562 3322.738281 1638.109375 3340.851562 1645.953125 C 3358.96875 1653.800781 3377.394531 1660.828125 3396.132812 1667.035156 C 3414.871094 1673.246094 3433.847656 1678.609375 3453.0625 1683.132812 C 3472.277344 1687.65625 3491.65625 1691.320312 3511.199219 1694.121094 C 3551.371094 1699.582031 3595.769531 1699.273438 3631.929688 1678.257812 C 3668.085938 1657.246094 3685.082031 1620.675781 3689.511719 1581.324219 C 3694.457031 1537.027344 3682.921875 1493.96875 3669.632812 1452.144531 C 3654.179688 1403.316406 3638.726562 1354.796875 3643.980469 1302.777344 C 3649.339844 1252.816406 3669.117188 1205.738281 3682.507812 1157.632812 C 3685.457031 1148.234375 3687.894531 1138.703125 3689.8125 1129.042969 C 3691.730469 1119.382812 3693.125 1109.644531 3693.988281 1099.832031 C 3694.855469 1090.019531 3695.191406 1080.191406 3694.992188 1070.34375 C 3694.796875 1060.496094 3694.066406 1050.6875 3692.808594 1040.917969 C 3692.308594 1036.519531 3691.597656 1032.15625 3690.675781 1027.828125 C 3689.75 1023.5 3688.617188 1019.226562 3687.277344 1015.007812 C 3685.941406 1010.789062 3684.398438 1006.644531 3682.65625 1002.574219 C 3680.917969 998.503906 3678.980469 994.53125 3676.851562 990.648438 C 3674.726562 986.769531 3672.414062 983 3669.921875 979.34375 C 3667.425781 975.683594 3664.761719 972.15625 3661.925781 968.761719 C 3659.089844 965.363281 3656.09375 962.109375 3652.941406 959.003906 C 3649.789062 955.894531 3646.492188 952.949219 3643.054688 950.164062 C 3607.101562 923.894531 3559.820312 924.820312 3519.644531 939.449219 Z M 3519.644531 939.449219 " fill-opacity="1" fill-rule="nonzero"/><path fill="#ffb080" d="M 2630.128906 217.535156 C 2615.8125 217.875 2601.632812 219.4375 2587.589844 222.222656 C 2573.542969 225.007812 2559.839844 228.972656 2546.480469 234.121094 C 2540.425781 236.65625 2534.597656 239.636719 2528.996094 243.050781 C 2523.390625 246.46875 2518.074219 250.285156 2513.042969 254.503906 C 2508.015625 258.71875 2503.328125 263.289062 2498.988281 268.214844 C 2494.648438 273.136719 2490.699219 278.355469 2487.144531 283.875 C 2459.433594 327.65625 2458.300781 383.695312 2464.480469 433.550781 C 2473.667969 494.585938 2488.160156 554.332031 2507.953125 612.792969 C 2527.527344 675.425781 2549.878906 737.027344 2570.996094 799.144531 C 2592.738281 860.65625 2611.140625 923.152344 2626.210938 986.628906 C 2638.492188 1043.371094 2647.320312 1100.648438 2652.6875 1158.457031 C 2655.984375 1193.582031 2653.203125 1230.5625 2670.507812 1262.703125 C 2671.808594 1265.175781 2673.222656 1267.578125 2674.753906 1269.910156 C 2676.289062 1272.246094 2677.929688 1274.5 2679.679688 1276.675781 C 2681.429688 1278.847656 2683.28125 1280.933594 2685.234375 1282.929688 C 2687.1875 1284.925781 2689.230469 1286.820312 2691.367188 1288.617188 C 2693.503906 1290.414062 2695.722656 1292.105469 2698.023438 1293.6875 C 2700.320312 1295.269531 2702.691406 1296.738281 2705.136719 1298.089844 C 2707.578125 1299.441406 2710.078125 1300.671875 2712.640625 1301.785156 C 2715.203125 1302.894531 2717.8125 1303.875 2720.46875 1304.734375 C 2776.300781 1321.214844 2792.578125 1270.328125 2812.667969 1230.875 C 2815.101562 1226.109375 2817.65625 1221.40625 2820.320312 1216.765625 C 2822.988281 1212.125 2825.765625 1207.550781 2828.652344 1203.042969 C 2831.539062 1198.539062 2834.535156 1194.105469 2837.640625 1189.746094 C 2840.746094 1185.386719 2843.953125 1181.101562 2847.265625 1176.898438 C 2850.578125 1172.695312 2853.988281 1168.574219 2857.5 1164.535156 C 2861.015625 1160.496094 2864.621094 1156.546875 2868.328125 1152.683594 C 2872.03125 1148.820312 2875.828125 1145.050781 2879.714844 1141.371094 C 2883.601562 1137.691406 2887.578125 1134.109375 2891.640625 1130.625 C 2895.703125 1127.140625 2899.847656 1123.753906 2904.074219 1120.472656 C 2908.296875 1117.1875 2912.601562 1114.007812 2916.984375 1110.933594 C 2921.363281 1107.859375 2925.816406 1104.894531 2930.34375 1102.035156 C 2934.867188 1099.179688 2939.460938 1096.433594 2944.121094 1093.796875 C 2948.777344 1091.164062 2953.496094 1088.644531 2958.277344 1086.238281 C 2963.058594 1083.832031 2967.898438 1081.546875 2972.789062 1079.375 C 2977.683594 1077.207031 2982.625 1075.15625 2987.617188 1073.226562 C 2992.609375 1071.296875 2997.644531 1069.488281 3002.726562 1067.804688 C 3089.257812 1038.855469 3191.238281 1052.453125 3269.324219 1000.433594 C 3291.117188 985.261719 3311.207031 968.09375 3329.585938 948.925781 C 3366.875 911.53125 3402.929688 870.535156 3453.820312 851.683594 C 3476.433594 845.113281 3498.273438 836.5625 3519.335938 826.03125 C 3522.023438 824.605469 3524.59375 822.996094 3527.054688 821.203125 C 3529.511719 819.410156 3531.832031 817.453125 3534.011719 815.335938 C 3536.195312 813.214844 3538.214844 810.949219 3540.074219 808.542969 C 3541.933594 806.132812 3543.617188 803.609375 3545.117188 800.960938 C 3546.621094 798.316406 3547.929688 795.578125 3549.042969 792.746094 C 3550.15625 789.917969 3551.0625 787.023438 3551.765625 784.0625 C 3552.472656 781.101562 3552.960938 778.105469 3553.242188 775.078125 C 3553.519531 772.046875 3553.582031 769.015625 3553.433594 765.976562 C 3552.664062 758.890625 3551.496094 751.871094 3549.9375 744.917969 C 3548.378906 737.964844 3546.433594 731.121094 3544.101562 724.390625 C 3541.769531 717.65625 3539.066406 711.074219 3535.996094 704.644531 C 3532.921875 698.214844 3529.496094 691.980469 3525.722656 685.933594 C 3519.027344 674.414062 3511.492188 663.472656 3503.113281 653.113281 C 3494.738281 642.75 3485.621094 633.089844 3475.761719 624.128906 C 3465.90625 615.0625 3455.40625 606.816406 3444.265625 599.386719 C 3433.125 591.960938 3421.476562 585.441406 3409.316406 579.832031 C 3395.683594 573.96875 3381.691406 569.128906 3367.347656 565.316406 C 3353.003906 561.5 3338.460938 558.75 3323.714844 557.066406 C 3264.273438 549.03125 3202.777344 548 3150.859375 514.007812 C 3109.652344 487.222656 3079.984375 447.460938 3051.863281 408.316406 C 3023.738281 369.167969 2995.71875 326.933594 2959.769531 293.25 C 2954.625 288.5625 2949.316406 284.078125 2943.835938 279.789062 C 2938.355469 275.503906 2932.722656 271.429688 2926.9375 267.566406 C 2921.152344 263.703125 2915.226562 260.066406 2909.167969 256.648438 C 2903.109375 253.230469 2896.925781 250.046875 2890.628906 247.097656 C 2884.328125 244.144531 2877.925781 241.433594 2871.421875 238.964844 C 2864.917969 236.496094 2858.332031 234.273438 2851.660156 232.300781 C 2844.988281 230.324219 2838.253906 228.605469 2831.453125 227.136719 C 2824.652344 225.671875 2817.804688 224.460938 2810.914062 223.507812 C 2781.035156 219.023438 2750.992188 216.757812 2720.777344 216.710938 C 2690.597656 215.679688 2660.207031 215.886719 2630.128906 217.535156 Z M 2630.128906 217.535156 " fill-opacity="1" fill-rule="nonzero"/><g clip-path="url(#c78cba2cf4)"><path fill="#ffb080" d="M 2583.152344 -608.425781 C 2581.273438 -608.496094 2579.398438 -608.457031 2577.523438 -608.308594 C 2575.652344 -608.164062 2573.792969 -607.90625 2571.949219 -607.539062 C 2570.105469 -607.171875 2568.289062 -606.699219 2566.503906 -606.121094 C 2564.714844 -605.542969 2562.964844 -604.859375 2561.257812 -604.074219 C 2559.550781 -603.289062 2557.894531 -602.40625 2556.289062 -601.429688 C 2554.6875 -600.449219 2553.144531 -599.378906 2551.667969 -598.21875 C 2550.1875 -597.058594 2548.78125 -595.816406 2547.449219 -594.488281 C 2546.117188 -593.164062 2544.867188 -591.765625 2543.699219 -590.292969 C 2525.257812 -569.074219 2513.824219 -542.597656 2492.191406 -523.4375 C 2469.007812 -504.886719 2444.59375 -488.132812 2418.949219 -473.167969 C 2362.277344 -436.503906 2303.902344 -402.785156 2243.828125 -372.007812 C 2123.921875 -309.066406 2000.410156 -251.277344 1889.152344 -173.296875 L 1885.859375 -171.03125 C 1855.132812 -150.296875 1826.265625 -127.238281 1799.257812 -101.851562 C 1772.25 -76.46875 1747.445312 -49.085938 1724.847656 -19.703125 C 1695.796875 19.75 1672.621094 73.726562 1697.242188 116.066406 C 1714.960938 146.96875 1753.175781 160.15625 1788.40625 159.023438 C 1823.636719 157.890625 1857.324219 144.5 1890.492188 132.34375 C 1980.011719 99.6875 2081.171875 75.375 2168.628906 112.667969 C 2208.390625 129.5625 2242.179688 157.992188 2279.675781 179.625 C 2317.171875 201.257812 2362.085938 216.296875 2403.292969 202.90625 C 2455.417969 186.011719 2492.296875 126.78125 2547.511719 128.632812 C 2594.074219 130.28125 2636.410156 177.460938 2680.191406 161.597656 C 2714.183594 149.339844 2724.691406 106.179688 2723.765625 70.019531 C 2721.910156 2.339844 2698.117188 -62.96875 2691.933594 -130.441406 C 2683.179688 -226.039062 2709.445312 -320.914062 2702.234375 -416.511719 C 2698.011719 -472.035156 2681.632812 -529.207031 2644.960938 -572.367188 C 2629.816406 -591.117188 2606.226562 -607.496094 2583.152344 -608.425781 Z M 2583.152344 -608.425781 " fill-opacity="1" fill-rule="nonzero"/></g><g clip-path="url(#b41c95f03b)"><path fill="#ffb080" d="M 2786.707031 -589.265625 C 2778.746094 -584.265625 2771.605469 -578.292969 2765.28125 -571.339844 C 2728.609375 -530.648438 2751.683594 -480.894531 2776.613281 -440.410156 C 2780.320312 -434.800781 2783.695312 -428.992188 2786.734375 -422.988281 C 2789.769531 -416.988281 2792.449219 -410.832031 2794.773438 -404.519531 C 2797.097656 -398.207031 2799.050781 -391.78125 2800.628906 -385.242188 C 2802.207031 -378.703125 2803.40625 -372.09375 2804.21875 -365.417969 C 2810.8125 -295.675781 2787.839844 -223.464844 2783.617188 -153.726562 C 2781.019531 -116.148438 2781.152344 -78.582031 2784.015625 -41.023438 C 2786.882812 -3.46875 2792.449219 33.683594 2800.714844 70.429688 C 2813.800781 125.335938 2832.855469 156.859375 2884.363281 182.199219 C 2955.648438 217.226562 3020.441406 255.957031 3068.960938 320.136719 C 3098.320312 358.867188 3117.585938 405.429688 3152.195312 440.25 C 3191.445312 479.703125 3245.9375 487.324219 3298.476562 495.976562 L 3390.054688 511.121094 C 3416.632812 515.550781 3445.269531 522.761719 3472.464844 516.375 C 3516.246094 506.074219 3533.652344 458.070312 3527.578125 417.277344 C 3520.878906 372.15625 3489.667969 338.574219 3463.296875 303.960938 C 3445.261719 280.296875 3428.207031 255.945312 3412.132812 230.90625 C 3396.058594 205.867188 3381.019531 180.222656 3367.011719 153.972656 C 3353 127.722656 3340.070312 100.953125 3328.214844 73.664062 C 3316.363281 46.371094 3305.625 18.648438 3296.003906 -9.507812 C 3258.402344 -120.449219 3239.964844 -237.371094 3196.285156 -346.359375 C 3149.3125 -463.484375 3056.808594 -598.226562 2919.902344 -613.472656 C 2878.59375 -618.417969 2824.304688 -613.367188 2786.707031 -589.265625 Z M 2786.707031 -589.265625 " fill-opacity="1" fill-rule="nonzero"/></g><g clip-path="url(#98e5a9002d)"><path fill="#ffb080" d="M 3050.109375 -874.609375 C 3028.582031 -867.707031 3013.4375 -851.226562 3010.140625 -817.230469 C 2998.089844 -695.367188 3099.453125 -611.207031 3169.710938 -528.796875 C 3268.910156 -411.773438 3334.53125 -271.261719 3390.671875 -129.414062 C 3418.074219 -60.394531 3442.179688 9.757812 3469.785156 78.777344 C 3481.367188 110.195312 3494.691406 140.855469 3509.761719 170.757812 C 3524.832031 200.660156 3541.554688 229.609375 3559.921875 257.605469 C 3568.714844 271.089844 3578.355469 283.933594 3588.839844 296.144531 C 3599.328125 308.351562 3610.574219 319.820312 3622.578125 330.542969 C 3634.578125 341.265625 3647.234375 351.15625 3660.542969 360.207031 C 3673.851562 369.257812 3687.695312 377.398438 3702.082031 384.621094 C 3710.992188 389.125 3720.171875 392.984375 3729.628906 396.191406 C 3739.082031 399.398438 3748.714844 401.929688 3758.527344 403.773438 C 3768.339844 405.621094 3778.230469 406.769531 3788.207031 407.222656 C 3798.179688 407.671875 3808.136719 407.417969 3818.074219 406.460938 C 3825.859375 405.410156 3833.546875 403.863281 3841.132812 401.828125 C 3848.722656 399.789062 3856.148438 397.277344 3863.414062 394.289062 C 3870.679688 391.296875 3877.726562 387.855469 3884.550781 383.964844 C 3891.375 380.070312 3897.921875 375.757812 3904.191406 371.023438 C 3958.789062 330.539062 3992.269531 268.011719 4005.246094 202.082031 C 4030.691406 73.523438 4000.304688 -55.449219 3985.882812 -182.671875 C 3972.796875 -297.839844 3958.789062 -402.5 4057.992188 -484.398438 C 4133.808594 -546.925781 4233.113281 -566.292969 4312.742188 -623.566406 C 4332.816406 -637.714844 4350.535156 -654.367188 4365.894531 -673.527344 C 4401.4375 -719.164062 4418.226562 -782.621094 4368.164062 -825.472656 C 4335.714844 -853.082031 4290.179688 -858.847656 4248.976562 -856.378906 C 4071.589844 -844.53125 3894.816406 -823.515625 3716.707031 -827.738281 C 3586.191406 -830.828125 3451.140625 -841.851562 3319.386719 -855.140625 C 3250.882812 -862.042969 3182.378906 -869.664062 3113.980469 -877.1875 C 3103.359375 -878.960938 3092.671875 -879.632812 3081.910156 -879.199219 C 3071.152344 -878.765625 3060.554688 -877.238281 3050.109375 -874.609375 Z M 3050.109375 -874.609375 " fill-opacity="1" fill-rule="nonzero"/></g><path fill="#c3e4ff" d="M 5028.886719 1021.242188 C 4987.683594 1026.597656 4941.945312 1049.46875 4908.363281 1062.445312 C 4884.054688 1071.300781 4860.515625 1081.871094 4837.75 1094.160156 C 4814.984375 1106.449219 4793.230469 1120.328125 4772.488281 1135.792969 C 4607.667969 1262.292969 4646.402344 1473.675781 4733.136719 1635.507812 C 4788.765625 1739.449219 4882.609375 1819.386719 5000.972656 1839.0625 C 5028.886719 1843.699219 5083.382812 1856.265625 5105.839844 1834.117188 C 5136.023438 1804.449219 5123.660156 1751.707031 5121.496094 1714.519531 C 5114.492188 1590.902344 5111.195312 1467.289062 5111.195312 1343.671875 C 5111.195312 1281.039062 5111.640625 1218.410156 5112.535156 1155.777344 C 5113.253906 1113.851562 5127.988281 1042.460938 5075.449219 1024.640625 C 5067.925781 1022.273438 5060.234375 1020.800781 5052.367188 1020.226562 C 5044.5 1019.652344 5036.675781 1019.992188 5028.886719 1021.242188 Z M 5028.886719 1021.242188 " fill-opacity="1" fill-rule="nonzero"/><g clip-path="url(#6da42fb45a)"><path fill="#ffb080" d="M 4901.769531 1907.359375 C 4867.261719 1913.230469 4822.246094 1916.941406 4791.957031 1936.71875 C 4754.566406 1961.132812 4736.742188 2012.019531 4724.382812 2052.609375 C 4714.292969 2088.011719 4702.085938 2122.671875 4687.765625 2156.585938 C 4673.445312 2190.5 4657.117188 2223.417969 4638.777344 2255.339844 C 4581.503906 2351.449219 4426.984375 2460.023438 4455.722656 2586.421875 C 4467.054688 2636.484375 4509.910156 2667.597656 4557.191406 2680.882812 C 4610.757812 2696.027344 4665.972656 2691.1875 4720.363281 2683.152344 C 4788.558594 2672.851562 4857.578125 2658.839844 4926.390625 2665.019531 C 4943.5 2666.640625 4960.339844 2669.722656 4976.914062 2674.273438 C 4993.484375 2678.824219 5009.539062 2684.769531 5025.078125 2692.113281 C 5053.921875 2705.296875 5083.074219 2720.855469 5115.007812 2724.664062 C 5122.226562 2725.585938 5129.453125 2725.671875 5136.691406 2724.921875 C 5143.925781 2724.175781 5150.984375 2722.613281 5157.859375 2720.234375 C 5158.203125 2720.167969 5158.535156 2720.070312 5158.855469 2719.933594 C 5159.179688 2719.800781 5159.484375 2719.636719 5159.773438 2719.4375 C 5160.0625 2719.242188 5160.328125 2719.019531 5160.570312 2718.769531 C 5160.8125 2718.519531 5161.027344 2718.25 5161.214844 2717.953125 C 5161.402344 2717.660156 5161.558594 2717.351562 5161.683594 2717.027344 C 5161.808594 2716.699219 5161.902344 2716.363281 5161.957031 2716.019531 C 5162.015625 2715.675781 5162.035156 2715.332031 5162.023438 2714.980469 C 5162.007812 2714.632812 5161.960938 2714.289062 5161.878906 2713.953125 C 5132.582031 2508.945312 5115.894531 2302.921875 5111.8125 2095.875 C 5110.785156 2038.804688 5111.195312 1981.734375 5111.300781 1924.5625 C 5111.296875 1882.738281 4992.113281 1891.90625 4901.769531 1907.359375 Z M 5083.484375 1923.945312 C 5084.652344 1924.925781 5085.507812 1926.128906 5086.0625 1927.550781 C 5086.679688 1929.40625 5086.679688 1928.992188 5084.824219 1928.785156 L 5084.207031 1928.785156 C 5084.460938 1927.964844 5084.523438 1927.132812 5084.394531 1926.285156 C 5084.269531 1925.433594 5083.964844 1924.65625 5083.484375 1923.945312 Z M 5083.484375 1923.945312 " fill-opacity="1" fill-rule="nonzero"/></g><g clip-path="url(#37235e3838)"><path fill="#ffb080" d="M 4478.902344 1707.722656 C 4403.804688 1726.058594 4328.398438 1757.375 4277.820312 1774.265625 C 4193.027344 1802.378906 4106.566406 1823.738281 4018.433594 1838.339844 C 3957.449219 1848.640625 3895.539062 1860.796875 3841.148438 1889.847656 C 3770.996094 1927.757812 3735.25 1991.007812 3713 2064.96875 C 3707.902344 2081.917969 3703.5625 2099.058594 3699.972656 2116.390625 C 3696.382812 2133.722656 3693.5625 2151.179688 3691.503906 2168.757812 C 3689.449219 2186.335938 3688.171875 2203.972656 3687.667969 2221.664062 C 3687.160156 2239.355469 3687.433594 2257.035156 3688.484375 2274.703125 C 3692.292969 2338.984375 3726.1875 2428.605469 3687.039062 2487.527344 C 3672.414062 2509.472656 3648.617188 2523.378906 3625.234375 2535.222656 C 3601.847656 2547.070312 3576.917969 2557.785156 3557.757812 2576.429688 C 3463.398438 2666.050781 3597.625 2691.082031 3659.84375 2683.460938 C 3731.953125 2674.601562 3799.53125 2645.652344 3870.816406 2636.484375 C 3894.804688 2633.605469 3918.867188 2631.660156 3943.007812 2630.644531 C 3967.148438 2629.632812 3991.289062 2629.558594 4015.433594 2630.421875 C 4039.582031 2631.28125 4063.65625 2633.082031 4087.660156 2635.8125 C 4111.667969 2638.542969 4135.53125 2642.203125 4159.253906 2646.789062 C 4204.886719 2655.234375 4345.910156 2717.558594 4370.839844 2645.242188 C 4372.050781 2640.386719 4372.917969 2635.472656 4373.441406 2630.5 C 4373.96875 2625.527344 4374.148438 2620.539062 4373.984375 2615.539062 C 4373.820312 2610.542969 4373.308594 2605.578125 4372.453125 2600.648438 C 4371.601562 2595.722656 4370.410156 2590.875 4368.882812 2586.113281 C 4322.425781 2388.019531 4553.070312 2293.453125 4633.523438 2146.039062 C 4660.824219 2096.183594 4664.429688 2038.597656 4684.308594 1985.957031 C 4703.058594 1936.203125 4738.597656 1893.246094 4734.066406 1836.898438 C 4722.117188 1694.121094 4596.953125 1678.878906 4478.902344 1707.722656 Z M 4478.902344 1707.722656 " fill-opacity="1" fill-rule="nonzero"/></g><path fill="#ffb080" d="M 3674.988281 767.003906 C 3645.527344 793.582031 3649.851562 845.808594 3668.292969 877.125 C 3681.683594 899.996094 3703.417969 917.714844 3722.992188 934.917969 C 3733.839844 943.378906 3743.832031 952.753906 3752.972656 963.035156 C 3762.113281 973.316406 3770.25 984.34375 3777.382812 996.105469 C 3801.28125 1040.917969 3792.527344 1092.527344 3779.238281 1139.191406 C 3765.125 1188.945312 3745.035156 1237.464844 3738.960938 1289.179688 C 3737.246094 1302.289062 3736.882812 1315.4375 3737.875 1328.625 C 3738.863281 1341.8125 3741.179688 1354.757812 3744.832031 1367.46875 C 3754 1398.371094 3769.65625 1426.390625 3775.734375 1457.8125 C 3777.191406 1465.292969 3778.1875 1472.835938 3778.722656 1480.441406 C 3779.257812 1488.042969 3779.332031 1495.652344 3778.941406 1503.265625 C 3778.550781 1510.878906 3777.699219 1518.441406 3776.386719 1525.949219 C 3775.074219 1533.457031 3773.3125 1540.859375 3771.097656 1548.152344 C 3766.207031 1562.28125 3760.078125 1575.855469 3752.722656 1588.871094 C 3745.367188 1601.890625 3736.898438 1614.136719 3727.320312 1625.621094 C 3711.558594 1646.222656 3693.839844 1669.710938 3691.984375 1696.800781 C 3691.925781 1698.3125 3691.925781 1699.824219 3691.980469 1701.335938 C 3692.03125 1702.847656 3692.140625 1704.355469 3692.304688 1705.859375 C 3692.46875 1707.363281 3692.691406 1708.859375 3692.964844 1710.347656 C 3693.238281 1711.835938 3693.566406 1713.308594 3693.949219 1714.773438 C 3694.332031 1716.238281 3694.765625 1717.683594 3695.257812 1719.117188 C 3695.746094 1720.546875 3696.285156 1721.960938 3696.878906 1723.351562 C 3697.46875 1724.742188 3698.113281 1726.113281 3698.804688 1727.457031 C 3699.5 1728.800781 3700.238281 1730.117188 3701.03125 1731.410156 C 3701.820312 1732.699219 3702.65625 1733.957031 3703.539062 1735.1875 C 3704.417969 1736.417969 3705.34375 1737.609375 3706.316406 1738.773438 C 3707.285156 1739.933594 3708.296875 1741.054688 3709.347656 1742.144531 C 3710.402344 1743.230469 3711.492188 1744.277344 3712.621094 1745.28125 C 3713.75 1746.289062 3714.914062 1747.253906 3716.113281 1748.175781 C 3717.3125 1749.09375 3718.546875 1749.972656 3719.8125 1750.800781 C 3721.074219 1751.632812 3722.367188 1752.414062 3723.691406 1753.152344 C 3725.011719 1753.886719 3726.359375 1754.574219 3727.730469 1755.210938 C 3733.90625 1757.933594 3740.214844 1760.296875 3746.660156 1762.296875 C 3753.105469 1764.296875 3759.644531 1765.917969 3766.277344 1767.167969 C 3772.910156 1768.417969 3779.59375 1769.28125 3786.324219 1769.761719 C 3793.054688 1770.242188 3799.792969 1770.335938 3806.535156 1770.042969 C 4037.078125 1772.414062 4237.953125 1618.71875 4470.867188 1614.289062 C 4495.488281 1613.773438 4521.859375 1609.035156 4539.265625 1591.625 C 4613.332031 1517.660156 4575.21875 1346.144531 4526.492188 1271.359375 C 4518.832031 1260.097656 4510.5 1249.359375 4501.488281 1239.144531 C 4492.480469 1228.929688 4482.867188 1219.320312 4472.652344 1210.3125 C 4462.4375 1201.304688 4451.699219 1192.972656 4440.4375 1185.3125 C 4429.175781 1177.652344 4417.480469 1170.726562 4405.351562 1164.535156 C 4353.328125 1136.617188 4297.082031 1117.867188 4242.589844 1095.410156 C 4215.828125 1084.390625 4189.816406 1071.816406 4164.558594 1057.6875 C 4139.296875 1043.558594 4114.96875 1027.976562 4091.574219 1010.941406 C 4044.90625 977.050781 4001.332031 938.832031 3956.933594 902.367188 C 3913.550781 865.054688 3867.640625 831.164062 3819.207031 800.691406 C 3794.925781 785.894531 3769.652344 773.054688 3743.390625 762.164062 C 3720.933594 752.6875 3694.5625 748.976562 3674.988281 767.003906 Z M 3674.988281 767.003906 " fill-opacity="1" fill-rule="nonzero"/><g clip-path="url(#bab8d6562b)"><path fill="#ffb080" d="M 4137.621094 -160.113281 C 4131.726562 -158.121094 4126.164062 -155.441406 4120.929688 -152.078125 C 4081.683594 -126.734375 4073.855469 -72.960938 4074.679688 -26.296875 C 4076.222656 60.335938 4093.941406 146.558594 4087.96875 232.882812 C 4081.992188 319.207031 4046.246094 410.785156 3970.019531 452.09375 C 3909.753906 484.75 3837.128906 479.804688 3768.628906 484.132812 C 3736.179688 486.191406 3701.773438 491.445312 3677.460938 512.976562 C 3583.203125 596.105469 3789.539062 705.710938 3844.445312 735.484375 C 3964.96875 800.792969 4090.234375 858.480469 4202.722656 936.667969 C 4271.742188 984.671875 4335.300781 1039.679688 4403.703125 1088.816406 C 4442.230469 1116.425781 4479.210938 1150.007812 4522.0625 1170.714844 C 4560.386719 1189.253906 4610.65625 1193.066406 4642.175781 1164.429688 C 4707.488281 1104.992188 4680.085938 962.214844 4659.585938 889.589844 C 4631.050781 788.742188 4580.0625 696.339844 4535.457031 602.183594 C 4443.773438 408.519531 4374.445312 205.070312 4310.683594 0.589844 C 4296.570312 -44.53125 4281.734375 -91.609375 4248.875 -126.015625 C 4220.957031 -156.09375 4175.21875 -173.089844 4137.621094 -160.113281 Z M 4137.621094 -160.113281 " fill-opacity="1" fill-rule="nonzero"/></g><g clip-path="url(#713185a859)"><path fill="#ffb080" d="M 4987.269531 -850.300781 C 4973.210938 -849.074219 4959.304688 -846.875 4945.550781 -843.707031 C 4874.882812 -827.84375 4804.320312 -808.578125 4731.179688 -814.246094 C 4677.40625 -818.363281 4615.496094 -828.460938 4568.316406 -794.980469 C 4518.769531 -759.648438 4513.925781 -693.410156 4504.550781 -638.402344 C 4493.632812 -574.328125 4467.570312 -524.367188 4411.839844 -486.867188 C 4343.542969 -440.71875 4257.320312 -445.664062 4189.433594 -405.695312 C 4187.453125 -404.636719 4185.539062 -403.464844 4183.695312 -402.175781 C 4181.851562 -400.890625 4180.089844 -399.496094 4178.414062 -397.996094 C 4176.738281 -396.5 4175.15625 -394.90625 4173.671875 -393.21875 C 4172.1875 -391.53125 4170.808594 -389.757812 4169.535156 -387.90625 C 4168.261719 -386.050781 4167.105469 -384.128906 4166.0625 -382.136719 C 4165.019531 -380.144531 4164.101562 -378.097656 4163.304688 -375.996094 C 4162.507812 -373.890625 4161.839844 -371.75 4161.296875 -369.566406 C 4160.757812 -367.382812 4160.351562 -365.175781 4160.078125 -362.945312 C 4157.914062 -321.738281 4219.824219 -280.535156 4244.238281 -252.617188 C 4281.296875 -210.613281 4315.636719 -166.488281 4347.25 -120.246094 C 4444.804688 21.914062 4505.273438 182.40625 4570.171875 340.945312 C 4615.703125 452.199219 4662.265625 569.941406 4708.929688 683.359375 C 4762.597656 813.671875 4804.21875 1026.082031 4997.367188 979.316406 C 5111.710938 951.605469 5131.902344 860.542969 5124.484375 757.734375 C 5106.457031 510.503906 5099.144531 263.273438 5101.203125 15.527344 C 5103.265625 -222.847656 5127.472656 -460.1875 5132.105469 -698.046875 C 5132.929688 -738.117188 5125.617188 -780.457031 5099.347656 -810.84375 C 5069.167969 -845.871094 5028.683594 -853.90625 4987.269531 -850.300781 Z M 4987.269531 -850.300781 " fill-opacity="1" fill-rule="nonzero"/></g></g></g></g></svg>