<svg xmlns="http://www.w3.org/2000/svg" xmlns:xlink="http://www.w3.org/1999/xlink" width="2000" zoomAndPan="magnify" viewBox="0 0 1500 1499.999933" height="2000" preserveAspectRatio="xMidYMid meet" version="1.0"><defs><filter x="0%" y="0%" width="100%" height="100%" id="9eb4afc427"><feColorMatrix values="0 0 0 0 1 0 0 0 0 1 0 0 0 0 1 0 0 0 1 0" color-interpolation-filters="sRGB"/></filter><g/><mask id="e9ccae99a4"><g filter="url(#9eb4afc427)"><rect x="-150" width="1800" fill="#000000" y="-149.999993" height="1799.99992" fill-opacity="0.27"/></g></mask><clipPath id="26e0749561"><path d="M 0 0 L 1500 0 L 1500 1500 L 0 1500 Z M 0 0 " clip-rule="nonzero"/></clipPath><clipPath id="0918831d3e"><rect x="0" width="1500" y="0" height="1500"/></clipPath><clipPath id="15067c2217"><rect x="0" width="1354" y="0" height="795"/></clipPath></defs><rect x="-150" width="1800" fill="#ffffff" y="-149.999993" height="1799.99992" fill-opacity="1"/><rect x="-150" width="1800" fill="#ffffff" y="-149.999993" height="1799.99992" fill-opacity="1"/><g mask="url(#e9ccae99a4)"><g transform="matrix(1, 0, 0, 1, 0, 0.000000000000112861)"><g clip-path="url(#0918831d3e)"><g clip-path="url(#26e0749561)"><path fill="#ff914d" d="M -2.910156 560.042969 L -2.910156 325.578125 C -2.910156 309.121094 10.414062 295.800781 26.871094 295.800781 L 246.398438 294.734375 C 260.996094 294.675781 275.050781 289.167969 285.820312 279.3125 L 293.546875 272.226562 C 305.773438 261.03125 312.707031 245.214844 312.679688 228.636719 L 312.101562 14.035156 C 312.101562 -2.421875 325.421875 -15.742188 341.878906 -15.742188 L 576.34375 -15.742188 C 592.800781 -15.742188 606.121094 -2.421875 606.183594 14.035156 L 606.183594 248.5 C 606.183594 264.957031 592.859375 278.277344 576.402344 278.277344 L 358.152344 277.246094 C 342.761719 277.152344 327.980469 283.117188 316.9375 293.792969 L 308.480469 301.976562 C 296.953125 313.109375 290.503906 328.4375 290.535156 344.4375 L 291.113281 560.042969 C 291.113281 576.5 277.789062 589.820312 261.332031 589.820312 L 26.871094 589.820312 C 10.414062 589.820312 -2.910156 576.5 -2.910156 560.042969 Z M 1488.160156 295.769531 L 1268.628906 294.703125 C 1254.03125 294.644531 1239.976562 289.136719 1229.207031 279.28125 L 1221.484375 272.226562 C 1209.253906 261.03125 1202.320312 245.214844 1202.347656 228.636719 L 1202.925781 14.035156 C 1202.925781 -2.421875 1189.605469 -15.742188 1173.148438 -15.742188 L 938.683594 -15.742188 C 922.226562 -15.742188 908.90625 -2.421875 908.84375 14.035156 L 908.84375 248.46875 C 908.84375 264.925781 922.167969 278.25 938.625 278.25 L 1156.875 277.214844 C 1172.265625 277.125 1187.050781 283.085938 1198.089844 293.761719 L 1206.546875 301.945312 C 1218.074219 313.078125 1224.523438 328.40625 1224.492188 344.40625 L 1223.914062 560.011719 C 1223.914062 576.46875 1237.238281 589.792969 1253.695312 589.792969 L 1488.160156 589.792969 C 1504.613281 589.792969 1517.9375 576.46875 1517.9375 560.011719 L 1517.9375 325.546875 C 1517.9375 309.09375 1504.613281 295.769531 1488.160156 295.769531 Z M 1488.160156 894.367188 L 1253.695312 894.367188 C 1237.238281 894.367188 1223.914062 907.691406 1223.914062 924.148438 L 1224.492188 1139.753906 C 1224.523438 1155.753906 1218.074219 1171.082031 1206.546875 1182.214844 L 1198.089844 1190.398438 C 1187.050781 1201.074219 1172.265625 1207.039062 1156.875 1206.945312 L 938.625 1205.910156 C 922.167969 1205.910156 908.84375 1219.234375 908.84375 1235.691406 L 908.84375 1470.15625 C 908.90625 1486.582031 922.226562 1499.902344 938.683594 1499.902344 L 1173.148438 1499.902344 C 1189.605469 1499.902344 1202.925781 1486.582031 1202.925781 1470.125 L 1202.347656 1255.523438 C 1202.320312 1238.945312 1209.253906 1223.128906 1221.484375 1211.933594 L 1229.207031 1204.878906 C 1239.976562 1195.023438 1254.03125 1189.515625 1268.628906 1189.457031 L 1488.160156 1188.390625 C 1504.613281 1188.390625 1517.9375 1175.066406 1517.9375 1158.613281 L 1517.9375 924.148438 C 1517.9375 907.691406 1504.613281 894.367188 1488.160156 894.367188 Z M 576.402344 1205.910156 L 358.152344 1206.945312 C 342.761719 1207.039062 327.980469 1201.074219 316.9375 1190.398438 L 308.480469 1182.214844 C 296.953125 1171.082031 290.503906 1155.753906 290.535156 1139.753906 L 291.113281 924.148438 C 291.113281 907.691406 277.789062 894.367188 261.332031 894.367188 L 26.871094 894.367188 C 10.414062 894.367188 -2.910156 907.691406 -2.910156 924.148438 L -2.910156 1158.613281 C -2.910156 1175.066406 10.414062 1188.390625 26.871094 1188.390625 L 246.398438 1189.457031 C 260.996094 1189.515625 275.050781 1195.023438 285.820312 1204.878906 L 293.546875 1211.933594 C 305.773438 1223.128906 312.707031 1238.945312 312.679688 1255.523438 L 312.101562 1470.125 C 312.101562 1486.582031 325.421875 1499.902344 341.878906 1499.902344 L 576.34375 1499.902344 C 592.800781 1499.902344 606.121094 1486.582031 606.183594 1470.15625 L 606.183594 1235.691406 C 606.183594 1219.234375 592.859375 1205.910156 576.402344 1205.910156 Z M 597.210938 575.890625 L 589.484375 582.949219 C 578.714844 592.804688 564.664062 598.308594 550.0625 598.371094 L 330.535156 599.433594 C 314.078125 599.433594 300.753906 612.757812 300.753906 629.214844 L 300.753906 863.675781 C 300.753906 880.132812 314.078125 893.457031 330.535156 893.457031 L 564.996094 893.457031 C 581.453125 893.457031 594.777344 880.132812 594.777344 863.675781 L 594.199219 648.074219 C 594.167969 632.074219 600.617188 616.742188 612.144531 605.609375 L 620.601562 597.425781 C 631.644531 586.75 646.425781 580.789062 661.816406 580.878906 L 880.070312 581.914062 C 896.523438 581.914062 909.847656 568.589844 909.847656 552.132812 L 909.847656 317.671875 C 909.789062 301.246094 896.433594 287.921875 880.007812 287.921875 L 645.542969 287.921875 C 629.089844 287.921875 615.765625 301.246094 615.765625 317.699219 L 616.34375 532.300781 C 616.375 548.878906 609.4375 564.695312 597.210938 575.890625 Z M 915.78125 909.242188 L 924.234375 901.0625 C 935.277344 890.382812 950.0625 884.421875 965.453125 884.511719 L 1183.703125 885.546875 C 1200.160156 885.546875 1213.484375 872.222656 1213.484375 855.769531 L 1213.484375 621.304688 C 1213.421875 604.910156 1200.097656 591.554688 1183.640625 591.554688 L 949.179688 591.554688 C 932.722656 591.554688 919.398438 604.878906 919.398438 621.335938 L 919.976562 835.933594 C 920.007812 852.511719 913.074219 868.332031 900.84375 879.523438 L 893.117188 886.582031 C 882.351562 896.4375 868.296875 901.941406 853.695312 902.003906 L 634.167969 903.070312 C 617.710938 903.070312 604.390625 916.390625 604.390625 932.847656 L 604.390625 1167.3125 C 604.390625 1183.765625 617.710938 1197.089844 634.167969 1197.089844 L 868.632812 1197.089844 C 885.085938 1197.089844 898.410156 1183.765625 898.410156 1167.3125 L 897.832031 951.707031 C 897.800781 935.707031 904.25 920.375 915.78125 909.242188 Z M 915.78125 909.242188 " fill-opacity="1" fill-rule="nonzero"/></g></g></g></g><g transform="matrix(1, 0, 0, 1, 80, 391)"><g clip-path="url(#15067c2217)"><g fill="#353a39" fill-opacity="1"><g transform="translate(0.734853, 594.588994)"><g><path d="M 40.9375 0 L 40.9375 -584.75 L 414.59375 -584.75 L 414.59375 -488.84375 C 401.332031 -502.882812 384.273438 -516.53125 363.421875 -529.78125 C 342.566406 -543.039062 316.445312 -554.054688 285.0625 -562.828125 C 253.6875 -571.597656 215.582031 -575.984375 170.75 -575.984375 L 125.71875 -575.984375 L 125.71875 -300.5625 L 198.234375 -300.5625 C 232.921875 -300.5625 262.253906 -304.945312 286.234375 -313.71875 C 310.210938 -322.488281 326.296875 -336.035156 334.484375 -354.359375 L 334.484375 -238 C 326.296875 -256.3125 310.210938 -269.851562 286.234375 -278.625 C 262.253906 -287.40625 232.921875 -291.796875 198.234375 -291.796875 L 125.71875 -291.796875 L 125.71875 0 Z M 40.9375 0 "/></g></g></g><g fill="#353a39" fill-opacity="1"><g transform="translate(441.054732, 594.588994)"><g><path d="M 40.9375 0 L 40.9375 -584.75 L 414.59375 -584.75 L 414.59375 -488.84375 C 401.332031 -502.882812 384.273438 -516.53125 363.421875 -529.78125 C 342.566406 -543.039062 316.445312 -554.054688 285.0625 -562.828125 C 253.6875 -571.597656 215.582031 -575.984375 170.75 -575.984375 L 125.71875 -575.984375 L 125.71875 -300.5625 L 198.234375 -300.5625 C 232.921875 -300.5625 262.253906 -304.945312 286.234375 -313.71875 C 310.210938 -322.488281 326.296875 -336.035156 334.484375 -354.359375 L 334.484375 -238 C 326.296875 -256.3125 310.210938 -269.851562 286.234375 -278.625 C 262.253906 -287.40625 232.921875 -291.796875 198.234375 -291.796875 L 125.71875 -291.796875 L 125.71875 0 Z M 40.9375 0 "/></g></g></g><g fill="#353a39" fill-opacity="1"><g transform="translate(881.374612, 594.588994)"><g><path d="M 269.5625 5.84375 C 229.019531 5.84375 193.347656 -2.4375 162.546875 -19 C 131.753906 -35.570312 106.023438 -58.179688 85.359375 -86.828125 C 64.703125 -115.484375 49.207031 -148.132812 38.875 -184.78125 C 28.550781 -221.425781 23.390625 -259.828125 23.390625 -299.984375 C 23.390625 -341.691406 29.429688 -380.1875 41.515625 -415.46875 C 53.597656 -450.75 71.238281 -481.546875 94.4375 -507.859375 C 117.632812 -534.171875 145.703125 -554.535156 178.640625 -568.953125 C 211.578125 -583.378906 248.707031 -590.59375 290.03125 -590.59375 C 310.300781 -590.59375 329.890625 -587.671875 348.796875 -581.828125 C 367.703125 -575.984375 384.5625 -568.378906 399.375 -559.015625 C 414.195312 -549.660156 425.113281 -539.523438 432.125 -528.609375 L 374.828125 -460.203125 C 351.828125 -487.484375 324.535156 -509.40625 292.953125 -525.96875 C 261.378906 -542.539062 229.023438 -550.828125 195.890625 -550.828125 C 169.378906 -550.828125 146.671875 -542.640625 127.765625 -526.265625 C 108.859375 -509.898438 94.429688 -487.390625 84.484375 -458.734375 C 74.546875 -430.078125 69.578125 -397.039062 69.578125 -359.625 C 69.578125 -322.582031 73.960938 -287.300781 82.734375 -253.78125 C 91.515625 -220.257812 104.675781 -190.535156 122.21875 -164.609375 C 139.757812 -138.679688 161.296875 -118.210938 186.828125 -103.203125 C 212.359375 -88.203125 241.691406 -80.703125 274.828125 -80.703125 C 299.390625 -80.703125 319.953125 -83.722656 336.515625 -89.765625 C 353.085938 -95.804688 366.148438 -102.625 375.703125 -110.21875 C 385.253906 -117.820312 392.078125 -124.644531 396.171875 -130.6875 C 400.265625 -136.726562 402.3125 -139.75 402.3125 -139.75 L 449.09375 -64.90625 C 449.09375 -64.90625 445.484375 -61.296875 438.265625 -54.078125 C 431.054688 -46.867188 420.046875 -38.679688 405.234375 -29.515625 C 390.421875 -20.359375 371.707031 -12.175781 349.09375 -4.96875 C 326.488281 2.238281 299.976562 5.84375 269.5625 5.84375 Z M 269.5625 5.84375 "/></g></g></g></g></g></svg>