<svg xmlns="http://www.w3.org/2000/svg" xmlns:xlink="http://www.w3.org/1999/xlink" width="2000" zoomAndPan="magnify" viewBox="0 0 1500 1499.999933" height="2000" preserveAspectRatio="xMidYMid meet" version="1.0"><defs><filter x="0%" y="0%" width="100%" height="100%" id="2ccc1e17e1"><feColorMatrix values="0 0 0 0 1 0 0 0 0 1 0 0 0 0 1 0 0 0 1 0" color-interpolation-filters="sRGB"/></filter><mask id="28b5a89d6d"><g filter="url(#2ccc1e17e1)"><rect x="-150" width="1800" fill="#000000" y="-149.999993" height="1799.99992" fill-opacity="0.65"/></g></mask><clipPath id="9398c077c8"><path d="M 0.785156 3.347656 L 1433.21875 3.347656 L 1433.21875 1454.597656 L 0.785156 1454.597656 Z M 0.785156 3.347656 " clip-rule="nonzero"/></clipPath><clipPath id="b0f6e680ad"><rect x="0" width="1435" y="0" height="1458"/></clipPath></defs><g mask="url(#28b5a89d6d)"><g transform="matrix(1, 0, 0, 1, 33, 21)"><g clip-path="url(#b0f6e680ad)"><g clip-path="url(#9398c077c8)"><path fill="#ffb080" d="M 866.652344 1454.507812 C 774.367188 1448.957031 706.953125 1368.949219 681.875 1285.8125 C 663.878906 1226.148438 666.371094 1166.484375 669.066406 1104.890625 C 671.261719 1054.820312 677.234375 1004.761719 683.546875 955.0625 C 691.085938 895.65625 696.101562 838.085938 688.46875 778.488281 C 687.46875 770.671875 672.839844 724.140625 701.507812 735.355469 L 705.59375 736.953125 L 705.863281 735.683594 C 706.675781 731.925781 711.171875 734.019531 712.746094 731.230469 C 713.828125 729.316406 717.273438 726.15625 715.316406 725.152344 C 713.796875 724.371094 709.011719 724.925781 710.359375 723.882812 C 712.0625 722.570312 714.300781 721.453125 716.433594 721.714844 C 733.121094 723.777344 766.222656 736.507812 778.875 740.628906 C 815.832031 752.667969 853.863281 761.214844 890.882812 773.078125 C 932.949219 786.558594 972.597656 803.996094 1012.808594 821.671875 C 1113.875 866.105469 1218.089844 893.476562 1306.550781 962.054688 C 1341.269531 988.972656 1370.296875 1025.765625 1394.335938 1062.066406 C 1407.402344 1081.796875 1415.683594 1101.667969 1422.296875 1124.214844 C 1437.613281 1176.429688 1432.671875 1236.015625 1432.292969 1288.402344 C 1432.0625 1320.679688 1429.503906 1356.988281 1416.136719 1386.574219 C 1395.320312 1432.636719 1341.375 1458.535156 1292.464844 1451.109375 C 1262.804688 1446.613281 1237.0625 1426.40625 1218.601562 1403.976562 C 1195.417969 1375.804688 1179.964844 1340.785156 1163.476562 1308.609375 C 1149.679688 1281.703125 1135.96875 1254.75 1121.90625 1227.980469 C 1068.5625 1126.433594 1006.589844 1025.566406 936.414062 934.835938 C 897.890625 885.023438 856.984375 841.996094 809.699219 800.355469 C 798.429688 790.429688 767.605469 764.660156 757.3125 757.976562 C 749.140625 752.671875 739.9375 749.148438 731.109375 745.027344 C 726.945312 743.089844 722.617188 741.53125 718.359375 739.816406 C 717.390625 739.425781 714.890625 737.816406 715.433594 738.710938 C 726.386719 756.902344 750.144531 779.722656 762.09375 792.371094 C 778.796875 810.050781 796.125 827.152344 812.433594 845.203125 C 918.207031 962.292969 1019.582031 1098.703125 1055.875 1255.074219 C 1063.25 1286.832031 1068.242188 1320.496094 1057.582031 1352.214844 C 1041.257812 1400.789062 984.457031 1428.703125 939.640625 1441.984375 C 922.476562 1447.078125 888.898438 1455.84375 866.652344 1454.507812 Z M 711.472656 738.746094 C 711.390625 738.511719 711.292969 738.285156 711.183594 738.058594 C 710.871094 737.425781 710.019531 737.441406 709.429688 737.457031 C 709.054688 737.46875 708.679688 737.5 708.304688 737.546875 C 708.191406 737.5625 708.074219 737.59375 707.964844 737.644531 C 707.914062 737.667969 707.835938 737.707031 707.84375 737.765625 C 707.851562 737.847656 707.941406 737.902344 708.007812 737.957031 C 708.144531 738.078125 708.289062 738.183594 708.4375 738.285156 C 709.46875 738.972656 710.019531 739.300781 711.113281 739.878906 C 711.265625 739.957031 711.425781 740.03125 711.589844 740.09375 C 711.664062 740.117188 711.789062 740.203125 711.820312 740.128906 C 711.875 739.992188 711.796875 739.832031 711.761719 739.6875 C 711.679688 739.371094 711.578125 739.058594 711.472656 738.75 Z M 134.847656 1436.34375 C 118.171875 1435.464844 99.941406 1431.792969 84.441406 1425.398438 C 36.1875 1405.492188 16.015625 1357.601562 14.210938 1308.40625 C 12.253906 1255.074219 18.21875 1205.96875 46.207031 1159.152344 C 79.585938 1103.316406 129.652344 1064.550781 183.222656 1029.867188 C 270.582031 973.304688 369.960938 938.542969 463.085938 892.917969 C 505.953125 871.917969 548.53125 848.554688 586.03125 818.710938 C 608.980469 800.453125 633.433594 778.378906 644.445312 750.273438 C 644.769531 749.445312 642.828125 751.015625 642.039062 751.433594 C 636.875 754.175781 631.890625 757.273438 626.59375 759.742188 C 616.660156 764.367188 606.476562 768.433594 596.382812 772.691406 C 551.449219 791.644531 509.070312 814.320312 465.332031 835.964844 C 436.308594 850.328125 406.957031 864.042969 377.710938 877.941406 C 345.484375 893.253906 312.800781 908.824219 277.914062 917.054688 C 194.9375 936.632812 84.261719 919.542969 31.484375 845.589844 C 21.183594 831.15625 12.625 813.03125 7.835938 796.042969 C 4.917969 785.703125 2.699219 775.097656 1.691406 764.402344 C 0.582031 752.617188 0.460938 740.679688 1.5 728.886719 C 7.300781 663.191406 66.707031 633.777344 124.433594 620.75 C 185.871094 606.878906 247.359375 623.554688 305.703125 641.3125 C 341.617188 652.238281 395.289062 673.035156 421.238281 682.761719 C 450.507812 693.730469 478.078125 707.757812 507.773438 718.132812 C 541.59375 729.953125 566.972656 730.183594 600.625 718.34375 C 613.691406 713.746094 629.929688 702.222656 629.859375 686.691406 C 629.835938 681.8125 621.355469 681.605469 616.613281 680.445312 C 600 676.390625 600.15625 676.714844 583.066406 675.980469 C 521.992188 673.339844 464.496094 660.589844 408.089844 636.640625 C 372.035156 621.328125 331.644531 600.136719 299.320312 580.855469 C 266.566406 561.316406 234.210938 538.40625 205.835938 512.683594 C 178.296875 487.722656 148.980469 456.414062 125.652344 427.566406 C 96.863281 391.972656 70.289062 354.703125 49.148438 314.0625 C 42.742188 301.742188 35.53125 289.660156 31.1875 276.472656 C 15.144531 227.726562 13.824219 227.121094 6.402344 164.671875 C 2.445312 131.410156 10.027344 89.1875 27.699219 59.535156 C 49.949219 22.203125 100.335938 -4.285156 143.644531 5.332031 C 160.9375 9.175781 180.042969 19.339844 194.9375 27.433594 C 203.699219 32.191406 222.851562 43.023438 231.269531 51.714844 C 250.0625 71.109375 262.195312 96.671875 271.078125 122.007812 C 290.691406 177.960938 301.738281 239.570312 327.335938 293.066406 C 342.640625 325.042969 352.605469 347.050781 370.417969 376.710938 C 389.007812 407.667969 423.414062 448.394531 442.527344 470.449219 C 480.910156 514.75 524.625 553.863281 572.910156 587.074219 C 594.203125 601.722656 619.644531 613.609375 642.71875 624.746094 C 648.253906 627.417969 682.421875 642.875 685.5625 643.964844 C 686.238281 644.203125 686.210938 642.621094 686.164062 641.90625 C 685.695312 634.664062 685.804688 627.273438 684.019531 620.242188 C 680.195312 605.171875 673.140625 589.089844 664.242188 576.042969 C 636.546875 535.4375 587.914062 503.195312 550.859375 471.800781 C 526.457031 451.128906 501.875 430.648438 477.988281 409.375 C 464.402344 397.273438 443.628906 374.351562 433.078125 360.226562 C 421.445312 344.652344 410.382812 328.644531 399.933594 312.253906 C 387.851562 293.308594 376.554688 273.859375 365.515625 254.28125 C 336.046875 202.03125 318.796875 142.714844 333.714844 83.015625 C 339.964844 58.003906 354.242188 34.835938 377.28125 22.40625 C 436.847656 -9.738281 498.328125 40.289062 528.855469 89.320312 C 537.402344 103.046875 550.835938 132.8125 555.96875 143.644531 C 576.023438 185.960938 593.03125 229.363281 609.25 273.269531 C 624.851562 315.5 639.070312 358.089844 653.753906 400.644531 C 666.816406 438.503906 678.535156 469.253906 689.0625 509.253906 C 695.839844 535 701.570312 561.035156 706.394531 587.21875 C 709.339844 603.1875 700.804688 624.136719 712.335938 635.570312 C 716.226562 639.429688 728.722656 591.832031 729.621094 586.398438 C 735.765625 549.242188 727.175781 510.101562 720.886719 473.59375 C 715.386719 441.625 709.839844 409.667969 703.898438 377.78125 C 699.71875 355.339844 694.464844 333.105469 690.519531 310.625 C 687.652344 294.304688 684.660156 277.949219 683.472656 261.429688 C 678.992188 198.832031 686.128906 117.855469 745.875 81.519531 C 753.53125 76.863281 761.785156 73.136719 770.222656 70.113281 C 790.617188 62.804688 812.527344 60.53125 834.019531 63.222656 C 895.144531 70.878906 918.457031 145.566406 924.042969 197.332031 C 925.660156 212.34375 925.425781 227.566406 924.40625 242.632812 C 920.800781 296.007812 903.535156 348.421875 883.378906 397.582031 C 844.878906 491.503906 797.410156 578.742188 729.914062 655.160156 L 728.863281 656.351562 L 730.496094 655.398438 C 755.777344 640.628906 778.480469 618.152344 800.511719 599.261719 C 813.917969 587.765625 827.898438 576.894531 840.589844 564.617188 C 886.09375 520.578125 923.804688 462.902344 951.464844 406.578125 C 994.894531 318.140625 1019.511719 212.875 1093.03125 142.636719 C 1125.929688 111.207031 1169.804688 87.242188 1209.792969 67.054688 C 1245.175781 49.195312 1283.9375 30.925781 1323.898438 26.402344 C 1367.929688 21.421875 1419.945312 45.46875 1424.140625 95.265625 C 1425.996094 117.304688 1423.535156 141.601562 1418.347656 163.214844 C 1412.292969 188.457031 1402.398438 208.230469 1389.65625 231.664062 C 1369.199219 269.28125 1345.726562 307.804688 1317.632812 340.484375 C 1289.34375 373.398438 1256.085938 402.0625 1222.066406 428.835938 C 1129.0625 502.03125 1026.085938 556.546875 920.335938 608.652344 C 880.414062 628.320312 840.140625 646.449219 798.75 662.816406 C 780.269531 670.125 755.695312 681.519531 735.089844 686.003906 C 728.226562 687.496094 721.785156 679.882812 725.203125 673.324219 C 727.226562 669.429688 730.316406 666.191406 732.9375 662.671875 C 733.375 662.082031 735.109375 660.96875 734.375 661 C 729.117188 661.214844 724.289062 664.242188 719.054688 664.777344 C 713.667969 665.332031 712.402344 661.753906 709.191406 658.585938 C 707.292969 656.710938 703.636719 658.125 701.429688 656.628906 C 695.386719 652.542969 695.277344 645.035156 691.894531 639.34375 C 690.921875 637.707031 690.847656 643.007812 690.230469 644.8125 C 689.207031 647.816406 684.296875 658.648438 682.671875 660.320312 C 670.753906 672.5625 648.523438 670.996094 632.511719 673.285156 L 630.472656 673.574219 L 634.035156 675.925781 C 639.265625 679.375 645.445312 686.425781 648.476562 691.640625 C 649.070312 692.65625 650 695.183594 648.820312 695.152344 C 641.714844 694.984375 636.222656 684.460938 635.160156 693.027344 C 634.757812 696.277344 632.332031 699.808594 633.757812 702.757812 C 634.691406 704.6875 638.027344 703.164062 640.160156 703.371094 C 648.519531 704.191406 652.464844 703.15625 658.804688 710.445312 C 663.105469 715.390625 664.621094 721.828125 662.988281 728.027344 C 662.007812 731.75 657.464844 734.710938 658.125 738.503906 C 658.484375 740.566406 662.261719 737.675781 664.359375 737.710938 C 666.101562 737.742188 667.914062 737.785156 669.546875 738.398438 C 673.78125 739.992188 676.253906 744.71875 677.714844 748.53125 C 692.476562 787.085938 665.921875 835.96875 649.894531 870.097656 C 644.132812 882.363281 638.089844 894.492188 632.167969 906.679688 C 619.273438 933.226562 606.292969 959.726562 593.4375 986.292969 C 567.871094 1039.132812 548.929688 1095.019531 523.515625 1147.960938 C 507.398438 1181.535156 482.140625 1218.132812 459.996094 1247.371094 C 437.097656 1277.613281 409.835938 1310.804688 380.816406 1335.949219 C 349.59375 1363.003906 313.492188 1385.386719 276.371094 1403.355469 C 232.203125 1424.734375 184.316406 1438.949219 134.847656 1436.34375 Z M 1181.011719 823.953125 C 1119.636719 821.855469 1060.769531 799.53125 1002.234375 783.203125 C 930.667969 763.238281 858.113281 743.695312 786.019531 725.78125 C 744.992188 715.589844 744.4375 719.203125 703.152344 709.652344 C 700.542969 709.046875 696.355469 708.34375 696.164062 705.671875 C 695.988281 703.199219 700.175781 702.457031 702.601562 701.960938 C 720.027344 698.414062 720.078125 701.808594 737.234375 698.746094 C 793.796875 688.640625 850.578125 683.46875 905.796875 666.589844 C 997.648438 638.515625 1081.386719 594.28125 1169.570312 556.863281 C 1219.472656 535.6875 1279.554688 508.90625 1336.148438 514.582031 C 1351.21875 516.09375 1365.773438 518.039062 1378.796875 525.734375 C 1391.84375 533.4375 1394.117188 540.746094 1402.90625 555.578125 C 1427.410156 596.925781 1436.1875 647.269531 1417.515625 693.164062 C 1404.96875 723.992188 1379.785156 749.289062 1353.535156 768.875 C 1304.199219 805.6875 1242.457031 826.058594 1181.011719 823.953125 Z M 751.929688 700.308594 C 751.984375 700.292969 752.113281 700.226562 752.0625 700.199219 C 751.945312 700.125 751.789062 700.140625 751.652344 700.140625 C 750.925781 700.144531 750.203125 700.160156 749.480469 700.203125 C 749.195312 700.21875 746.613281 700.375 745.839844 700.566406 C 745.789062 700.578125 745.914062 700.644531 745.964844 700.652344 C 746.144531 700.6875 746.328125 700.691406 746.511719 700.691406 C 747.132812 700.699219 747.757812 700.691406 748.386719 700.667969 C 748.859375 700.644531 751.242188 700.527344 751.929688 700.308594 Z M 751.929688 700.308594 " fill-opacity="1" fill-rule="nonzero"/></g><path fill="#c3e4ff" d="M 684.308594 775.011719 C 670.90625 773.351562 658.277344 768.820312 648.136719 762.035156 C 632.988281 751.90625 620.925781 734.085938 617.316406 716.507812 C 616.117188 710.675781 615.859375 702.566406 616.691406 696.644531 C 618.902344 680.898438 628.378906 661.15625 639.171875 649.808594 C 650.75 637.628906 667.5 628.242188 682.035156 625.785156 C 687.890625 624.792969 698.59375 625.160156 705.34375 626.585938 C 718.554688 629.371094 732.164062 636.019531 741.628906 644.300781 C 749.964844 651.601562 757.539062 662.753906 760.816406 672.558594 C 763.089844 679.367188 763.660156 683.40625 763.664062 692.769531 C 763.667969 702.121094 763.171875 706.519531 761.253906 714 C 752.878906 746.703125 733.085938 768.53125 706.761719 774.09375 C 701.4375 775.214844 689.800781 775.695312 684.308594 775.011719 Z M 684.308594 775.011719 " fill-opacity="1" fill-rule="nonzero"/></g></g></g></svg>