<svg xmlns="http://www.w3.org/2000/svg" xmlns:xlink="http://www.w3.org/1999/xlink" width="2000" zoomAndPan="magnify" viewBox="0 0 1500 1499.999933" height="2000" preserveAspectRatio="xMidYMid meet" version="1.0"><defs><filter x="0%" y="0%" width="100%" height="100%" id="29245a18df"><feColorMatrix values="0 0 0 0 1 0 0 0 0 1 0 0 0 0 1 0 0 0 1 0" color-interpolation-filters="sRGB"/></filter><mask id="8dbcdfca9d"><g filter="url(#29245a18df)"><rect x="-150" width="1800" fill="#000000" y="-149.999993" height="1799.99992" fill-opacity="0.4"/></g></mask><clipPath id="d29d520cab"><path d="M 0 1293 L 236 1293 L 236 1500 L 0 1500 Z M 0 1293 " clip-rule="nonzero"/></clipPath><clipPath id="749a84d97f"><rect x="0" width="1059" y="0" height="1500"/></clipPath></defs><g mask="url(#8dbcdfca9d)"><g transform="matrix(1, 0, 0, 1, 0, 0.000000000000112861)"><g clip-path="url(#749a84d97f)"><path fill="#c3e4ff" d="M 257.828125 239.980469 C 256.269531 237.664062 254.414062 235.617188 252.261719 233.835938 C 250.109375 232.054688 247.746094 230.617188 245.179688 229.519531 C 232.289062 224.035156 216.914062 227.601562 205.195312 234.316406 C 203.066406 235.527344 201.054688 236.910156 199.164062 238.460938 C 197.269531 240.011719 195.519531 241.710938 193.917969 243.558594 C 192.3125 245.40625 190.871094 247.375 189.601562 249.46875 C 188.328125 251.558594 187.242188 253.742188 186.339844 256.015625 C 185.550781 257.980469 184.972656 260.003906 184.597656 262.085938 C 184.21875 264.167969 184.058594 266.269531 184.109375 268.382812 C 184.160156 270.5 184.425781 272.585938 184.902344 274.648438 C 185.378906 276.710938 186.058594 278.703125 186.9375 280.625 C 187.8125 282.4375 188.875 284.128906 190.132812 285.695312 C 191.390625 287.265625 192.8125 288.671875 194.390625 289.914062 C 195.96875 291.160156 197.667969 292.207031 199.488281 293.0625 C 201.304688 293.921875 203.199219 294.558594 205.164062 294.984375 C 209.074219 295.75 213.023438 296.042969 217.007812 295.863281 C 220.988281 295.6875 224.894531 295.042969 228.722656 293.933594 C 245.210938 289.679688 261.695312 279.699219 263.433594 260.964844 C 263.730469 257.25 263.398438 253.589844 262.4375 249.988281 C 261.476562 246.390625 259.941406 243.050781 257.828125 239.980469 Z M 257.828125 239.980469 " fill-opacity="1" fill-rule="nonzero"/><path fill="#ffb080" d="M 192.15625 116.753906 C 185.5 105.335938 178.695312 94.003906 172.820312 82.164062 C 166.804688 69.679688 161.441406 56.917969 156.722656 43.886719 C 152.558594 32.675781 147.550781 21.164062 137.898438 13.523438 C 135.773438 11.773438 133.457031 10.328125 130.953125 9.183594 C 128.449219 8.039062 125.835938 7.238281 123.121094 6.777344 C 120.160156 6.460938 117.207031 6.511719 114.261719 6.933594 C 111.3125 7.355469 108.460938 8.132812 105.707031 9.265625 C 99.890625 11.394531 94.378906 14.210938 88.472656 16.070312 C 82.355469 17.957031 76.113281 18.613281 69.738281 18.046875 C 63.28125 17.488281 57.1875 15.699219 51.453125 12.683594 C 46.179688 9.925781 41.5 6.089844 35.898438 3.960938 C 25.523438 0.0351562 15.152344 5.398438 9.488281 14.210938 C 2.59375 24.671875 3.914062 37.710938 7.660156 49.101562 C 11.886719 61.929688 18.632812 73.800781 23.128906 86.539062 C 25.386719 92.835938 26.832031 99.308594 27.472656 105.964844 C 27.910156 112.335938 27.320312 118.609375 25.707031 124.789062 C 23.128906 135.550781 18.632812 148.527344 26.246094 158.328125 C 30.136719 162.726562 34.804688 166.035156 40.242188 168.25 C 45.761719 170.777344 51.414062 172.945312 57.207031 174.757812 C 68.777344 178.53125 80.558594 182.101562 90.390625 189.535156 C 100.222656 196.96875 107.296875 206.378906 115.75 214.742188 C 119.71875 218.875 124.128906 222.460938 128.980469 225.503906 C 133.835938 228.546875 138.988281 230.957031 144.433594 232.726562 C 158.972656 237.132812 176.238281 237.253906 190.054688 229.730469 C 206.8125 220.738281 214.035156 201.195312 214.753906 183.027344 C 215.65625 158.960938 203.964844 136.929688 192.15625 116.753906 Z M 192.15625 116.753906 " fill-opacity="1" fill-rule="nonzero"/><path fill="#ffb080" d="M 345.683594 34.414062 C 345.464844 29.9375 344.226562 25.757812 341.96875 21.886719 C 340.78125 19.886719 339.417969 18.019531 337.878906 16.28125 C 336.335938 14.539062 334.648438 12.960938 332.808594 11.542969 C 330.96875 10.125 329.011719 8.890625 326.9375 7.839844 C 324.863281 6.792969 322.710938 5.949219 320.476562 5.308594 C 310.042969 2.3125 298.984375 4.769531 288.882812 7.886719 C 277.671875 11.363281 266.761719 15.652344 254.953125 16.28125 C 242.226562 16.5 229.777344 14.761719 217.601562 11.0625 C 211.609375 9.414062 205.613281 7.585938 199.617188 5.847656 C 193.789062 3.855469 187.792969 2.917969 181.632812 3.03125 C 172.640625 3.601562 162.628906 9.625 162.300781 19.546875 C 162.089844 25.273438 165.296875 30.9375 167.515625 36.0625 C 169.734375 41.1875 172.492188 47.09375 175.097656 52.519531 C 180.433594 63.53125 186.160156 74.3125 192.273438 84.863281 C 198.269531 95.171875 204.714844 105.214844 211.339844 115.136719 C 217.574219 124.519531 223.925781 134.199219 227.136719 145.109375 C 230.882812 157.851562 227.882812 170.351562 226.535156 183.207031 C 225.605469 189.667969 226.046875 196.03125 227.855469 202.304688 C 233.308594 218.667969 250.425781 219.117188 264.753906 215.523438 C 270.035156 214.011719 275.09375 211.949219 279.925781 209.332031 C 284.757812 206.71875 289.253906 203.617188 293.410156 200.023438 C 310.105469 186.535156 326.382812 169.449219 331.835938 148.109375 C 337.292969 126.765625 332.675781 103.984375 333.753906 82.164062 C 333.976562 76.546875 334.726562 71.003906 336.003906 65.527344 C 337.546875 60.03125 339.542969 54.707031 341.996094 49.550781 C 344.394531 44.789062 345.625 39.746094 345.683594 34.414062 Z M 345.683594 34.414062 " fill-opacity="1" fill-rule="nonzero"/><path fill="#ffb080" d="M 164.757812 256.828125 C 163.738281 256.136719 162.628906 255.449219 161.429688 254.789062 C 144.855469 245.796875 124.203125 246.816406 109.84375 233.238281 C 102.859375 226.613281 97.015625 218.9375 90.570312 211.835938 C 83.648438 204.167969 75.835938 197.554688 67.128906 191.992188 C 62.851562 188.988281 58.285156 186.511719 53.4375 184.558594 C 48.585938 182.601562 43.582031 181.222656 38.414062 180.421875 C 37.261719 180.273438 36.101562 180.207031 34.9375 180.214844 C 33.773438 180.222656 32.617188 180.308594 31.464844 180.46875 C 30.3125 180.632812 29.175781 180.871094 28.054688 181.183594 C 26.9375 181.496094 25.839844 181.882812 24.773438 182.34375 C 23.703125 182.800781 22.667969 183.328125 21.671875 183.925781 C 20.671875 184.523438 19.714844 185.183594 18.804688 185.90625 C 17.894531 186.628906 17.035156 187.410156 16.230469 188.25 C 15.421875 189.085938 14.675781 189.976562 13.984375 190.914062 C 7.988281 199.273438 6.582031 209.976562 7.359375 220.078125 C 8.601562 231.515625 10.4375 242.855469 12.875 254.097656 C 15.003906 265.550781 17.132812 277 18.480469 288.601562 C 19.910156 300.007812 20.117188 311.4375 19.109375 322.890625 C 18.5625 328.636719 17.5625 334.300781 16.113281 339.886719 C 14.539062 345.167969 13.34375 350.535156 12.515625 355.984375 C 11.585938 364.527344 13.835938 374.628906 21.777344 379.304688 C 29.722656 383.980469 39.761719 380.953125 46.867188 375.945312 C 55.351562 369.949219 60.984375 360.6875 69.4375 354.574219 C 77.421875 349.273438 86.113281 345.707031 95.515625 343.875 C 104.898438 341.65625 114.460938 340.125 123.664062 337.25 C 132.320312 334.609375 140.222656 330.511719 147.371094 324.960938 C 160.320312 314.828125 168.953125 299.332031 173.359375 283.652344 C 176.207031 272.953125 174.347656 263.269531 164.757812 256.828125 Z M 164.757812 256.828125 " fill-opacity="1" fill-rule="nonzero"/><path fill="#ffb080" d="M 220.449219 320.074219 C 208.671875 306.675781 183.492188 293.695312 171.683594 313.148438 C 169.441406 317.433594 167.621094 321.890625 166.226562 326.519531 C 164.566406 331.125 162.066406 335.222656 158.734375 338.808594 C 155.289062 342.164062 151.492188 345.054688 147.347656 347.488281 C 143.199219 349.921875 138.820312 351.824219 134.214844 353.195312 C 123.632812 356.792969 112.542969 358.742188 102.019531 362.457031 C 97.273438 364.09375 92.734375 366.1875 88.410156 368.742188 C 84.085938 371.296875 80.058594 374.257812 76.332031 377.625 C 61.972656 390.664062 52.113281 408.230469 43.179688 425.222656 C 39.34375 432.539062 35.476562 441.800781 37.695312 450.222656 C 37.960938 451.253906 38.335938 452.246094 38.816406 453.199219 C 39.292969 454.152344 39.867188 455.042969 40.539062 455.871094 C 41.207031 456.703125 41.957031 457.453125 42.785156 458.121094 C 43.617188 458.789062 44.507812 459.367188 45.457031 459.84375 C 49.828125 461.730469 54.382812 462.492188 59.125 462.125 C 70.066406 461.824219 80.949219 460.203125 91.917969 460.65625 C 97.382812 460.785156 102.730469 461.65625 107.957031 463.261719 C 112.882812 464.949219 117.429688 467.355469 121.59375 470.484375 C 129.539062 476.300781 136.582031 483.644531 145.574219 487.839844 C 147.839844 488.886719 150.183594 489.707031 152.605469 490.300781 C 155.03125 490.890625 157.488281 491.242188 159.980469 491.355469 C 162.476562 491.46875 164.953125 491.339844 167.421875 490.972656 C 169.890625 490.601562 172.300781 490 174.648438 489.160156 C 176.929688 488.242188 179.121094 487.152344 181.226562 485.886719 C 183.335938 484.625 185.328125 483.199219 187.210938 481.621094 C 189.089844 480.039062 190.835938 478.320312 192.445312 476.464844 C 194.050781 474.605469 195.503906 472.632812 196.800781 470.546875 C 202.652344 461.472656 207.976562 452.101562 212.777344 442.429688 C 223.238281 422.707031 232.679688 401.902344 235.257812 379.484375 C 237.445312 360.359375 234.660156 338.835938 222.820312 322.832031 C 221.980469 321.960938 221.261719 320.972656 220.449219 320.074219 Z M 220.449219 320.074219 " fill-opacity="1" fill-rule="nonzero"/><path fill="#ffb080" d="M 429.824219 359.101562 C 422.871094 350.109375 411.839844 345.582031 401.316406 342.945312 C 388.636719 339.945312 375.390625 339.378906 362.859375 335.511719 C 351.257812 331.441406 340.496094 325.777344 330.578125 318.515625 C 306.207031 302.148438 267.628906 278.707031 240.265625 303.109375 C 239.667969 303.597656 239.117188 304.140625 238.613281 304.726562 C 238.113281 305.316406 237.667969 305.945312 237.277344 306.613281 C 236.882812 307.28125 236.554688 307.976562 236.289062 308.703125 C 236.019531 309.429688 235.816406 310.171875 235.683594 310.933594 C 235.546875 311.695312 235.476562 312.464844 235.476562 313.238281 C 235.476562 314.011719 235.542969 314.777344 235.679688 315.539062 C 235.8125 316.300781 236.015625 317.046875 236.28125 317.773438 C 236.546875 318.5 236.875 319.195312 237.265625 319.863281 C 239.695312 325.109375 243.261719 329.636719 245.777344 334.851562 C 256.03125 357.570312 250.09375 383.769531 241.941406 406.128906 C 237.386719 418.628906 231.992188 430.800781 227.675781 443.390625 C 224.675781 452.382812 221.109375 463.113281 225.15625 472.316406 C 225.601562 473.347656 226.160156 474.3125 226.839844 475.210938 C 227.519531 476.109375 228.296875 476.910156 229.171875 477.617188 C 230.046875 478.328125 230.996094 478.917969 232.011719 479.394531 C 233.03125 479.871094 234.09375 480.21875 235.199219 480.4375 C 238.027344 480.726562 240.824219 480.546875 243.589844 479.898438 C 246.359375 479.25 248.945312 478.171875 251.355469 476.660156 C 257.019531 473.664062 262.355469 470.1875 268.109375 467.367188 C 273.839844 464.457031 279.835938 462.269531 286.09375 460.804688 C 292.296875 459.328125 298.511719 459.269531 304.738281 460.625 C 310.558594 462.402344 316.214844 464.601562 321.703125 467.21875 C 324.222656 468.328125 326.84375 469.066406 329.570312 469.433594 C 332.296875 469.800781 335.019531 469.78125 337.742188 469.378906 C 340.082031 468.875 342.316406 468.074219 344.445312 466.980469 C 346.574219 465.890625 348.527344 464.539062 350.300781 462.933594 C 358.214844 456.070312 362.710938 446.417969 366.667969 436.945312 C 370.625 427.472656 374.609375 417.339844 382.492188 410.507812 C 390.378906 403.671875 401.4375 403.101562 411.507812 401.515625 C 420.949219 399.957031 430.601562 396.390625 434.558594 386.886719 C 434.976562 385.730469 435.316406 384.550781 435.582031 383.351562 C 435.84375 382.148438 436.03125 380.9375 436.140625 379.710938 C 436.25 378.488281 436.277344 377.261719 436.226562 376.03125 C 436.179688 374.804688 436.050781 373.582031 435.84375 372.371094 C 435.636719 371.160156 435.355469 369.964844 434.992188 368.789062 C 434.632812 367.613281 434.199219 366.464844 433.691406 365.347656 C 433.183594 364.226562 432.605469 363.144531 431.957031 362.097656 C 431.3125 361.054688 430.597656 360.054688 429.824219 359.101562 Z M 429.824219 359.101562 " fill-opacity="1" fill-rule="nonzero"/><path fill="#ffb080" d="M 449.695312 157.101562 C 456.464844 142.777344 461.460938 127.859375 464.683594 112.347656 C 467.863281 96.820312 470.050781 80.1875 467.679688 64.390625 C 467.433594 62.832031 467.125 61.289062 466.753906 59.757812 C 466.382812 58.226562 465.949219 56.710938 465.457031 55.214844 C 464.964844 53.714844 464.414062 52.242188 463.800781 50.789062 C 463.191406 49.335938 462.523438 47.910156 461.796875 46.507812 C 461.070312 45.109375 460.292969 43.742188 459.457031 42.40625 C 458.621094 41.066406 457.734375 39.765625 456.796875 38.5 C 455.855469 37.234375 454.867188 36.007812 453.832031 34.824219 C 452.792969 33.636719 451.710938 32.492188 450.582031 31.394531 C 449.453125 30.292969 448.28125 29.242188 447.066406 28.234375 C 445.851562 27.230469 444.601562 26.273438 443.3125 25.367188 C 442.019531 24.464844 440.695312 23.609375 439.339844 22.8125 C 437.980469 22.011719 436.589844 21.269531 435.171875 20.582031 C 433.753906 19.890625 432.3125 19.261719 430.84375 18.691406 C 429.375 18.117188 427.886719 17.605469 426.375 17.152344 C 424.867188 16.699219 423.339844 16.308594 421.800781 15.976562 C 420.257812 15.644531 418.707031 15.378906 417.144531 15.171875 C 413.570312 14.722656 409.996094 14.703125 406.417969 15.113281 C 402.839844 15.523438 399.359375 16.351562 395.980469 17.597656 C 392.953125 18.824219 390.136719 20.417969 387.527344 22.382812 C 384.921875 24.351562 382.613281 26.625 380.605469 29.199219 C 371.3125 40.800781 368.433594 55.515625 366.457031 69.875 C 364.558594 85.160156 361.558594 100.226562 357.464844 115.078125 C 353.261719 129.726562 347.828125 143.90625 341.160156 157.609375 C 334.679688 171.171875 327.035156 184.039062 318.226562 196.21875 C 314.039062 202.328125 308.933594 207.546875 302.910156 211.863281 C 297.59375 214.910156 292.117188 217.636719 286.484375 220.046875 C 276.625 225.144531 274.496094 228.109375 276.742188 239.230469 C 278.542969 247.953125 276.742188 257.574219 281.03125 265.398438 C 286.335938 275.171875 298.503906 278.378906 308.335938 281.375 C 329.796875 287.941406 338.582031 306.585938 357.015625 316.984375 C 367.175781 322.679688 378.625 320.734375 389.65625 321.78125 C 407.820312 323.492188 429.222656 336.167969 446.609375 327.175781 C 447.90625 326.539062 449.121094 325.769531 450.25 324.867188 C 451.382812 323.964844 452.402344 322.953125 453.3125 321.832031 C 454.222656 320.707031 455.003906 319.5 455.652344 318.207031 C 456.300781 316.917969 456.804688 315.570312 457.160156 314.167969 C 462.496094 292.316406 443.074219 268.546875 437.109375 248.222656 C 434.816406 240.863281 433.285156 233.347656 432.507812 225.675781 C 431.730469 218.003906 431.726562 210.335938 432.492188 202.664062 C 434.710938 186.175781 442.652344 172.089844 449.695312 157.101562 Z M 449.695312 157.101562 " fill-opacity="1" fill-rule="nonzero"/><path fill="#c3e4ff" d="M 815.957031 191.363281 C 813.507812 189.296875 810.917969 187.429688 808.179688 185.765625 C 805.445312 184.101562 802.59375 182.660156 799.636719 181.433594 C 796.675781 180.210938 793.636719 179.222656 790.523438 178.472656 C 787.410156 177.71875 784.257812 177.207031 781.066406 176.945312 C 754.480469 175.265625 718.390625 180.542969 699.234375 200.925781 C 691.980469 208.597656 688.355469 220.707031 693.839844 230.390625 C 700.496094 242.140625 714.824219 243.277344 726.8125 244.355469 C 748.617188 246.457031 770.289062 245.507812 791.828125 241.507812 C 815.359375 236.921875 839.488281 212.644531 815.957031 191.363281 Z M 815.957031 191.363281 " fill-opacity="1" fill-rule="nonzero"/><path fill="#ffb080" d="M 839.9375 13.671875 C 834.601562 7.378906 826.207031 5.21875 818.265625 4.890625 C 808.855469 4.804688 799.535156 5.664062 790.300781 7.46875 C 770.277344 10.644531 750.222656 15.109375 729.871094 12.113281 C 720.667969 10.734375 711.464844 8.457031 702.113281 8.425781 C 694.140625 8.425781 683.859375 10.195312 678.671875 16.9375 C 672.976562 24.285156 678.671875 33.15625 682.898438 39.660156 C 688.222656 47.96875 692.417969 56.8125 695.488281 66.1875 C 701.84375 85.550781 701.484375 106.054688 705.890625 125.808594 C 706.933594 131.054688 708.515625 136.132812 710.636719 141.042969 C 712.757812 145.953125 715.375 150.585938 718.480469 154.941406 C 726.902344 166.183594 739.460938 177.125 753.910156 168.972656 C 768.359375 160.816406 779.539062 145.261719 790.117188 132.671875 C 796.628906 125.171875 802.464844 117.179688 807.625 108.691406 C 812.570312 100.179688 816.375 91.066406 820.964844 82.34375 C 825.550781 73.621094 831.246094 66.15625 836.460938 58.035156 C 838.917969 54.5625 840.933594 50.851562 842.511719 46.898438 C 844.085938 42.945312 845.175781 38.867188 845.78125 34.65625 C 846.015625 32.800781 846.066406 30.9375 845.929688 29.074219 C 845.792969 27.210938 845.472656 25.375 844.972656 23.574219 C 844.46875 21.773438 843.796875 20.039062 842.949219 18.371094 C 842.101562 16.707031 841.097656 15.140625 839.9375 13.671875 Z M 839.9375 13.671875 " fill-opacity="1" fill-rule="nonzero"/><path fill="#ffb080" d="M 692.910156 138.425781 C 692.132812 136.597656 691.414062 134.800781 690.8125 133.03125 C 683.019531 110.878906 685.148438 86.511719 679.722656 63.820312 C 675.257812 45.085938 665.09375 24.851562 646.75 16.28125 C 635.390625 11.0625 623.160156 12.113281 611.171875 14.273438 C 604.214844 15.53125 597.320312 16.941406 590.1875 17.6875 C 583.210938 18.40625 576.21875 18.734375 569.207031 18.679688 C 555.175781 18.679688 541.179688 17.328125 527.242188 15.890625 C 520.167969 15.171875 513.125 14.390625 506.050781 13.730469 C 499.507812 12.800781 492.933594 12.382812 486.324219 12.472656 C 485.03125 12.4375 483.753906 12.5625 482.492188 12.847656 C 481.230469 13.132812 480.023438 13.570312 478.871094 14.160156 C 477.71875 14.75 476.65625 15.472656 475.683594 16.328125 C 474.714844 17.183594 473.867188 18.148438 473.136719 19.21875 C 471.964844 21.4375 471.25 23.800781 470.996094 26.296875 C 470.742188 28.796875 470.964844 31.253906 471.667969 33.664062 C 473.621094 39.355469 476.160156 44.769531 479.28125 49.910156 C 480.726562 52.773438 481.875 55.75 482.71875 58.839844 C 483.566406 61.929688 484.097656 65.074219 484.308594 68.273438 C 484.523438 71.472656 484.417969 74.65625 483.988281 77.835938 C 483.5625 81.011719 482.820312 84.113281 481.769531 87.140625 C 479.730469 93.136719 476.765625 98.679688 475.054688 104.707031 C 474.171875 107.371094 473.726562 110.109375 473.726562 112.917969 C 473.726562 115.726562 474.171875 118.464844 475.054688 121.132812 C 475.972656 123.46875 477.195312 125.632812 478.726562 127.625 C 480.253906 129.617188 482.027344 131.359375 484.046875 132.851562 C 494.058594 140.496094 506.917969 141.183594 519.027344 140.734375 C 531.617188 139.984375 544.207031 139.984375 556.796875 140.734375 C 569.347656 141.519531 581.425781 144.324219 593.035156 149.15625 C 604.515625 154.195312 614.019531 162.015625 623.578125 170.140625 C 633.140625 178.261719 642.164062 185.964844 653.375 190.792969 C 667.371094 196.789062 685.925781 198.765625 696.988281 186.144531 C 709.726562 171.789062 699.324219 153.742188 692.910156 138.425781 Z M 692.910156 138.425781 " fill-opacity="1" fill-rule="nonzero"/><path fill="#ffb080" d="M 682.898438 230.089844 C 672.617188 212.523438 647.230469 207.339844 629.515625 199.695312 C 610.242188 191.390625 598.3125 173.078125 580.777344 162.167969 C 560.0625 149.277344 535.8125 153.175781 512.671875 155.09375 C 506.679688 155.574219 500.683594 155.78125 494.867188 155.722656 C 488.929688 155.449219 483.023438 155.78125 477.152344 156.710938 C 474.691406 157.207031 472.316406 157.972656 470.03125 159.011719 C 467.746094 160.050781 465.609375 161.335938 463.617188 162.867188 C 461.628906 164.398438 459.835938 166.132812 458.246094 168.074219 C 456.652344 170.015625 455.304688 172.113281 454.191406 174.367188 C 442.800781 196.246094 452.605469 221.90625 458.597656 243.90625 C 462.136719 256.855469 465.664062 269.847656 469.179688 282.875 C 470.980469 289.378906 472.746094 295.914062 474.546875 302.449219 C 475.445312 305.714844 476.3125 308.984375 477.214844 312.25 C 477.757812 315.125 478.753906 317.832031 480.210938 320.371094 C 485.90625 328.707031 497.597656 327.148438 505.210938 322.800781 C 510.1875 319.953125 514.53125 316.117188 519.207031 312.820312 C 523.945312 309.457031 528.859375 306.378906 533.957031 303.585938 C 544.199219 297.96875 554.941406 293.582031 566.1875 290.425781 C 577.433594 287.265625 588.890625 285.417969 600.558594 284.882812 C 623.757812 283.863281 648.96875 288.660156 669.921875 275.890625 C 685.296875 266.269531 692.492188 246.394531 682.898438 230.089844 Z M 682.898438 230.089844 " fill-opacity="1" fill-rule="nonzero"/><path fill="#ffb080" d="M 1047.273438 58.84375 C 1047.367188 51.949219 1048.625 45.277344 1051.046875 38.820312 C 1054.585938 28.839844 1058.871094 15.949219 1050.570312 6.957031 C 1046.613281 2.582031 1040.617188 1.890625 1034.890625 1.980469 C 1027.910156 1.980469 1020.925781 2.671875 1013.910156 3.332031 C 985.972656 6.089844 957.796875 11.695312 929.679688 8.15625 C 915.894531 6.417969 902.375 0.722656 888.316406 1.261719 C 878.605469 1.652344 867.8125 6 862.957031 14.929688 C 861.683594 17.746094 860.855469 20.6875 860.476562 23.753906 C 860.097656 26.820312 860.1875 29.875 860.738281 32.914062 C 861.476562 39.351562 861.386719 45.777344 860.46875 52.191406 C 858.101562 66.636719 851.117188 79.167969 844.132812 91.964844 C 836.792969 105.339844 828.679688 118.230469 819.792969 130.632812 C 813.46875 139.625 806.277344 148.4375 796.203125 152.515625 C 793.625 153.277344 791.214844 154.40625 788.980469 155.902344 C 783.136719 160.667969 788.980469 167.890625 793.867188 170.46875 C 797.003906 172.238281 800.25 173.78125 803.605469 175.09375 C 806.960938 176.410156 810.394531 177.480469 813.898438 178.3125 C 817.40625 179.144531 820.953125 179.726562 824.539062 180.058594 C 828.128906 180.394531 831.722656 180.472656 835.320312 180.300781 C 850.847656 179.191406 864.785156 171.097656 878.515625 164.535156 C 891.105469 158.539062 903.753906 152.726562 916.703125 147.597656 C 942.03125 137.558594 968.917969 129.882812 996.40625 130.363281 C 1003.210938 130.472656 1009.964844 131.121094 1016.667969 132.3125 C 1022.746094 133.851562 1028.921875 134.699219 1035.191406 134.859375 C 1036.53125 134.839844 1037.855469 134.679688 1039.164062 134.382812 C 1040.46875 134.082031 1041.730469 133.644531 1042.945312 133.078125 C 1044.160156 132.507812 1045.300781 131.820312 1046.367188 131.007812 C 1047.4375 130.199219 1048.40625 129.28125 1049.28125 128.265625 C 1050.691406 126.371094 1051.824219 124.324219 1052.671875 122.117188 C 1053.523438 119.914062 1054.058594 117.636719 1054.285156 115.285156 C 1055.816406 103.296875 1051.949219 91.007812 1049.667969 79.316406 C 1048.195312 72.570312 1047.398438 65.746094 1047.273438 58.84375 Z M 1047.273438 58.84375 " fill-opacity="1" fill-rule="nonzero"/><path fill="#ffb080" d="M 1055.933594 287.28125 C 1055.488281 277.890625 1054.277344 268.597656 1052.308594 259.40625 C 1048.632812 240.867188 1047.28125 222.164062 1048.261719 203.292969 C 1049.128906 191.8125 1051.257812 179.460938 1045.5625 169.359375 C 1040.828125 160.726562 1031.386719 155.691406 1021.941406 152.875 C 1013.371094 150.605469 1004.652344 149.417969 995.785156 149.304688 C 986.921875 149.195312 978.175781 150.164062 969.546875 152.214844 C 952.355469 156.347656 935.621094 161.863281 919.339844 168.761719 L 864.546875 190.074219 C 853.1875 194.539062 840.566406 203.589844 835.472656 214.890625 C 834.671875 216.441406 834.140625 218.078125 833.878906 219.800781 C 833.617188 221.527344 833.640625 223.246094 833.941406 224.964844 C 834.417969 226.566406 835.109375 228.066406 836.023438 229.460938 C 836.9375 230.859375 838.03125 232.097656 839.308594 233.175781 C 848 241.417969 859.570312 245.167969 870.390625 249.78125 C 885.328125 255.695312 900.566406 260.6875 916.101562 264.769531 C 945.628906 273.191406 976.472656 283.023438 997.425781 305.476562 C 1004.769531 313.359375 1011.511719 323.160156 1022.003906 325.679688 C 1031.445312 327.957031 1041.667969 323.191406 1047.660156 315.546875 C 1049.078125 313.566406 1050.324219 311.488281 1051.398438 309.300781 C 1052.46875 307.117188 1053.359375 304.863281 1054.0625 302.53125 C 1054.765625 300.203125 1055.273438 297.832031 1055.589844 295.417969 C 1055.902344 293.003906 1056.019531 290.582031 1055.933594 288.148438 Z M 1055.933594 287.28125 " fill-opacity="1" fill-rule="nonzero"/><path fill="#ffb080" d="M 745.9375 263.0625 C 734.425781 247.175781 706.699219 251.070312 694.980469 266.058594 C 690.511719 271.695312 686.945312 278.046875 682.210938 283.445312 C 677.644531 288.59375 672.230469 292.589844 665.964844 295.433594 C 653.136719 301.429688 638.566406 303.199219 624.660156 304.964844 C 609.882812 306.855469 595.015625 308.171875 580.265625 310.453125 C 565.550781 312.449219 551.273438 316.136719 537.433594 321.511719 C 524.09375 326.96875 512.375 335.300781 499.542969 341.714844 C 493.101562 345.089844 486.296875 347.398438 479.132812 348.640625 C 472.867188 349.660156 466.0625 350.199219 461.625 355.324219 C 460.046875 357.433594 458.875 359.75 458.113281 362.277344 C 457.351562 364.800781 457.042969 367.378906 457.191406 370.011719 C 457.191406 376.007812 457.941406 382 457.550781 387.785156 C 456.710938 400.734375 446.609375 410.476562 444.480469 423.035156 C 444.214844 424.449219 444.09375 425.871094 444.117188 427.308594 C 444.136719 428.742188 444.300781 430.164062 444.609375 431.566406 C 444.914062 432.96875 445.355469 434.328125 445.9375 435.640625 C 446.515625 436.957031 447.21875 438.199219 448.046875 439.371094 C 449.773438 441.660156 451.800781 443.640625 454.132812 445.308594 C 456.464844 446.972656 458.992188 448.253906 461.714844 449.144531 C 475.445312 453.96875 489.894531 448.125 502.242188 442.128906 C 509.097656 438.507812 516.164062 435.347656 523.433594 432.65625 C 526.929688 431.46875 530.515625 430.6875 534.191406 430.316406 C 537.863281 429.949219 541.535156 430 545.195312 430.46875 C 558.804688 432.269531 571.273438 438.5625 584.554688 441.710938 C 591.070312 443.398438 597.675781 443.878906 604.367188 443.148438 C 611.5625 442.082031 618.304688 439.726562 624.597656 436.074219 C 647.769531 423.15625 664.855469 401.214844 679.902344 379.933594 C 689.703125 366.085938 699.085938 351.875 709.488281 338.449219 C 719.320312 325.769531 731.519531 315.21875 741.289062 302.476562 C 748.15625 293.484375 752.949219 282.035156 749.894531 271.246094 C 749.074219 268.277344 747.753906 265.546875 745.9375 263.0625 Z M 745.9375 263.0625 " fill-opacity="1" fill-rule="nonzero"/><path fill="#ffb080" d="M 1002.847656 340.726562 C 995.894531 329.214844 985.074219 320.042969 974.164062 312.371094 C 962.703125 304.285156 950.3125 298.039062 936.996094 293.636719 C 916.492188 286.863281 894.671875 285.300781 874.046875 278.648438 C 842.515625 268.457031 821.113281 235.816406 784.722656 249.125 C 773.84375 253.109375 769.945312 261.742188 766.4375 272.234375 C 762.933594 282.726562 762.664062 293.484375 759.875 303.917969 C 758.34375 309.460938 756.214844 314.765625 753.488281 319.832031 C 742.339844 340.816406 724.085938 356.582031 709.96875 375.316406 C 708.648438 377.054688 707.359375 378.855469 706.101562 380.683594 C 704.480469 382.644531 702.960938 384.683594 701.542969 386.800781 C 700.125 388.914062 698.816406 391.09375 697.617188 393.339844 C 696.417969 395.585938 695.332031 397.886719 694.363281 400.242188 C 693.394531 402.597656 692.546875 404.992188 691.816406 407.433594 C 691.085938 409.871094 690.480469 412.34375 690 414.84375 C 689.515625 417.34375 689.160156 419.859375 688.929688 422.394531 C 688.699219 424.929688 688.597656 427.472656 688.621094 430.019531 C 688.644531 432.566406 688.796875 435.101562 689.074219 437.632812 C 689.707031 443.792969 691.109375 449.765625 693.28125 455.5625 C 695.457031 461.359375 698.328125 466.78125 701.902344 471.835938 C 703.488281 474.160156 705.421875 476.144531 707.710938 477.78125 C 710 479.421875 712.5 480.617188 715.210938 481.367188 C 718.109375 481.914062 721.023438 482.078125 723.960938 481.851562 C 726.902344 481.628906 729.757812 481.027344 732.539062 480.046875 C 744.527344 476.300781 756.667969 467.160156 769.855469 470.574219 C 775.671875 472.074219 781.007812 475.011719 787.183594 474.144531 C 789.804688 473.644531 792.28125 472.738281 794.609375 471.429688 C 796.9375 470.125 799 468.480469 800.789062 466.5 C 809.152344 457.867188 811.851562 445.515625 819.914062 436.675781 C 824.414062 432.25 829.53125 428.710938 835.261719 426.0625 C 841.195312 422.773438 847.328125 419.917969 853.664062 417.492188 C 870.691406 411.496094 889.066406 413.773438 906.8125 412.425781 C 914.21875 412.507812 921.59375 412.039062 928.933594 411.015625 C 943.019531 408.949219 956.507812 404.894531 969.398438 398.847656 C 975.957031 395.8125 982.242188 392.285156 988.25 388.265625 C 994.109375 384.753906 999.292969 380.4375 1003.808594 375.316406 C 1012.082031 364.886719 1009.324219 351.398438 1002.847656 340.726562 Z M 1002.847656 340.726562 " fill-opacity="1" fill-rule="nonzero"/><path fill="#c3e4ff" d="M 377.636719 738.757812 C 375.921875 736.292969 373.917969 734.085938 371.632812 732.136719 C 369.347656 730.1875 366.851562 728.558594 364.148438 727.25 C 360.082031 725.472656 355.847656 724.332031 351.4375 723.820312 C 347.03125 723.308594 342.644531 723.453125 338.28125 724.25 C 334.082031 724.902344 329.972656 725.910156 325.945312 727.269531 C 321.921875 728.632812 318.042969 730.328125 314.3125 732.359375 C 310.582031 734.390625 307.050781 736.722656 303.722656 739.363281 C 300.394531 742.003906 297.316406 744.910156 294.488281 748.082031 C 283.515625 760.429688 272.308594 779.105469 278.570312 796.042969 C 279.4375 798.253906 280.539062 800.34375 281.871094 802.308594 C 283.207031 804.273438 284.738281 806.070312 286.476562 807.691406 C 288.210938 809.316406 290.101562 810.726562 292.152344 811.925781 C 294.203125 813.128906 296.359375 814.085938 298.625 814.804688 C 320.027344 822.328125 347.691406 815.523438 365.109375 801.554688 C 368.042969 799.289062 370.707031 796.734375 373.09375 793.894531 C 375.480469 791.054688 377.542969 787.996094 379.273438 784.714844 C 381.007812 781.433594 382.371094 778.007812 383.367188 774.433594 C 384.367188 770.859375 384.972656 767.222656 385.191406 763.519531 C 385.296875 759.09375 384.707031 754.761719 383.414062 750.527344 C 382.121094 746.296875 380.195312 742.371094 377.636719 738.757812 Z M 377.636719 738.757812 " fill-opacity="1" fill-rule="nonzero"/><path fill="#ffb080" d="M 305.160156 686.242188 C 304.742188 681.148438 303.792969 676.152344 302.3125 671.257812 C 297.785156 656.269531 289.542969 642.332031 283.039062 628.152344 C 275.722656 612.175781 268.050781 596.320312 260.675781 580.433594 C 252.523438 563.019531 244.640625 545.453125 236.15625 528.21875 C 230.164062 515.957031 221.738281 502.707031 207.230469 500.042969 C 194.011719 497.644531 181.09375 503.90625 169.042969 508.34375 C 163.003906 510.859375 156.730469 512.449219 150.21875 513.109375 C 147 513.359375 143.84375 513.027344 140.746094 512.121094 C 137.644531 511.210938 134.808594 509.78125 132.234375 507.835938 C 126.71875 503.667969 122.554688 498.003906 117.546875 493.296875 C 115.125 490.824219 112.351562 488.84375 109.230469 487.347656 C 106.109375 485.855469 102.828125 484.941406 99.382812 484.605469 C 91.46875 484.003906 83.707031 486.371094 75.941406 487.601562 C 71.957031 488.324219 67.960938 488.394531 63.953125 487.8125 C 59.902344 486.972656 56.167969 485.390625 52.742188 483.074219 C 46.539062 479.117188 40.753906 474.082031 33.410156 472.34375 C 27.625 471.027344 20.488281 471.503906 16.351562 476.300781 C 15.21875 477.730469 14.351562 479.304688 13.75 481.023438 C 13.148438 482.746094 12.847656 484.519531 12.847656 486.34375 C 12.578125 490.75 12.847656 495.335938 12.847656 499.652344 C 13.207031 508.855469 14.046875 518.054688 15.0625 527.199219 C 19.140625 563.558594 27.054688 600.726562 20.519531 637.265625 C 18.765625 646.292969 16.367188 655.144531 13.324219 663.824219 C 10.21875 672.125 8.21875 680.6875 7.332031 689.511719 C 7.027344 693.242188 7.203125 696.953125 7.851562 700.636719 C 8.503906 704.324219 9.609375 707.871094 11.167969 711.273438 C 11.964844 712.882812 12.894531 714.410156 13.964844 715.851562 C 15.035156 717.292969 16.226562 718.628906 17.539062 719.855469 C 18.847656 721.085938 20.257812 722.1875 21.765625 723.164062 C 23.273438 724.136719 24.855469 724.96875 26.515625 725.660156 C 40.933594 731.65625 57.71875 728.65625 72.765625 727.460938 C 91.96875 726.019531 111.210938 725.410156 130.496094 725.628906 C 173.152344 726.082031 216.164062 728.117188 257.46875 739.597656 C 270.449219 743.195312 280.699219 743.527344 290.023438 732.015625 C 292.710938 728.875 295.070312 725.503906 297.101562 721.90625 C 299.132812 718.304688 300.796875 714.542969 302.09375 710.621094 C 303.394531 706.695312 304.300781 702.683594 304.816406 698.582031 C 305.332031 694.480469 305.445312 690.367188 305.160156 686.242188 Z M 305.160156 686.242188 " fill-opacity="1" fill-rule="nonzero"/><path fill="#ffb080" d="M 512.222656 469.558594 C 510.285156 467.765625 508.105469 466.351562 505.671875 465.324219 C 503.242188 464.292969 500.710938 463.707031 498.074219 463.5625 C 483.898438 462.09375 472.269531 472.042969 458.628906 473.785156 C 457.050781 473.949219 455.464844 473.988281 453.878906 473.902344 C 452.292969 473.816406 450.722656 473.605469 449.167969 473.269531 C 447.617188 472.933594 446.101562 472.476562 444.621094 471.898438 C 443.140625 471.320312 441.714844 470.632812 440.34375 469.828125 C 438.972656 469.023438 437.675781 468.117188 436.449219 467.105469 C 435.222656 466.097656 434.082031 464.996094 433.03125 463.804688 C 431.980469 462.613281 431.03125 461.34375 430.179688 460.003906 C 429.332031 458.660156 428.59375 457.257812 427.964844 455.796875 C 424.398438 447.375 425.777344 428.972656 412.019531 430.140625 C 405.363281 430.710938 399.007812 435.6875 394.035156 439.941406 C 388.898438 444.609375 384.242188 449.714844 380.066406 455.257812 C 371.464844 466.199219 363.398438 477.980469 351.589844 485.742188 C 348.769531 487.699219 345.742188 489.246094 342.507812 490.390625 C 339.273438 491.535156 335.945312 492.234375 332.527344 492.488281 C 325.335938 492.414062 318.339844 491.207031 311.542969 488.859375 C 299.402344 485.382812 285.285156 481.546875 274.703125 490.957031 C 265.472656 499.140625 263.644531 512.929688 266.160156 524.441406 C 268.046875 531.878906 270.816406 538.972656 274.464844 545.722656 C 278 552.828125 281.628906 559.871094 284.835938 567.09375 C 294.519531 589.894531 301.875 613.425781 306.898438 637.683594 C 311.484375 658.1875 312.890625 681.089844 330.878906 694.996094 C 355.847656 714.359375 388.578125 706.988281 408.300781 684.144531 C 428.023438 661.304688 434.078125 630.402344 443.851562 602.433594 C 449.011719 587.714844 455.90625 573.855469 464.535156 560.859375 C 472.746094 548.390625 481.949219 536.640625 490.851562 524.679688 C 495.378906 518.6875 499.84375 512.511719 504.039062 506.214844 C 508.578125 500.199219 512.257812 493.695312 515.070312 486.703125 C 515.652344 485.28125 516.027344 483.808594 516.199219 482.285156 C 516.371094 480.757812 516.332031 479.238281 516.082031 477.726562 C 515.828125 476.210938 515.375 474.761719 514.71875 473.375 C 514.066406 471.984375 513.234375 470.714844 512.222656 469.558594 Z M 512.222656 469.558594 " fill-opacity="1" fill-rule="nonzero"/><path fill="#ffb080" d="M 740.570312 591.734375 C 739.246094 584.839844 737.296875 578.125 734.726562 571.589844 C 730.628906 562.246094 728.222656 552.484375 727.503906 542.304688 C 727.292969 533.613281 734.15625 519.644531 729 511.882812 C 721.867188 501.148438 701.785156 511.429688 693.390625 501.660156 C 690.003906 497.761719 690.003906 492.128906 688.953125 487.09375 C 688.574219 485.4375 688.066406 483.820312 687.441406 482.242188 C 686.8125 480.660156 686.070312 479.140625 685.210938 477.671875 C 684.351562 476.207031 683.386719 474.8125 682.316406 473.492188 C 681.25 472.171875 680.085938 470.941406 678.828125 469.796875 C 677.570312 468.652344 676.234375 467.613281 674.820312 466.671875 C 673.40625 465.730469 671.929688 464.902344 670.386719 464.183594 C 668.847656 463.46875 667.261719 462.871094 665.632812 462.394531 C 664 461.917969 662.34375 461.570312 660.660156 461.34375 C 644.441406 459.484375 629.335938 469.765625 613.117188 471.804688 C 601.636719 473.242188 590.066406 470.515625 578.527344 469.738281 C 566.988281 468.957031 552.300781 470.785156 544.714844 480.917969 C 534.675781 494.285156 530.058594 512.628906 520.257812 526.6875 C 508.117188 544.074219 492.261719 559 482.910156 578.035156 C 473.046875 598.148438 471.277344 621.320312 462.914062 642.089844 C 450.6875 672.425781 425.445312 695.597656 409.949219 724.371094 C 405.695312 732.253906 402.457031 742.746094 408.332031 749.519531 C 412.289062 754.105469 419.003906 755.035156 425.058594 754.945312 C 436.871094 754.371094 448.421875 752.3125 459.707031 748.769531 C 488.574219 740.769531 516.808594 730.785156 545.015625 720.714844 C 597.113281 702.191406 649.359375 683.605469 698.726562 658.757812 C 713.714844 651.171875 729.359375 642.152344 736.914062 627.132812 C 742.398438 616.34375 742.789062 603.992188 740.570312 591.734375 Z M 740.570312 591.734375 " fill-opacity="1" fill-rule="nonzero"/><path fill="#ffb080" d="M 261.277344 786.328125 C 261.003906 782.902344 260.304688 779.566406 259.179688 776.316406 C 253.394531 759.953125 235.738281 754.585938 220.210938 751.859375 L 217.0625 751.347656 C 209.300781 750.121094 201.476562 749.128906 193.625 748.351562 C 160.871094 744.78125 128.070312 744.234375 95.214844 746.703125 C 79.613281 747.675781 64.117188 749.53125 48.726562 752.277344 C 38.023438 754.285156 26.875 757.734375 18.332031 764.777344 C 16.355469 766.347656 14.621094 768.152344 13.125 770.183594 C 11.632812 772.21875 10.429688 774.414062 9.519531 776.765625 C 8.550781 780 8.089844 783.304688 8.140625 786.683594 C 8.191406 790.058594 8.75 793.347656 9.820312 796.550781 C 12.054688 803.445312 13.914062 810.4375 15.394531 817.53125 C 16.429688 824.25 16.820312 831.003906 16.5625 837.796875 C 15.753906 865.671875 6.851562 892.558594 5.292969 920.347656 C 4.867188 927.175781 5.027344 933.988281 5.773438 940.789062 C 6.394531 947.402344 7.902344 953.808594 10.296875 960.003906 C 19.648438 982.242188 44.109375 969.355469 55.261719 956.496094 C 76.542969 931.976562 98.214844 913.242188 130.554688 904.96875 C 157.054688 898.164062 186.460938 897.503906 210.167969 882.636719 C 215.417969 879.277344 220.34375 875.496094 224.945312 871.296875 C 229.550781 867.097656 233.765625 862.539062 237.59375 857.625 C 241.425781 852.707031 244.8125 847.503906 247.753906 842.011719 C 250.699219 836.519531 253.15625 830.816406 255.132812 824.90625 C 258.789062 813.785156 262.355469 799.160156 261.277344 786.328125 Z M 261.277344 786.328125 " fill-opacity="1" fill-rule="nonzero"/><path fill="#ffb080" d="M 329.199219 873.496094 C 328.53125 866.375 326.535156 859.652344 323.203125 853.324219 C 318.046875 843.640625 308.546875 833.570312 297.15625 832.640625 C 283.996094 831.589844 270.839844 840.015625 262.324219 849.367188 C 249.046875 863.902344 245.390625 885.335938 231.839844 899.695312 C 217.332031 914.980469 194.941406 918.847656 174.648438 924.484375 C 132.683594 936.171875 92.609375 960.152344 69.558594 997.171875 C 67.078125 1000.808594 65.039062 1004.675781 63.433594 1008.773438 C 61.832031 1012.871094 60.703125 1017.097656 60.054688 1021.449219 C 59.746094 1023.636719 59.699219 1025.832031 59.914062 1028.027344 C 60.128906 1030.226562 60.601562 1032.371094 61.328125 1034.457031 C 62.054688 1036.542969 63.019531 1038.511719 64.214844 1040.367188 C 65.414062 1042.222656 66.816406 1043.910156 68.417969 1045.429688 C 75.761719 1051.695312 86.402344 1052.324219 95.9375 1050.796875 C 105.46875 1049.265625 114.730469 1045.910156 124.351562 1045.371094 C 153.1875 1043.722656 177.886719 1066.773438 206.542969 1070.519531 C 208.972656 1070.832031 211.414062 1070.996094 213.863281 1071.007812 C 216.3125 1071.019531 218.753906 1070.882812 221.1875 1070.589844 C 223.621094 1070.300781 226.027344 1069.863281 228.40625 1069.273438 C 230.785156 1068.6875 233.117188 1067.953125 235.40625 1067.078125 C 237.695312 1066.199219 239.917969 1065.183594 242.082031 1064.03125 C 244.246094 1062.878906 246.328125 1061.597656 248.332031 1060.1875 C 250.335938 1058.777344 252.246094 1057.25 254.058594 1055.601562 C 255.875 1053.957031 257.582031 1052.203125 259.179688 1050.347656 C 276.683594 1029.152344 275.695312 998.578125 285.914062 973.070312 C 292.78125 955.894531 304.679688 941.269531 314.449219 925.5625 C 324.222656 909.855469 330.96875 891.628906 329.199219 873.496094 Z M 329.199219 873.496094 " fill-opacity="1" fill-rule="nonzero"/><path fill="#ffb080" d="M 513.84375 1022.109375 C 509.136719 1009.191406 499.753906 998.820312 490.851562 988.597656 C 481.339844 977.976562 473.289062 966.347656 466.691406 953.707031 C 460.363281 940.898438 455.746094 927.5 452.84375 913.511719 C 449.847656 899.511719 447.597656 885.277344 443.34375 871.546875 C 434.050781 841.753906 392.625 796.371094 360.761719 826.976562 C 340.648438 846.308594 354.40625 875.355469 346.765625 898.914062 C 340.199219 919.265625 325.78125 935.902344 315.800781 954.605469 C 310.308594 964.722656 305.75 975.242188 302.128906 986.171875 C 298.507812 997.097656 295.882812 1008.257812 294.25 1019.652344 C 292.660156 1031.34375 292.75 1044.261719 298.863281 1054.78125 C 304.980469 1065.304688 315.621094 1070.25 327.070312 1071.539062 C 339.960938 1072.976562 352.488281 1069.621094 364.660156 1065.753906 C 378.867188 1061.257812 392.984375 1056.761719 408.121094 1058.289062 C 422.660156 1059.847656 436.359375 1065.601562 450.355469 1069.5 C 455.839844 1071.222656 461.449219 1072.335938 467.175781 1072.839844 C 472.902344 1073.347656 478.617188 1073.230469 484.316406 1072.496094 C 486.882812 1072.207031 489.394531 1071.667969 491.855469 1070.886719 C 494.316406 1070.105469 496.679688 1069.097656 498.945312 1067.855469 C 501.207031 1066.613281 503.332031 1065.164062 505.3125 1063.511719 C 507.296875 1061.855469 509.101562 1060.027344 510.726562 1058.019531 C 518.367188 1047.558594 518.097656 1033.800781 513.84375 1022.109375 Z M 513.84375 1022.109375 " fill-opacity="1" fill-rule="nonzero"/><path fill="#ffb080" d="M 723.90625 763.277344 C 723.707031 754.886719 722.097656 746.773438 719.078125 738.9375 C 717.59375 735.398438 715.617188 732.152344 713.148438 729.210938 C 710.679688 726.265625 707.832031 723.753906 704.601562 721.675781 C 691.863281 713.609375 675.554688 713.28125 661.046875 715.078125 C 643.289062 717.753906 625.902344 721.96875 608.890625 727.730469 C 590.667969 733.425781 572.742188 739.929688 554.667969 746.074219 C 536.769531 752.398438 518.585938 757.753906 500.113281 762.140625 C 483.601562 765.714844 466.9375 768.28125 450.117188 769.84375 C 439.894531 770.800781 429.132812 769.992188 419.78125 775.027344 C 418.339844 775.785156 416.984375 776.675781 415.71875 777.699219 C 414.449219 778.71875 413.289062 779.851562 412.242188 781.097656 C 411.191406 782.34375 410.273438 783.679688 409.484375 785.105469 C 408.695312 786.53125 408.050781 788.015625 407.550781 789.566406 C 402.757812 805.8125 417.5625 810.546875 429.042969 816.394531 C 431.820312 817.8125 434.519531 819.363281 437.140625 821.046875 C 439.765625 822.726562 442.300781 824.53125 444.75 826.460938 C 447.199219 828.390625 449.546875 830.433594 451.796875 832.589844 C 454.046875 834.746094 456.183594 837.007812 458.214844 839.375 C 460.242188 841.738281 462.152344 844.195312 463.945312 846.75 C 465.734375 849.300781 467.394531 851.929688 468.929688 854.644531 C 470.464844 857.355469 471.863281 860.136719 473.128906 862.988281 C 474.390625 865.835938 475.511719 868.738281 476.496094 871.695312 C 484.917969 896.875 480.960938 926.550781 496.097656 949.273438 C 500.511719 955.613281 505.507812 961.457031 511.085938 966.808594 C 521.964844 977.65625 533.894531 988.148438 539.382812 1002.957031 C 541.292969 1009.535156 543.78125 1015.890625 546.84375 1022.019531 C 547.261719 1022.800781 547.726562 1023.550781 548.25 1024.265625 C 548.769531 1024.980469 549.339844 1025.65625 549.957031 1026.289062 C 550.574219 1026.925781 551.234375 1027.511719 551.933594 1028.054688 C 552.632812 1028.597656 553.371094 1029.085938 554.140625 1029.523438 C 554.910156 1029.960938 555.707031 1030.339844 556.53125 1030.664062 C 557.355469 1030.988281 558.195312 1031.253906 559.058594 1031.457031 C 559.917969 1031.660156 560.789062 1031.804688 561.671875 1031.886719 C 562.554688 1031.96875 563.4375 1031.984375 564.320312 1031.941406 C 568.457031 1031.492188 572.488281 1030.585938 576.421875 1029.226562 C 580.351562 1027.867188 584.082031 1026.082031 587.609375 1023.878906 C 594.355469 1019.957031 600.347656 1015.113281 605.59375 1009.339844 C 610.902344 1003.570312 615.199219 997.125 618.484375 990.007812 C 621.914062 982.027344 624.121094 973.726562 625.109375 965.097656 C 627.445312 947.804688 627.746094 929.90625 637.636719 914.800781 C 645.429688 902.8125 657 894.179688 668.390625 885.996094 C 679.78125 877.8125 692.070312 869.660156 701.875 859.199219 C 704.605469 856.199219 707.09375 853.015625 709.347656 849.644531 C 711.597656 846.273438 713.582031 842.75 715.304688 839.078125 C 717.023438 835.40625 718.457031 831.628906 719.609375 827.742188 C 720.757812 823.851562 721.613281 819.902344 722.167969 815.882812 C 723.472656 807.191406 724.132812 798.449219 724.144531 789.65625 C 724.445312 780.875 724.382812 772.03125 723.90625 763.277344 Z M 723.90625 763.277344 " fill-opacity="1" fill-rule="nonzero"/><path fill="#c3e4ff" d="M 1045.382812 842.5 C 1045.367188 842.273438 1045.367188 842.042969 1045.382812 841.8125 C 1045.382812 820.351562 1044.515625 798.949219 1044.8125 777.488281 C 1044.992188 766.636719 1045.203125 755.816406 1045.414062 744.964844 C 1045.414062 737.410156 1046.402344 726.140625 1035.132812 729.976562 C 1025.871094 733.273438 1016.308594 738.339844 1007.226562 742.355469 C 998.144531 746.375 989.089844 751.648438 983.246094 760.101562 C 971.796875 776.4375 972.605469 798.4375 977.910156 816.8125 C 980.65625 827.128906 985.132812 836.632812 991.339844 845.320312 C 992.660156 847.09375 994.09375 848.769531 995.648438 850.347656 C 997.199219 851.925781 998.851562 853.390625 1000.601562 854.738281 C 1002.355469 856.089844 1004.191406 857.3125 1006.113281 858.410156 C 1008.035156 859.507812 1010.019531 860.46875 1012.074219 861.292969 C 1014.128906 862.117188 1016.226562 862.796875 1018.375 863.332031 C 1020.519531 863.867188 1022.695312 864.25 1024.894531 864.488281 C 1027.09375 864.722656 1029.300781 864.808594 1031.511719 864.738281 C 1033.722656 864.671875 1035.917969 864.453125 1038.101562 864.082031 C 1039.898438 863.832031 1041.574219 863.242188 1043.136719 862.316406 C 1048.859375 858.6875 1045.683594 848.078125 1045.382812 842.5 Z M 1045.382812 842.5 " fill-opacity="1" fill-rule="nonzero"/><path fill="#ffb080" d="M 1046.613281 602.703125 L 1049.160156 544.132812 C 1050.957031 503.367188 1053.207031 463.800781 1042.714844 423.90625 C 1039.179688 410.445312 1031.65625 395.371094 1017.898438 393.570312 C 1009.984375 392.582031 1002.25 396.570312 996.015625 401.425781 C 989.78125 406.28125 984.566406 412.515625 978.03125 417.191406 C 944.789062 441.171875 901.027344 420.789062 864.125 426.394531 C 833.34375 431.070312 807.414062 457.417969 814.878906 490.300781 C 820.875 516.917969 845.390625 532.023438 862.417969 551.148438 C 883.910156 575.308594 895.808594 602.703125 908.429688 631.929688 C 919.550781 657.738281 933.097656 684.714844 955.21875 702.878906 C 975.121094 719.246094 1024.699219 736.332031 1038.730469 703.71875 C 1042.414062 695.117188 1042.867188 685.523438 1043.285156 676.171875 Z M 1046.613281 602.703125 " fill-opacity="1" fill-rule="nonzero"/><path fill="#ffb080" d="M 964.242188 749.609375 C 964.285156 748.511719 964.199219 747.425781 963.984375 746.351562 C 963.769531 745.273438 963.433594 744.238281 962.976562 743.238281 C 962.519531 742.242188 961.949219 741.3125 961.273438 740.449219 C 960.59375 739.585938 959.824219 738.8125 958.964844 738.128906 C 952.792969 732.765625 945.089844 729.4375 939.511719 723.144531 C 934.113281 716.398438 929.238281 709.292969 924.886719 701.832031 C 914.214844 685.339844 904.40625 668.355469 895.449219 650.875 C 877.136719 615.984375 860.320312 580.042969 837.628906 547.671875 L 836.96875 546.710938 C 830.9375 537.773438 824.226562 529.371094 816.839844 521.511719 C 809.453125 513.652344 801.484375 506.4375 792.9375 499.859375 C 781.457031 491.410156 765.75 484.664062 753.429688 491.828125 C 744.4375 496.984375 740.601562 508.105469 740.929688 518.355469 C 741.261719 528.605469 745.15625 538.410156 748.695312 548.0625 C 758.195312 574.109375 765.269531 603.542969 754.417969 628.992188 C 749.503906 640.5625 741.230469 650.394531 734.9375 661.304688 C 728.640625 672.214844 724.265625 685.285156 728.160156 697.273438 C 733.078125 712.441406 750.3125 723.171875 749.773438 739.238281 C 749.292969 752.789062 735.566406 765.105469 740.179688 777.847656 C 743.75 787.738281 756.308594 790.796875 766.828125 790.527344 C 786.523438 789.984375 805.527344 783.0625 825.160156 781.261719 C 852.976562 778.714844 880.582031 786.359375 908.398438 784.261719 C 924.554688 783.03125 941.191406 778.265625 953.75 767.59375 C 959.207031 763.1875 963.972656 756.324219 964.242188 749.609375 Z M 964.242188 749.609375 " fill-opacity="1" fill-rule="nonzero"/><path fill="#ffb080" d="M 958.667969 808.839844 C 957.210938 806.523438 955.472656 804.445312 953.449219 802.605469 C 941.609375 791.933594 927.132812 798.648438 915.351562 805.902344 C 912.078125 808.070312 908.59375 809.832031 904.910156 811.1875 C 901.222656 812.542969 897.429688 813.460938 893.53125 813.9375 C 873.238281 815.855469 852.226562 809.171875 831.933594 807.941406 C 809.949219 806.421875 788.207031 808.078125 766.710938 812.917969 C 750.734375 816.722656 741.558594 822.269531 734.1875 837.257812 C 723.996094 858 712.722656 876.851562 694.050781 890.972656 C 682.78125 899.515625 669.230469 905.117188 659.101562 915.191406 C 647.621094 926.609375 645.402344 942.46875 642.882812 957.753906 L 638.476562 984.402344 C 637.1875 992.136719 635.089844 1000.46875 636.949219 1008.382812 C 639.945312 1021.121094 653.914062 1026.1875 665.785156 1024.417969 C 678.914062 1022.46875 688.683594 1013.386719 698.757812 1005.714844 C 712.550781 995.203125 727.097656 985.863281 742.398438 977.695312 C 757.699219 969.53125 773.558594 962.644531 789.96875 957.035156 C 822.25 946.09375 856.273438 940.730469 887.988281 928.019531 C 922.066406 914.351562 961.273438 887.433594 965.710938 847.597656 C 967.148438 835.578125 965.679688 819.78125 958.667969 808.839844 Z M 958.667969 808.839844 " fill-opacity="1" fill-rule="nonzero"/><path fill="#ffb080" d="M 1041.695312 885.484375 C 1039.6875 879.222656 1034.890625 874.816406 1025 873.855469 C 989.539062 870.347656 965.050781 899.84375 941.070312 920.285156 C 907.019531 949.152344 866.136719 968.246094 824.859375 984.582031 C 804.777344 992.554688 784.363281 999.570312 764.28125 1007.601562 C 745.9375 1014.363281 728.589844 1023.105469 712.246094 1033.828125 C 708.320312 1036.386719 704.585938 1039.191406 701.03125 1042.246094 C 697.480469 1045.296875 694.140625 1048.570312 691.023438 1052.0625 C 687.902344 1055.554688 685.023438 1059.234375 682.390625 1063.109375 C 679.757812 1066.980469 677.386719 1071.011719 675.285156 1075.195312 C 672.652344 1080.40625 670.792969 1085.882812 669.710938 1091.621094 C 668.632812 1097.359375 668.371094 1103.132812 668.929688 1108.945312 C 669.546875 1113.496094 670.726562 1117.894531 672.472656 1122.140625 C 674.21875 1126.386719 676.476562 1130.339844 679.242188 1134.003906 C 691.023438 1149.890625 709.21875 1159.632812 728.402344 1163.410156 C 765.808594 1170.8125 803.339844 1161.972656 840.355469 1157.773438 C 873.867188 1153.96875 904.324219 1149.890625 928.152344 1178.757812 C 946.347656 1200.820312 951.980469 1229.714844 968.648438 1252.886719 C 972.765625 1258.726562 977.609375 1263.882812 983.1875 1268.351562 C 996.464844 1278.691406 1014.929688 1283.578125 1027.398438 1269.011719 C 1035.433594 1259.570312 1037.109375 1246.320312 1036.390625 1234.332031 C 1032.945312 1182.714844 1026.828125 1131.277344 1028.058594 1079.453125 C 1028.957031 1041.472656 1032.164062 1002.175781 1036.03125 963.839844 C 1038.039062 943.90625 1040.257812 923.972656 1042.445312 904.070312 C 1043.492188 897.824219 1043.242188 891.628906 1041.695312 885.484375 Z M 1041.695312 885.484375 " fill-opacity="1" fill-rule="nonzero"/><path fill="#c3e4ff" d="M 490.042969 1461.269531 C 488.484375 1449.277344 481.828125 1435.96875 478.054688 1426.199219 C 472.875 1411.976562 465.757812 1398.796875 456.710938 1386.660156 C 419.902344 1338.703125 358.394531 1349.972656 311.304688 1375.210938 C 281.058594 1391.398438 257.800781 1418.703125 252.074219 1453.144531 C 250.726562 1461.269531 247.066406 1477.125 253.511719 1483.660156 C 262.144531 1492.441406 277.492188 1488.84375 288.3125 1488.214844 C 324.28125 1486.175781 360.253906 1485.21875 396.222656 1485.21875 C 414.445312 1485.21875 432.671875 1485.347656 450.894531 1485.609375 C 463.09375 1485.816406 483.867188 1490.105469 489.054688 1474.816406 C 490.449219 1470.378906 490.78125 1465.863281 490.042969 1461.269531 Z M 490.042969 1461.269531 " fill-opacity="1" fill-rule="nonzero"/><g clip-path="url(#d29d520cab)"><path fill="#ffb080" d="M 232.199219 1424.28125 C 230.492188 1414.238281 229.414062 1401.140625 223.65625 1392.328125 C 216.554688 1381.445312 201.746094 1376.261719 189.9375 1372.664062 C 169.253906 1366.769531 149.59375 1358.46875 130.945312 1347.753906 C 102.980469 1331.089844 71.386719 1286.125 34.609375 1294.488281 C 20.039062 1297.785156 10.988281 1310.257812 7.121094 1324.015625 C 2.714844 1339.601562 4.125 1355.667969 6.460938 1371.496094 C 9.457031 1391.339844 13.535156 1411.421875 11.738281 1431.445312 C 10.789062 1441.476562 8.160156 1451.046875 3.855469 1460.160156 C 0.015625 1468.550781 -4.507812 1477.035156 -5.617188 1486.328125 C -6.160156 1490.585938 -5.730469 1494.742188 -4.328125 1498.796875 C -4.289062 1499 -4.214844 1499.183594 -4.097656 1499.351562 C -3.984375 1499.523438 -3.839844 1499.664062 -3.664062 1499.773438 C -3.492188 1499.882812 -3.304688 1499.957031 -3.101562 1499.988281 C -2.902344 1500.023438 -2.699219 1500.015625 -2.5 1499.964844 C 57.152344 1491.441406 117.101562 1486.585938 177.347656 1485.398438 C 193.953125 1485.097656 210.558594 1485.21875 227.195312 1485.25 C 239.363281 1485.25 236.695312 1450.566406 232.199219 1424.28125 Z M 227.375 1477.15625 C 227.089844 1477.496094 226.738281 1477.746094 226.324219 1477.90625 C 225.785156 1478.085938 225.90625 1478.085938 225.964844 1477.546875 L 225.964844 1477.367188 C 226.46875 1477.519531 226.9375 1477.449219 227.375 1477.15625 Z M 227.375 1477.15625 " fill-opacity="1" fill-rule="nonzero"/></g><path fill="#ffb080" d="M 290.292969 1301.234375 C 284.957031 1279.382812 275.84375 1257.441406 270.929688 1242.722656 C 262.746094 1218.050781 256.53125 1192.890625 252.285156 1167.246094 C 249.285156 1149.503906 245.75 1131.488281 237.296875 1115.660156 C 226.265625 1095.25 207.859375 1084.847656 186.339844 1078.371094 C 176.457031 1075.402344 166.390625 1073.316406 156.140625 1072.117188 C 145.890625 1070.917969 135.613281 1070.625 125.3125 1071.238281 C 106.605469 1072.347656 80.527344 1082.210938 63.382812 1070.820312 C 57 1066.5625 52.953125 1059.636719 49.503906 1052.835938 C 46.058594 1046.03125 42.941406 1038.777344 37.515625 1033.199219 C 11.4375 1005.742188 4.152344 1044.800781 6.371094 1062.90625 C 8.949219 1083.886719 17.371094 1103.550781 20.039062 1124.292969 C 21.71875 1138.273438 22.308594 1152.300781 21.804688 1166.375 C 21.300781 1180.449219 19.714844 1194.398438 17.042969 1208.222656 C 14.585938 1221.5 -3.550781 1262.535156 17.492188 1269.789062 C 20.332031 1270.496094 23.210938 1270.800781 26.132812 1270.707031 C 29.058594 1270.609375 31.914062 1270.113281 34.699219 1269.222656 C 92.339844 1255.703125 119.855469 1322.816406 162.75 1346.226562 C 177.257812 1354.167969 194.011719 1355.21875 209.328125 1361.003906 C 223.808594 1366.460938 236.308594 1376.800781 252.703125 1375.480469 C 294.25 1372.003906 298.683594 1335.585938 290.292969 1301.234375 Z M 290.292969 1301.234375 " fill-opacity="1" fill-rule="nonzero"/><path fill="#ffb080" d="M 564.019531 1067.3125 C 556.285156 1058.738281 541.089844 1059.996094 531.976562 1065.363281 C 525.324219 1069.261719 520.167969 1075.585938 515.160156 1081.28125 C 510.195312 1087.644531 504.261719 1092.921875 497.355469 1097.105469 C 484.316406 1104.0625 469.300781 1101.511719 455.722656 1097.644531 C 441.242188 1093.539062 427.125 1087.695312 412.078125 1085.925781 C 404.367188 1084.917969 396.773438 1085.488281 389.296875 1087.632812 C 380.304688 1090.300781 372.152344 1094.859375 363.011719 1096.628906 C 358.640625 1097.476562 354.230469 1097.789062 349.785156 1097.558594 C 345.335938 1097.332031 340.984375 1096.570312 336.722656 1095.277344 C 328.433594 1092.40625 320.917969 1088.160156 314.179688 1082.539062 C 308.1875 1077.953125 301.351562 1072.796875 293.46875 1072.257812 C 292.589844 1072.222656 291.710938 1072.253906 290.832031 1072.351562 C 289.957031 1072.445312 289.09375 1072.605469 288.238281 1072.828125 C 287.386719 1073.050781 286.554688 1073.335938 285.742188 1073.679688 C 284.933594 1074.027344 284.152344 1074.429688 283.398438 1074.890625 C 282.648438 1075.347656 281.933594 1075.863281 281.257812 1076.425781 C 280.578125 1076.992188 279.949219 1077.605469 279.363281 1078.261719 C 278.773438 1078.921875 278.238281 1079.617188 277.753906 1080.355469 C 277.273438 1081.089844 276.84375 1081.859375 276.472656 1082.660156 C 274.882812 1086.265625 273.722656 1090.003906 272.992188 1093.875 C 272.265625 1097.75 271.984375 1101.652344 272.15625 1105.589844 C 271.46875 1172.671875 316.191406 1231.125 317.476562 1298.894531 C 317.628906 1306.058594 319.007812 1313.734375 324.074219 1318.800781 C 345.59375 1340.351562 395.503906 1329.261719 417.265625 1315.082031 C 423.84375 1310.605469 429.765625 1305.382812 435.027344 1299.414062 C 440.289062 1293.449219 444.730469 1286.917969 448.347656 1279.832031 C 456.472656 1264.695312 461.925781 1248.328125 468.460938 1232.472656 C 474.898438 1216.84375 483.089844 1202.195312 493.039062 1188.53125 C 502.902344 1174.949219 514.023438 1162.273438 524.632812 1149.351562 C 535.488281 1136.726562 545.351562 1123.371094 554.21875 1109.277344 C 558.523438 1102.210938 562.261719 1094.859375 565.429688 1087.214844 C 568.1875 1080.679688 569.265625 1073.007812 564.019531 1067.3125 Z M 564.019531 1067.3125 " fill-opacity="1" fill-rule="nonzero"/><path fill="#ffb080" d="M 833.792969 1201.929688 C 833.214844 1200.214844 832.433594 1198.59375 831.453125 1197.070312 C 824.082031 1185.652344 808.433594 1183.375 794.855469 1183.613281 C 769.644531 1184.0625 744.558594 1189.21875 719.4375 1187.480469 C 694.320312 1185.742188 667.671875 1175.339844 655.652344 1153.160156 C 646.152344 1135.625 647.589844 1114.492188 646.332031 1094.558594 C 645.730469 1085.117188 644.203125 1075.105469 637.9375 1068.03125 C 613.75 1040.605469 581.855469 1100.644531 573.191406 1116.621094 C 554.1875 1151.691406 537.402344 1188.140625 514.652344 1220.871094 C 500.683594 1240.957031 484.675781 1259.449219 470.378906 1279.351562 C 462.347656 1290.5625 452.574219 1301.324219 446.550781 1313.792969 C 441.152344 1324.945312 440.046875 1339.570312 448.378906 1348.742188 C 465.671875 1367.746094 507.21875 1359.773438 528.351562 1353.808594 C 557.695312 1345.507812 584.582031 1330.667969 611.980469 1317.691406 C 668.332031 1291.011719 727.53125 1270.839844 787.03125 1252.285156 C 800.160156 1248.179688 813.859375 1243.863281 823.871094 1234.300781 C 832.625 1226.175781 837.570312 1212.867188 833.792969 1201.929688 Z M 833.792969 1201.929688 " fill-opacity="1" fill-rule="nonzero"/><path fill="#ffb080" d="M 1034.621094 1449.160156 C 1034.265625 1445.066406 1033.625 1441.019531 1032.703125 1437.019531 C 1028.089844 1416.457031 1022.484375 1395.925781 1024.132812 1374.640625 C 1025.332031 1358.996094 1028.269531 1340.980469 1018.527344 1327.253906 C 1008.246094 1312.835938 988.972656 1311.425781 972.964844 1308.699219 C 954.320312 1305.519531 939.78125 1297.9375 928.871094 1281.71875 C 915.441406 1261.847656 916.882812 1236.757812 905.25 1217.003906 C 904.632812 1215.847656 903.886719 1214.777344 903.011719 1213.796875 C 902.136719 1212.820312 901.15625 1211.957031 900.074219 1211.214844 C 898.992188 1210.472656 897.835938 1209.867188 896.609375 1209.402344 C 895.382812 1208.9375 894.117188 1208.625 892.8125 1208.460938 C 880.824219 1207.832031 868.832031 1225.847656 860.710938 1232.953125 C 848.488281 1243.734375 835.648438 1253.726562 822.191406 1262.925781 C 780.828125 1291.3125 734.125 1308.90625 687.996094 1327.792969 C 655.621094 1341.039062 621.363281 1354.589844 588.359375 1368.167969 C 550.441406 1383.785156 488.632812 1395.894531 502.242188 1452.097656 C 510.304688 1485.367188 536.804688 1491.242188 566.71875 1489.085938 C 638.65625 1483.839844 710.597656 1481.710938 782.683594 1482.3125 C 852.046875 1482.910156 921.109375 1489.953125 990.320312 1491.304688 C 1001.980469 1491.542969 1014.300781 1489.414062 1023.140625 1481.773438 C 1033.332031 1472.988281 1035.671875 1461.207031 1034.621094 1449.160156 Z M 1034.621094 1449.160156 " fill-opacity="1" fill-rule="nonzero"/></g></g></g></svg>