<svg xmlns="http://www.w3.org/2000/svg" xmlns:xlink="http://www.w3.org/1999/xlink" width="2000" zoomAndPan="magnify" viewBox="0 0 1500 1499.999933" height="2000" preserveAspectRatio="xMidYMid meet" version="1.0"><defs><filter x="0%" y="0%" width="100%" height="100%" id="39505eaa1e"><feColorMatrix values="0 0 0 0 1 0 0 0 0 1 0 0 0 0 1 0 0 0 1 0" color-interpolation-filters="sRGB"/></filter><mask id="13d0544152"><g filter="url(#39505eaa1e)"><rect x="-150" width="1800" fill="#000000" y="-149.999993" height="1799.99992" fill-opacity="0.52"/></g></mask><clipPath id="2ca233adf3"><path d="M 0 0 L 1500 0 L 1500 1500 L 0 1500 Z M 0 0 " clip-rule="nonzero"/></clipPath><clipPath id="4441e67a49"><rect x="0" width="1500" y="0" height="1500"/></clipPath></defs><g mask="url(#13d0544152)"><g transform="matrix(1, 0, 0, 1, 0, 0.000000000000112861)"><g clip-path="url(#4441e67a49)"><g clip-path="url(#2ca233adf3)"><rect x="-330" width="2160" fill="#fffaf3" height="2159.999904" y="-329.999985" fill-opacity="1"/></g><path fill="#ffb080" d="M 809.054688 557.945312 C 810.050781 537.644531 811.082031 516.65625 811.265625 496.164062 C 811.511719 468.246094 809.992188 439.59375 808.523438 411.882812 C 808.230469 406.410156 807.941406 400.945312 807.660156 395.476562 C 807.433594 390.914062 806.589844 386.015625 805.691406 380.824219 C 804.4375 373.546875 803.144531 366.027344 803.195312 357.890625 C 803.648438 286.3125 804.542969 208.769531 805.9375 120.824219 C 806.183594 105.449219 806.804688 89.929688 807.410156 74.910156 C 808.101562 57.597656 808.820312 39.695312 808.945312 22.222656 C 808.992188 14.847656 809.003906 7.429688 808.992188 0 L 721.070312 0 C 721.84375 9.339844 722.554688 18.785156 723.039062 28.207031 C 728.054688 125.828125 730.082031 226.105469 729.0625 326.261719 C 728.710938 360.472656 729.726562 395.425781 730.699219 429.226562 C 731.546875 458.617188 732.425781 489.015625 732.421875 519.023438 C 732.410156 588.050781 731.640625 658.1875 730.898438 726.015625 C 730.535156 759.152344 730.152344 793.417969 729.871094 827.109375 C 729.667969 851.242188 729.867188 874.792969 730.082031 894.644531 C 730.164062 901.9375 727.996094 907.875 723.644531 912.28125 C 716.753906 919.265625 707.203125 919.28125 703.609375 919.289062 C 690.589844 919.316406 677.261719 919.609375 664.371094 919.902344 C 650.730469 920.207031 636.621094 920.523438 622.652344 920.523438 C 620.121094 920.523438 617.582031 920.511719 615.050781 920.488281 C 591.578125 920.285156 564.332031 919.828125 537.984375 916.949219 C 524.050781 915.425781 508.933594 914.695312 491.777344 914.695312 C 473.988281 914.695312 455.722656 915.480469 438.070312 916.246094 C 433.679688 916.433594 429.289062 916.628906 424.898438 916.804688 C 421.382812 916.949219 417.859375 917.113281 414.34375 917.289062 C 408.832031 917.554688 403.132812 917.828125 397.445312 918 C 321.457031 920.277344 254.132812 922.265625 191.632812 924.074219 C 174.136719 924.585938 156.640625 925.046875 139.136719 925.515625 C 105.3125 926.425781 70.335938 927.355469 35.984375 928.574219 C 24.054688 928.996094 11.988281 929.605469 0 930.28125 L 0 989.980469 C 1.230469 989.980469 2.460938 989.976562 3.691406 989.96875 C 29.285156 989.851562 55.753906 989.734375 81.796875 989.734375 C 99.476562 989.734375 115.402344 989.789062 130.488281 989.898438 C 172.734375 990.210938 215.65625 990.796875 257.164062 991.363281 C 302.894531 991.992188 350.175781 992.640625 396.65625 992.917969 C 478.03125 993.402344 565.101562 996.480469 670.6875 1002.609375 L 681.292969 1003.222656 C 711.308594 1004.988281 742.347656 1006.816406 772.734375 1006.816406 C 776.207031 1006.816406 779.683594 1006.785156 783.164062 1006.738281 L 783.691406 1006.738281 C 784.992188 1006.738281 786.1875 1006.796875 787.242188 1006.855469 C 787.480469 1006.867188 787.722656 1006.886719 787.96875 1006.898438 C 792.046875 1005.109375 796.371094 1004.203125 800.863281 1004.203125 C 803.652344 1004.203125 806.261719 1004.554688 808.644531 1005.023438 C 809.671875 994.734375 810.175781 984.082031 810.140625 973.234375 C 809.976562 920.332031 809.546875 863.707031 808.761719 789.648438 C 808.558594 770.0625 808.199219 750.109375 807.847656 730.816406 C 807.210938 695.417969 806.554688 658.816406 806.792969 622.722656 C 806.941406 601.011719 808.019531 579.117188 809.054688 557.945312 " fill-opacity="1" fill-rule="nonzero"/><path fill="#ffb080" d="M 610.269531 749.417969 C 609.140625 704.183594 607.351562 658.148438 605.625 613.628906 C 604.421875 582.84375 603.1875 551.007812 602.179688 519.667969 C 601.628906 502.574219 601.523438 485.296875 601.417969 468.589844 C 601.304688 450.414062 601.1875 431.628906 600.496094 413.289062 C 599.699219 392.21875 598.445312 370.722656 597.234375 349.933594 C 595.546875 320.882812 593.792969 290.839844 593.226562 261.117188 C 592.574219 226.785156 590.414062 191.757812 588.328125 157.886719 C 585.484375 111.820312 582.542969 64.183594 583.265625 16.867188 C 583.347656 11.476562 583.453125 5.828125 583.59375 0 L 490.300781 0 C 489.601562 16.863281 489.355469 31.957031 489.539062 46.183594 C 489.691406 57.960938 489.835938 69.730469 489.984375 81.503906 C 490.980469 162.199219 492.011719 245.636719 494.664062 327.578125 C 496.054688 370.453125 498.996094 414.15625 501.84375 456.414062 C 503.308594 478.199219 504.824219 500.730469 506.113281 522.925781 C 506.800781 534.742188 507.667969 546.808594 508.503906 558.472656 C 511.289062 597.316406 514.171875 637.476562 511.234375 677.753906 C 510.574219 686.90625 511.480469 696.550781 512.441406 706.761719 C 512.898438 711.625 513.375 716.660156 513.679688 721.738281 C 513.835938 724.375 514.023438 727.011719 514.234375 730.019531 L 514.585938 735.027344 C 514.890625 739.550781 513.316406 744.003906 510.214844 747.320312 C 507.121094 750.632812 502.785156 752.519531 498.25 752.519531 C 494.085938 752.519531 489.996094 752.523438 485.964844 752.53125 C 482.03125 752.535156 478.152344 752.542969 474.296875 752.542969 C 469.605469 752.542969 464.953125 752.53125 460.304688 752.5 L 445.210938 752.40625 C 419.074219 752.242188 392.042969 752.074219 365.425781 751.6875 C 359.824219 751.605469 354.539062 751.019531 349.429688 750.457031 C 346.484375 750.128906 343.707031 749.824219 340.988281 749.625 C 327.160156 748.617188 312.351562 747.574219 297.78125 746.753906 L 292.546875 746.453125 C 281.492188 745.816406 271.054688 745.210938 260.539062 745.199219 C 257.023438 745.195312 253.496094 745.164062 249.96875 745.140625 C 246.164062 745.105469 242.363281 745.082031 238.566406 745.082031 C 229.097656 745.082031 217.964844 745.242188 207.125 746.441406 C 188.613281 748.492188 170.082031 749.191406 152.164062 749.871094 C 145.523438 750.121094 138.65625 750.378906 131.949219 750.703125 C 107.753906 751.867188 83.070312 753.902344 59.203125 755.863281 C 43.125 757.195312 26.507812 758.558594 10.078125 759.660156 C 6.722656 759.890625 3.359375 760.078125 0 760.242188 L 0 842.757812 C 0.726562 842.875 1.4375 842.988281 2.167969 843.117188 C 6.058594 843.789062 10.394531 844.128906 15.066406 844.128906 C 22.464844 844.128906 30.679688 843.285156 39.480469 841.628906 C 61.6875 837.433594 82.570312 835.175781 103.332031 834.738281 C 135.171875 834.050781 167.554688 833.285156 198.867188 832.535156 C 252.066406 831.269531 307.078125 829.957031 361.21875 829.046875 C 364.929688 828.984375 368.832031 828.953125 372.820312 828.953125 C 388.507812 828.953125 404.335938 829.441406 419.648438 829.910156 C 430.546875 830.242188 441.820312 830.589844 452.835938 830.753906 C 495.714844 831.386719 540.046875 832.035156 583.804688 832.082031 C 589.617188 832.082031 595.910156 831.0625 602.578125 829.984375 C 603.976562 829.761719 605.402344 829.527344 606.84375 829.304688 C 607.222656 822.550781 607.675781 815.777344 608.109375 809.195312 C 609.410156 789.46875 610.757812 769.078125 610.269531 749.417969 " fill-opacity="1" fill-rule="nonzero"/><path fill="#ffb080" d="M 921.550781 818.441406 L 921.46875 822.988281 C 921.246094 835.652344 920.945312 848.496094 920.660156 860.917969 C 920.113281 884.347656 919.550781 908.589844 919.464844 932.34375 C 919.429688 942.246094 920.066406 952.136719 920.746094 962.605469 C 921.28125 970.902344 921.835938 979.480469 922.023438 988.09375 C 922.429688 1006.386719 922.640625 1024.949219 922.84375 1042.898438 C 923.195312 1073.683594 923.558594 1105.523438 924.90625 1136.671875 C 925.761719 1156.410156 927.632812 1176.648438 929.441406 1196.21875 C 932.582031 1230.191406 935.828125 1265.324219 934.160156 1300.699219 C 932.648438 1332.765625 933.273438 1364.664062 934.171875 1394.359375 C 934.5 1405.011719 935.578125 1415.625 936.71875 1426.863281 C 937.910156 1438.582031 939.144531 1450.699219 939.457031 1462.945312 C 939.765625 1475.261719 939.976562 1487.652344 940.140625 1500 L 1027.304688 1500 C 1027.257812 1496.847656 1027.207031 1493.699219 1027.140625 1490.566406 C 1027.035156 1485.519531 1025.558594 1479.707031 1023.988281 1473.554688 C 1022.25 1466.699219 1020.273438 1458.941406 1019.886719 1450.738281 C 1018.6875 1425.363281 1018.726562 1399.714844 1018.769531 1374.917969 C 1018.773438 1370.636719 1018.78125 1366.347656 1018.78125 1362.058594 C 1018.785156 1339.6875 1018.914062 1316.957031 1019.042969 1294.980469 C 1019.261719 1257.308594 1019.484375 1218.355469 1019.066406 1180.117188 C 1018.128906 1093.691406 1016.542969 1005.796875 1015.011719 920.789062 L 1014.222656 876.996094 C 1013.777344 852.109375 1013.050781 826.769531 1012.351562 802.265625 C 1011.984375 789.425781 1011.613281 776.59375 1011.285156 763.761719 C 1011.199219 760.324219 1011.222656 756.90625 1011.246094 753.890625 C 1011.25 752.601562 1011.261719 751.339844 1011.261719 750.128906 C 1011.261719 744.003906 1014.679688 738.390625 1020.121094 735.585938 C 1020.339844 735.472656 1020.496094 735.367188 1020.625 735.296875 C 1022.03125 734.460938 1025.324219 732.496094 1030.117188 732.496094 C 1030.289062 732.496094 1030.488281 732.503906 1030.65625 732.507812 C 1033.363281 732.589844 1036.160156 732.636719 1038.976562 732.636719 C 1059.5625 732.636719 1079.769531 730.410156 1101.167969 728.0625 C 1120.957031 725.894531 1141.417969 723.644531 1162.101562 723.332031 C 1162.5 723.332031 1162.898438 723.328125 1163.289062 723.328125 C 1169.414062 723.328125 1175.148438 724.007812 1180.699219 724.664062 C 1185.132812 725.191406 1189.328125 725.683594 1193.25 725.765625 C 1206.929688 726.039062 1220.921875 726.085938 1234.445312 726.128906 C 1244.710938 726.15625 1255.324219 726.191406 1265.792969 726.328125 C 1272.714844 726.414062 1279.605469 726.726562 1286.273438 727.03125 C 1291.265625 727.257812 1296.425781 727.492188 1301.429688 727.621094 C 1333.054688 728.4375 1364.683594 729.226562 1396.3125 730.011719 C 1427.535156 730.792969 1458.761719 731.570312 1489.980469 732.375 C 1493.320312 732.457031 1496.660156 732.554688 1500 732.644531 L 1500 651.445312 C 1495.855469 651.765625 1491.71875 652.082031 1487.589844 652.386719 C 1450.832031 655.078125 1407.355469 658.105469 1363.539062 660.15625 C 1319.898438 662.203125 1273.433594 664.21875 1227.285156 664.464844 L 1225.679688 664.464844 C 1210.335938 664.464844 1195.035156 663.304688 1180.246094 662.179688 C 1167.761719 661.234375 1154.851562 660.25 1142.378906 660.035156 C 1129.980469 659.816406 1116.773438 659.710938 1102.007812 659.710938 C 1082.6875 659.710938 1063.007812 659.894531 1043.976562 660.070312 C 1035.589844 660.152344 1027.207031 660.226562 1018.820312 660.292969 C 981.8125 660.566406 954.707031 664.277344 930.929688 672.304688 C 924.753906 674.390625 918.761719 680.148438 917.875 682.429688 C 914.886719 691.699219 914.441406 703.570312 916.628906 715.863281 C 922.785156 750.527344 922.160156 785.050781 921.550781 818.441406 " fill-opacity="1" fill-rule="nonzero"/><path fill="#ffb080" d="M 383.945312 620.734375 C 383.398438 590.394531 382.828125 559.019531 381.867188 528.222656 C 380.980469 499.972656 379.378906 471.421875 377.824219 443.8125 C 376.816406 425.90625 375.644531 407.671875 374.507812 390.039062 C 372.394531 357.085938 370.199219 323.015625 368.964844 289.359375 C 365.1875 186.578125 363.035156 107.710938 361.988281 33.644531 C 361.835938 22.457031 361.820312 11.21875 361.90625 0 L 263.585938 0 C 263.65625 18.726562 263.445312 37.335938 263.234375 55.679688 C 263.15625 62.570312 263.074219 69.457031 263.011719 76.339844 C 262.589844 121.152344 264.9375 166.980469 267.207031 211.304688 C 267.863281 224.125 268.542969 237.390625 269.144531 250.453125 C 271.371094 298.632812 274.078125 347.648438 276.699219 395.042969 C 277.484375 409.21875 278.269531 423.398438 279.035156 437.570312 C 279.734375 450.296875 280.519531 463.257812 281.273438 475.792969 C 282.277344 492.296875 283.308594 509.367188 284.152344 526.199219 C 284.550781 534.152344 284.457031 541.949219 284.355469 550.207031 C 284.308594 554.027344 284.261719 557.988281 284.261719 562.152344 C 284.261719 571.195312 276.933594 578.523438 267.890625 578.523438 C 262.347656 578.523438 256.988281 578.511719 251.761719 578.507812 C 246.792969 578.496094 241.941406 578.484375 237.152344 578.484375 C 231.433594 578.484375 225.804688 578.5 220.179688 578.542969 C 200.972656 578.675781 181.765625 578.871094 162.558594 579.058594 C 127.382812 579.414062 91.015625 579.777344 55.203125 579.777344 C 46.675781 579.777344 38.152344 579.761719 29.625 579.714844 C 19.675781 579.660156 9.773438 579.050781 0 578.242188 L 0 657.566406 C 3.691406 657.953125 7.382812 658.148438 11.050781 658.148438 C 17.9375 658.148438 24.992188 657.46875 32.027344 656.121094 C 52.683594 652.171875 77.328125 648.132812 103.511719 648.132812 C 107.460938 648.132812 111.421875 648.226562 115.273438 648.410156 C 115.753906 648.433594 116.234375 648.445312 116.714844 648.445312 C 120.257812 648.445312 124.296875 647.886719 128.566406 647.300781 C 133.753906 646.585938 139.113281 645.847656 144.933594 645.847656 C 145.460938 645.847656 145.992188 645.855469 146.519531 645.867188 C 163.765625 646.289062 181.132812 647.296875 197.929688 648.269531 C 204.875 648.671875 211.816406 649.070312 218.761719 649.433594 C 220.171875 649.511719 221.585938 649.585938 222.996094 649.667969 C 226.734375 649.878906 230.273438 650.078125 233.789062 650.171875 C 238.953125 650.308594 244.109375 650.449219 249.265625 650.589844 C 267.054688 651.082031 285.441406 651.589844 303.476562 651.824219 C 304.027344 651.832031 304.582031 651.832031 305.132812 651.832031 C 310.453125 651.832031 315.855469 651.527344 321.582031 651.199219 C 324.867188 651.011719 328.265625 650.816406 331.679688 650.683594 C 336.46875 650.496094 341.25 650.285156 346.039062 650.074219 C 358.351562 649.527344 371.089844 648.960938 383.773438 648.84375 C 383.832031 648.84375 383.886719 648.84375 383.945312 648.84375 C 384.207031 647.253906 384.402344 645.691406 384.386719 644.472656 C 384.234375 636.5625 384.09375 628.644531 383.945312 620.734375 " fill-opacity="1" fill-rule="nonzero"/><path fill="#ffb080" d="M 1500 482.261719 C 1498.851562 482.40625 1497.683594 482.554688 1496.542969 482.699219 C 1471.125 485.957031 1444.839844 489.320312 1418.746094 491.828125 C 1407.035156 492.953125 1394.53125 493.476562 1379.382812 493.476562 C 1369.773438 493.476562 1360.339844 493.269531 1351.503906 493.054688 C 1324.441406 492.402344 1296.984375 491.414062 1270.433594 490.457031 C 1250.71875 489.75 1230.332031 489.015625 1210.304688 488.425781 C 1194.203125 487.957031 1177.785156 487.617188 1161.914062 487.292969 C 1139.242188 486.832031 1115.804688 486.355469 1092.703125 485.460938 C 1084.464844 485.144531 1076.824219 483.636719 1069.433594 482.179688 C 1064.640625 481.234375 1060.117188 480.34375 1055.746094 479.839844 C 1049.570312 479.132812 1043.203125 478.875 1036.464844 478.605469 C 1032.496094 478.441406 1028.394531 478.277344 1024.277344 478.007812 C 1020.578125 477.765625 1017.132812 477.339844 1013.476562 476.886719 C 1011.925781 476.695312 1010.320312 476.496094 1008.648438 476.308594 C 1004.296875 475.820312 1000.324219 473.605469 997.609375 470.160156 C 994.902344 466.722656 993.691406 462.339844 994.234375 457.992188 C 994.480469 456.035156 994.773438 454.160156 995.054688 452.34375 C 995.511719 449.402344 995.90625 446.851562 995.929688 444.820312 C 995.992188 438.199219 996.132812 431.511719 996.269531 425.042969 C 996.644531 407.230469 997 390.410156 995.976562 373.488281 C 992.671875 318.925781 996.035156 265.816406 1000.089844 211.679688 C 1001.042969 198.976562 1001.238281 186.363281 1001.441406 173.003906 C 1001.535156 166.726562 1001.636719 160.242188 1001.824219 153.8125 C 1002.339844 135.855469 1002.882812 117.894531 1003.429688 99.941406 C 1004.417969 67.171875 1005.445312 33.421875 1006.292969 0 L 928.609375 0 C 928.164062 29.589844 927.5625 59.464844 926.707031 89.335938 C 925.5625 129.363281 923.488281 169.949219 921.484375 209.203125 C 920.085938 236.730469 918.632812 265.199219 917.511719 293.167969 C 916.21875 325.703125 915.492188 358.878906 914.792969 390.960938 C 914.511719 404.074219 914.226562 417.1875 913.902344 430.300781 C 913.539062 444.882812 913.148438 462.128906 912.964844 479.417969 C 912.855469 489.796875 912.835938 500.382812 912.824219 510.625 C 912.8125 517.644531 912.808594 524.660156 912.765625 531.671875 C 912.753906 534.34375 912.667969 536.945312 912.578125 539.460938 C 912.550781 540.304688 912.527344 541.140625 912.496094 541.960938 C 916.890625 541.289062 921.738281 540.636719 926.804688 540.636719 C 927.144531 540.636719 927.484375 540.644531 927.824219 540.648438 C 944.804688 540.941406 961.792969 541.222656 978.777344 541.503906 C 1046.964844 542.628906 1117.476562 543.789062 1186.839844 545.871094 C 1211.519531 546.609375 1236.210938 549.304688 1260.082031 551.90625 C 1267.640625 552.726562 1275.457031 553.582031 1283.109375 554.355469 L 1290.976562 555.152344 C 1318.617188 557.964844 1344.71875 560.617188 1371.410156 560.617188 C 1381.785156 560.617188 1391.390625 560.214844 1400.777344 559.394531 C 1426.878906 557.097656 1453.382812 555.953125 1479.011719 554.839844 C 1485.914062 554.542969 1492.957031 554.230469 1500 553.910156 L 1500 482.261719 " fill-opacity="1" fill-rule="nonzero"/><path fill="#ffb080" d="M 807.730469 1500 C 807.691406 1488.75 807.632812 1477.511719 807.539062 1466.332031 C 807.027344 1402.84375 806.25 1319.253906 804.761719 1235.683594 C 804.261719 1207.828125 803.265625 1179.4375 802.300781 1151.988281 C 801.644531 1133.203125 800.964844 1113.785156 800.441406 1094.648438 C 800.441406 1094.578125 800.4375 1094.511719 800.4375 1094.449219 C 799.945312 1094.414062 799.359375 1094.390625 798.667969 1094.390625 C 789.527344 1094.324219 780.375 1094.265625 771.226562 1094.265625 C 755.144531 1094.265625 742.054688 1094.460938 730.042969 1094.863281 C 719.699219 1095.214844 709.363281 1095.601562 699.023438 1095.984375 C 664.949219 1097.253906 629.71875 1098.566406 594.835938 1098.566406 C 577.652344 1098.566406 561.882812 1098.257812 546.636719 1097.625 C 528.082031 1096.851562 507.632812 1096.492188 482.277344 1096.492188 C 469.410156 1096.492188 456.296875 1096.582031 443.617188 1096.664062 C 430.886719 1096.75 417.714844 1096.839844 404.730469 1096.839844 C 393.007812 1096.839844 382.605469 1096.769531 372.929688 1096.617188 C 342.550781 1096.148438 315.78125 1094.242188 291.09375 1090.78125 C 254.257812 1085.617188 220.4375 1083.109375 187.699219 1083.109375 C 175.078125 1083.109375 162.457031 1083.496094 150.183594 1084.265625 C 134.144531 1085.261719 117.335938 1085.765625 100.21875 1085.765625 C 73.742188 1085.765625 45.875 1084.59375 15.011719 1082.195312 C 10.382812 1081.839844 5.457031 1081.59375 0 1081.445312 L 0 1127.25 C 5.449219 1126.796875 10.929688 1126.46875 16.441406 1126.363281 C 22.625 1126.246094 28.886719 1126.1875 35.597656 1126.1875 C 57.933594 1126.1875 80.542969 1126.855469 102.40625 1127.5 C 111.910156 1127.78125 121.414062 1128.058594 130.910156 1128.285156 L 138.410156 1128.46875 C 159.09375 1128.949219 180.492188 1129.453125 201.617188 1130.71875 C 225.550781 1132.148438 249.792969 1133.953125 273.234375 1135.699219 C 285.699219 1136.628906 298.160156 1137.554688 310.628906 1138.433594 C 321.265625 1139.183594 332.046875 1140.023438 342.46875 1140.832031 C 367.3125 1142.753906 393 1144.746094 418.152344 1145.664062 C 480.210938 1147.933594 543.363281 1149.75 604.433594 1151.5 C 630.644531 1152.25 656.859375 1153.007812 683.085938 1153.792969 C 685.289062 1153.863281 687.027344 1154.273438 688.066406 1154.511719 L 688.433594 1154.601562 C 696.140625 1156.082031 701.707031 1162.828125 701.707031 1170.671875 C 701.707031 1172.894531 701.734375 1175.097656 701.765625 1177.300781 C 701.828125 1182.332031 701.894531 1187.542969 701.640625 1192.886719 C 700.992188 1206.554688 700.160156 1220.402344 699.351562 1233.789062 C 697.675781 1261.6875 695.941406 1290.527344 695.839844 1318.667969 C 695.757812 1342.160156 696.953125 1366.269531 698.113281 1389.585938 C 699.09375 1409.183594 700.101562 1429.453125 700.363281 1449.539062 C 700.59375 1466.3125 700.511719 1483.1875 700.277344 1500 L 807.730469 1500 " fill-opacity="1" fill-rule="nonzero"/><path fill="#ffb080" d="M 1138.511719 1319.007812 C 1134.894531 1355.511719 1131.472656 1389.996094 1136.191406 1424.695312 C 1136.78125 1429.054688 1137.367188 1433.414062 1137.953125 1437.777344 C 1139.121094 1446.53125 1140.332031 1455.585938 1141.597656 1464.445312 C 1143.234375 1475.886719 1143.882812 1487.683594 1143.566406 1500 L 1218.351562 1500 C 1219.21875 1472.671875 1218.949219 1444.574219 1217.519531 1414.855469 C 1216.195312 1387.339844 1218.328125 1359.765625 1220.382812 1333.09375 L 1220.828125 1327.328125 C 1223.824219 1288.230469 1220.769531 1247.664062 1218.070312 1211.882812 C 1214.464844 1164.070312 1212.367188 1125.402344 1211.464844 1090.207031 C 1210.597656 1056.457031 1211.226562 1022.792969 1213.328125 990.15625 C 1213.546875 986.757812 1213.828125 983.402344 1214.097656 980.15625 C 1215.121094 967.769531 1216.089844 956.078125 1213.523438 945.144531 C 1212.015625 938.742188 1212.378906 932.71875 1212.667969 927.882812 C 1212.773438 926.203125 1212.867188 924.609375 1212.867188 923.273438 C 1212.867188 914.230469 1220.195312 906.902344 1229.238281 906.902344 C 1234.746094 906.902344 1240.210938 906.894531 1245.648438 906.882812 C 1251.046875 906.871094 1256.417969 906.859375 1261.769531 906.859375 C 1268.3125 906.859375 1274.835938 906.878906 1281.351562 906.925781 C 1292.886719 907.007812 1304.578125 907.21875 1315.875 907.421875 C 1330.210938 907.679688 1345.042969 907.949219 1359.539062 907.949219 C 1368.941406 907.949219 1377.410156 907.839844 1385.429688 907.609375 C 1394.675781 907.351562 1404.332031 907.21875 1414.140625 907.21875 C 1442.957031 907.21875 1471.410156 908.335938 1500 909.878906 L 1500 851.648438 C 1445.863281 850.585938 1390.996094 849.597656 1337.839844 848.636719 C 1297.476562 847.910156 1257.117188 847.175781 1216.757812 846.414062 C 1193.53125 845.976562 1169.945312 845.347656 1147.140625 844.746094 L 1136.929688 844.476562 C 1137.261719 845.953125 1137.519531 847.480469 1137.679688 849.085938 C 1138.371094 856.257812 1138.183594 863.097656 1138 869.710938 C 1137.960938 871.164062 1137.917969 872.617188 1137.894531 874.070312 C 1137.726562 882.234375 1137.46875 890.484375 1137.222656 898.464844 C 1137.105469 902.183594 1136.988281 905.910156 1136.882812 909.636719 C 1136.78125 913.011719 1136.671875 916.386719 1136.554688 919.761719 C 1136.296875 927.472656 1136.027344 935.449219 1135.972656 943.183594 C 1135.898438 953.582031 1136.027344 964.9375 1136.371094 978.917969 C 1136.570312 986.859375 1136.839844 994.960938 1137.105469 1002.796875 C 1137.449219 1013.144531 1137.800781 1023.84375 1138.007812 1034.425781 C 1138.113281 1040.15625 1138.007812 1045.820312 1137.902344 1051.304688 C 1137.773438 1058.414062 1137.644531 1065.117188 1137.960938 1071.742188 C 1139.488281 1104.367188 1141.058594 1136.25 1143.425781 1167.601562 C 1147.230469 1218.011719 1143.457031 1268.59375 1139.261719 1311.421875 L 1138.511719 1319.007812 " fill-opacity="1" fill-rule="nonzero"/><path fill="#ffb080" d="M 442.40625 1500 L 570.117188 1500 C 569.6875 1462.863281 568 1426.351562 565.023438 1390.652344 C 562.300781 1358.019531 562.195312 1325.285156 562.09375 1293.636719 C 562.054688 1280.871094 562.011719 1267.675781 561.796875 1254.742188 C 560.976562 1254.65625 559.945312 1254.578125 558.660156 1254.527344 C 546.882812 1254.015625 535.101562 1253.53125 523.316406 1253.039062 C 491.90625 1251.742188 459.425781 1250.40625 427.453125 1248.585938 C 384.925781 1246.160156 340.359375 1241.214844 294.996094 1233.890625 C 245.566406 1225.910156 200.023438 1222.03125 155.777344 1222.03125 C 148.578125 1222.03125 141.316406 1222.136719 134.210938 1222.347656 C 91.078125 1223.625 47.269531 1224.191406 4.894531 1224.742188 C 3.265625 1224.765625 1.628906 1224.789062 0 1224.8125 L 0 1295.382812 C 2.753906 1295.976562 5.496094 1296.632812 8.214844 1297.386719 C 30.066406 1303.476562 49.050781 1306.3125 67.945312 1306.3125 C 71.785156 1306.3125 75.675781 1306.1875 79.5 1305.949219 C 86.566406 1305.503906 93.996094 1305.285156 102.222656 1305.285156 C 114.667969 1305.285156 127.191406 1305.789062 139.308594 1306.277344 C 149.917969 1306.703125 160.886719 1307.144531 171.523438 1307.226562 L 173.050781 1307.230469 C 179.984375 1307.230469 186.921875 1306.886719 194.261719 1306.523438 C 201.6875 1306.148438 209.355469 1305.765625 217.097656 1305.765625 C 218.308594 1305.765625 219.523438 1305.777344 220.730469 1305.796875 C 243.140625 1306.164062 263.121094 1307.214844 281.832031 1309.011719 C 296.234375 1310.402344 310.710938 1312.1875 324.714844 1313.921875 C 339.054688 1315.691406 353.890625 1317.527344 368.410156 1318.890625 C 371.789062 1319.207031 375.449219 1319.355469 379.945312 1319.355469 C 383.652344 1319.355469 387.386719 1319.253906 391.335938 1319.148438 C 395.332031 1319.042969 399.460938 1318.933594 403.628906 1318.933594 C 404.785156 1318.933594 405.9375 1318.945312 407.089844 1318.960938 C 414.203125 1319.078125 421.140625 1319.484375 428.484375 1319.910156 C 431.746094 1320.097656 435.085938 1320.296875 438.554688 1320.46875 C 443.03125 1320.695312 447.214844 1322.746094 450.140625 1326.144531 C 453.0625 1329.542969 454.464844 1333.992188 454.019531 1338.457031 C 448.679688 1391.671875 444.8125 1445.648438 442.40625 1500 " fill-opacity="1" fill-rule="nonzero"/><path fill="#ffb080" d="M 40.507812 0 C 41.144531 10.164062 42.335938 20.265625 43.605469 30.941406 C 44.398438 37.574219 45.210938 44.425781 45.875 51.261719 C 46.332031 55.972656 46.828125 60.691406 47.332031 65.402344 C 48.84375 79.664062 50.410156 94.40625 50.773438 109.257812 C 51.925781 156.339844 52.214844 203.085938 52.414062 246.925781 C 52.5 265.996094 52.167969 285.292969 51.84375 303.960938 C 51.714844 311.546875 51.582031 319.136719 51.480469 326.722656 C 51.257812 342.601562 50.976562 358.269531 50.730469 371.496094 C 50.445312 386.910156 40.324219 396.492188 24.328125 396.492188 C 23.953125 396.492188 23.578125 396.484375 23.191406 396.472656 C 15.511719 396.292969 7.753906 396.1875 0 396.109375 L 0 476.097656 C 18.128906 475.128906 36.523438 474.226562 54.761719 473.605469 C 73.101562 472.980469 91.453125 472.925781 107.214844 472.925781 L 126.253906 472.9375 C 130.226562 472.9375 134.203125 472.933594 138.171875 472.921875 C 140.902344 472.914062 142.746094 472.804688 143.984375 472.679688 C 144.089844 472.007812 144.199219 471.152344 144.300781 470.074219 C 144.421875 468.726562 144.292969 466.75 144.160156 464.660156 L 144.070312 463.386719 C 143.519531 454.546875 142.941406 445.710938 142.359375 436.867188 C 141.304688 420.882812 140.222656 404.34375 139.320312 388.03125 C 136.066406 329.144531 138.839844 269.777344 141.515625 212.367188 C 142.90625 182.601562 144.339844 151.828125 144.910156 121.65625 C 145.554688 87.003906 147.125 51.894531 148.640625 17.941406 C 148.90625 12 149.175781 6.011719 149.433594 0 L 40.507812 0 " fill-opacity="1" fill-rule="nonzero"/><path fill="#ffb080" d="M 1500 331.316406 C 1484.871094 331.082031 1469.71875 330.414062 1454.96875 329.765625 C 1450.277344 329.554688 1445.582031 329.34375 1440.882812 329.148438 C 1440.015625 329.113281 1439.144531 329.097656 1438.269531 329.097656 C 1431.191406 329.097656 1423.667969 330.179688 1415.710938 331.335938 C 1411.539062 331.933594 1407.226562 332.558594 1402.855469 333.035156 C 1400.910156 333.25 1398.867188 333.5625 1396.699219 333.890625 C 1392.785156 334.488281 1388.347656 335.167969 1383.683594 335.34375 C 1378.269531 335.546875 1372.863281 335.757812 1367.449219 335.96875 C 1341.625 336.984375 1314.925781 338.03125 1288.535156 338.277344 L 1287.550781 338.285156 C 1277.78125 338.285156 1268.417969 336.972656 1259.371094 335.699219 C 1255.679688 335.183594 1252.199219 334.691406 1248.726562 334.292969 C 1242.773438 333.613281 1236.824219 332.871094 1230.878906 332.132812 C 1226.425781 331.574219 1221.964844 331.019531 1217.511719 330.492188 C 1217.34375 330.492188 1217.171875 330.496094 1217.003906 330.503906 C 1216.527344 330.515625 1216.058594 330.519531 1215.589844 330.519531 C 1213.738281 330.519531 1212.140625 330.378906 1210.550781 330.074219 C 1194.855469 327.058594 1177.5 320.027344 1182.679688 292.175781 C 1190.542969 249.925781 1193.777344 212.382812 1192.574219 177.410156 C 1192.117188 164.265625 1192.183594 151.042969 1192.242188 138.257812 C 1192.324219 121.558594 1192.398438 104.289062 1191.296875 87.65625 C 1189.371094 58.523438 1188.085938 29.253906 1187.238281 0 L 1112.625 0 C 1112.332031 5.964844 1112.027344 11.917969 1111.726562 17.824219 C 1110.085938 49.945312 1108.394531 83.160156 1107.964844 115.726562 C 1107.449219 155.027344 1108.65625 196.734375 1111.878906 250.945312 C 1114.089844 288.046875 1115.582031 324.433594 1109.753906 361.582031 C 1108.804688 367.621094 1108.523438 374.097656 1108.441406 380.320312 C 1114.761719 381.71875 1120.640625 382.734375 1126.234375 383.402344 C 1146.128906 385.773438 1166.441406 387.949219 1186.089844 390.046875 C 1192.851562 390.765625 1199.617188 391.492188 1206.378906 392.226562 C 1207.324219 392.324219 1208.265625 392.4375 1209.210938 392.546875 C 1211.8125 392.859375 1214.265625 393.152344 1216.304688 393.152344 L 1216.359375 393.152344 C 1261.960938 393.039062 1309.125 392.921875 1356.503906 392.53125 C 1362.15625 392.484375 1368.351562 391.347656 1373.113281 390.363281 C 1394.839844 385.875 1417.761719 383.695312 1443.199219 383.695312 C 1447.832031 383.695312 1452.621094 383.765625 1457.441406 383.910156 C 1467.035156 384.203125 1476.847656 384.355469 1486.609375 384.355469 C 1491.0625 384.355469 1495.527344 384.316406 1500 384.257812 L 1500 331.316406 " fill-opacity="1" fill-rule="nonzero"/><path fill="#ffb080" d="M 1330.804688 1279.476562 C 1325.929688 1337.828125 1322.792969 1394.886719 1337.765625 1451.476562 C 1342.09375 1467.847656 1342.910156 1484.066406 1342.539062 1500 L 1407.941406 1500 C 1407.941406 1498.808594 1407.941406 1497.621094 1407.941406 1496.429688 C 1407.9375 1492.433594 1407.9375 1488.445312 1407.925781 1484.449219 C 1407.882812 1464.539062 1406.917969 1444.113281 1405.984375 1424.359375 C 1405.3125 1410.085938 1404.613281 1395.332031 1404.257812 1380.71875 C 1404.046875 1372.253906 1404.496094 1363.960938 1404.925781 1355.941406 C 1405.371094 1347.714844 1405.785156 1339.949219 1405.515625 1332.332031 C 1404.597656 1306.277344 1403.113281 1279.714844 1401.671875 1254.027344 C 1401.144531 1244.53125 1400.613281 1235.03125 1400.109375 1225.539062 C 1399.996094 1223.4375 1399.796875 1221.246094 1399.585938 1218.929688 C 1399.242188 1215.175781 1398.882812 1211.289062 1398.835938 1207.136719 C 1398.726562 1196.71875 1398.671875 1186.148438 1398.625 1175.929688 C 1398.542969 1159.375 1398.460938 1142.261719 1398.109375 1125.492188 C 1398.046875 1122.332031 1397.847656 1112.730469 1404.855469 1105.574219 C 1409.5 1100.835938 1415.964844 1098.425781 1424.066406 1098.425781 C 1424.957031 1098.425781 1425.894531 1098.457031 1426.886719 1098.515625 C 1451.453125 1099.925781 1475.566406 1101.226562 1500 1101.894531 L 1500 1021.558594 C 1487.34375 1020.90625 1474.679688 1020.363281 1462.117188 1020.023438 C 1458.71875 1019.929688 1455.132812 1019.882812 1451.460938 1019.882812 C 1437.058594 1019.882812 1422.1875 1020.597656 1407.800781 1021.292969 C 1395.742188 1021.878906 1383.28125 1022.476562 1370.894531 1022.675781 C 1368.601562 1022.71875 1366.316406 1022.734375 1364.027344 1022.734375 C 1348.820312 1022.734375 1333.570312 1021.96875 1318.816406 1021.234375 L 1315.828125 1021.082031 C 1315.207031 1024.441406 1314.785156 1028.039062 1314.542969 1031.992188 C 1314.25 1036.792969 1314.179688 1041.660156 1314.105469 1046.816406 C 1313.957031 1057.023438 1313.800781 1067.570312 1311.867188 1078.398438 C 1306.222656 1109.980469 1307.859375 1135.761719 1317.023438 1159.523438 C 1330.371094 1194.132812 1334.746094 1232.242188 1330.804688 1279.476562 " fill-opacity="1" fill-rule="nonzero"/><path fill="#ffb080" d="M 1500 170.308594 C 1447.839844 171.085938 1389.894531 171.949219 1389.855469 171.949219 C 1385.371094 171.949219 1381.082031 170.109375 1377.988281 166.855469 C 1374.84375 163.546875 1373.21875 159.074219 1373.519531 154.515625 C 1373.734375 151.175781 1373.992188 147.964844 1374.246094 144.835938 C 1374.730469 138.777344 1375.195312 133.054688 1375.210938 127.652344 C 1375.257812 113.167969 1375.183594 98.40625 1375.105469 84.128906 C 1375 64.007812 1374.894531 43.199219 1375.117188 22.667969 C 1375.199219 15.140625 1375.328125 7.558594 1375.488281 0 L 1304.660156 0 C 1308.375 67.253906 1305.472656 133.207031 1295.988281 196.105469 C 1294.773438 204.164062 1293.355469 212.230469 1291.984375 220.03125 C 1291.304688 223.921875 1290.609375 227.886719 1289.941406 231.855469 C 1292.039062 232.546875 1293.972656 233.042969 1295.449219 233.097656 L 1299.960938 233.242188 C 1322.957031 234.003906 1346.734375 234.789062 1369.980469 234.789062 C 1376.988281 234.789062 1383.796875 234.71875 1390.21875 234.574219 C 1408.710938 234.164062 1428.648438 232.210938 1452.960938 228.425781 C 1465.210938 226.523438 1477.722656 225.597656 1491.214844 225.597656 C 1494.105469 225.597656 1497.027344 225.648438 1500 225.730469 L 1500 170.308594 " fill-opacity="1" fill-rule="nonzero"/><path fill="#ffb080" d="M 308.621094 1427.394531 C 297.558594 1426.664062 286.5 1425.882812 275.4375 1425.097656 C 250.429688 1423.335938 224.566406 1421.507812 199.179688 1420.277344 C 181.019531 1419.398438 162.347656 1419.203125 144.292969 1419.015625 C 135.59375 1418.921875 126.59375 1418.828125 117.714844 1418.660156 C 115.273438 1418.613281 112.835938 1418.578125 110.390625 1418.535156 C 100.753906 1418.371094 90.78125 1418.203125 80.867188 1417.710938 C 74.820312 1417.410156 68.835938 1416.894531 63.054688 1416.402344 C 57 1415.882812 51.28125 1415.394531 45.546875 1415.132812 C 41.789062 1414.960938 38.035156 1414.78125 34.285156 1414.59375 C 23.003906 1414.046875 11.449219 1413.492188 0 1413.226562 L 0 1480.066406 C 20.457031 1481.394531 41.226562 1482.777344 61.757812 1484.289062 C 72.960938 1485.109375 84.886719 1486.652344 99.292969 1489.128906 C 119.988281 1492.691406 139.4375 1494.421875 158.761719 1494.421875 C 163.671875 1494.421875 168.621094 1494.304688 173.480469 1494.074219 C 174.46875 1494.027344 175.464844 1494.003906 176.460938 1494.003906 C 182.234375 1494.003906 187.695312 1494.75 192.972656 1495.46875 C 195.609375 1495.828125 198.101562 1496.167969 200.621094 1496.414062 C 203.9375 1496.742188 206.914062 1498.042969 209.320312 1500 L 307.648438 1500 C 307.933594 1491.296875 308.203125 1482.625 308.460938 1474.09375 C 308.929688 1458.835938 309.417969 1443.070312 310.019531 1427.507812 C 309.597656 1427.472656 309.136719 1427.429688 308.621094 1427.394531 " fill-opacity="1" fill-rule="nonzero"/><path fill="#ffb080" d="M 1500 1312.035156 L 1500 1219.726562 C 1497.410156 1219.5 1494.824219 1219.269531 1492.253906 1219.058594 C 1491.34375 1241.101562 1491.070312 1264.410156 1496.171875 1287.351562 C 1497.914062 1295.203125 1499.183594 1303.386719 1500 1312.035156 " fill-opacity="1" fill-rule="nonzero"/><path fill="#ffb080" d="M 1500 1500 L 1500 1380.988281 C 1499.558594 1392.847656 1499.042969 1404.636719 1498.535156 1416.246094 C 1498.105469 1425.972656 1497.679688 1435.699219 1497.296875 1445.425781 C 1496.964844 1453.96875 1496.601562 1462.511719 1496.238281 1471.054688 C 1495.839844 1480.570312 1495.429688 1490.277344 1495.058594 1500 L 1500 1500 " fill-opacity="1" fill-rule="nonzero"/><path fill="#ffb080" d="M 1500 0 L 1479.855469 0 C 1478.789062 15.378906 1477.855469 30.871094 1476.953125 45.960938 C 1476.515625 53.394531 1476.070312 60.824219 1475.605469 68.253906 C 1478.660156 68.296875 1481.710938 68.3125 1484.765625 68.3125 C 1487.921875 68.3125 1491.082031 68.296875 1494.238281 68.277344 C 1496.15625 68.273438 1498.078125 68.273438 1500 68.261719 L 1500 0 " fill-opacity="1" fill-rule="nonzero"/></g></g></g></svg>